<svg version="1.1" viewBox="0.0 0.0 1082.0 669.0" fill="none" stroke="none" stroke-linecap="square" stroke-miterlimit="10" width="1082" height="669" xmlns:xlink="http://www.w3.org/1999/xlink" xmlns="http://www.w3.org/2000/svg"><path fill="#ffffff" d="M0 0L1082.0 0L1082.0 669.0L0 669.0L0 0Z" fill-rule="nonzero"/><path stroke="#333333" stroke-width="1.0" stroke-linecap="butt" d="M164.5 69.5L164.5 615.5" fill-rule="nonzero"/><path stroke="#cccccc" stroke-width="1.0" stroke-linecap="butt" d="M459.5 69.5L459.5 615.5" fill-rule="nonzero"/><path stroke="#cccccc" stroke-width="1.0" stroke-linecap="butt" d="M753.5 69.5L753.5 615.5" fill-rule="nonzero"/><path stroke="#cccccc" stroke-width="1.0" stroke-linecap="butt" d="M1048.5 69.5L1048.5 615.5" fill-rule="nonzero"/><clipPath id="id_0"><path d="M164.45 69.75L1048.55 69.75L1048.55 615.55L164.45 615.55L164.45 69.75Z" clip-rule="nonzero"/></clipPath><path stroke="#000000" stroke-width="0.0" stroke-linecap="butt" stroke-opacity="0.0" clip-path="url(#id_0)" d="M164.0 96.0L164.0 87.0L958.0 87.0C959.10455 87.0 960.0 87.89543 960.0 89.0L960.0 94.0C960.0 95.10457 959.10455 96.0 958.0 96.0Z" fill-rule="nonzero"/><path fill="#4285f4" clip-path="url(#id_0)" d="M164.0 96.0L164.0 87.0L958.0 87.0C959.10455 87.0 960.0 87.89543 960.0 89.0L960.0 94.0C960.0 95.10457 959.10455 96.0 958.0 96.0Z" fill-rule="nonzero"/><path stroke="#000000" stroke-width="0.0" stroke-linecap="butt" stroke-opacity="0.0" clip-path="url(#id_0)" d="M164.0 144.0L164.0 135.0L896.0 135.0C897.10455 135.0 898.0 135.89543 898.0 137.0L898.0 142.0C898.0 143.10457 897.10455 144.0 896.0 144.0Z" fill-rule="nonzero"/><path fill="#4285f4" clip-path="url(#id_0)" d="M164.0 144.0L164.0 135.0L896.0 135.0C897.10455 135.0 898.0 135.89543 898.0 137.0L898.0 142.0C898.0 143.10457 897.10455 144.0 896.0 144.0Z" fill-rule="nonzero"/><path stroke="#000000" stroke-width="0.0" stroke-linecap="butt" stroke-opacity="0.0" clip-path="url(#id_0)" d="M164.0 192.0L164.0 183.0L805.0 183.0C806.10455 183.0 807.0 183.89543 807.0 185.0L807.0 190.0C807.0 191.10457 806.10455 192.0 805.0 192.0Z" fill-rule="nonzero"/><path fill="#4285f4" clip-path="url(#id_0)" d="M164.0 192.0L164.0 183.0L805.0 183.0C806.10455 183.0 807.0 183.89543 807.0 185.0L807.0 190.0C807.0 191.10457 806.10455 192.0 805.0 192.0Z" fill-rule="nonzero"/><path stroke="#000000" stroke-width="0.0" stroke-linecap="butt" stroke-opacity="0.0" clip-path="url(#id_0)" d="M164.0 240.0L164.0 231.0L701.0 231.0C702.10455 231.0 703.0 231.89543 703.0 233.0L703.0 238.0C703.0 239.10457 702.10455 240.0 701.0 240.0Z" fill-rule="nonzero"/><path fill="#4285f4" clip-path="url(#id_0)" d="M164.0 240.0L164.0 231.0L701.0 231.0C702.10455 231.0 703.0 231.89543 703.0 233.0L703.0 238.0C703.0 239.10457 702.10455 240.0 701.0 240.0Z" fill-rule="nonzero"/><path stroke="#000000" stroke-width="0.0" stroke-linecap="butt" stroke-opacity="0.0" clip-path="url(#id_0)" d="M164.0 289.0L164.0 280.0L685.0 280.0C686.10455 280.0 687.0 280.89542 687.0 282.0L687.0 287.0C687.0 288.10458 686.10455 289.0 685.0 289.0Z" fill-rule="nonzero"/><path fill="#4285f4" clip-path="url(#id_0)" d="M164.0 289.0L164.0 280.0L685.0 280.0C686.10455 280.0 687.0 280.89542 687.0 282.0L687.0 287.0C687.0 288.10458 686.10455 289.0 685.0 289.0Z" fill-rule="nonzero"/><path stroke="#000000" stroke-width="0.0" stroke-linecap="butt" stroke-opacity="0.0" clip-path="url(#id_0)" d="M164.0 337.0L164.0 328.0L564.0 328.0C565.10455 328.0 566.0 328.89542 566.0 330.0L566.0 335.0C566.0 336.10458 565.10455 337.0 564.0 337.0Z" fill-rule="nonzero"/><path fill="#4285f4" clip-path="url(#id_0)" d="M164.0 337.0L164.0 328.0L564.0 328.0C565.10455 328.0 566.0 328.89542 566.0 330.0L566.0 335.0C566.0 336.10458 565.10455 337.0 564.0 337.0Z" fill-rule="nonzero"/><path stroke="#000000" stroke-width="0.0" stroke-linecap="butt" stroke-opacity="0.0" clip-path="url(#id_0)" d="M164.0 385.0L164.0 376.0L531.0 376.0C532.10455 376.0 533.0 376.89542 533.0 378.0L533.0 383.0C533.0 384.10458 532.10455 385.0 531.0 385.0Z" fill-rule="nonzero"/><path fill="#4285f4" clip-path="url(#id_0)" d="M164.0 385.0L164.0 376.0L531.0 376.0C532.10455 376.0 533.0 376.89542 533.0 378.0L533.0 383.0C533.0 384.10458 532.10455 385.0 531.0 385.0Z" fill-rule="nonzero"/><path stroke="#000000" stroke-width="0.0" stroke-linecap="butt" stroke-opacity="0.0" clip-path="url(#id_0)" d="M164.0 433.0L164.0 424.0L413.0 424.0C414.10458 424.0 415.0 424.89542 415.0 426.0L415.0 431.0C415.0 432.10458 414.10458 433.0 413.0 433.0Z" fill-rule="nonzero"/><path fill="#4285f4" clip-path="url(#id_0)" d="M164.0 433.0L164.0 424.0L413.0 424.0C414.10458 424.0 415.0 424.89542 415.0 426.0L415.0 431.0C415.0 432.10458 414.10458 433.0 413.0 433.0Z" fill-rule="nonzero"/><path stroke="#000000" stroke-width="0.0" stroke-linecap="butt" stroke-opacity="0.0" clip-path="url(#id_0)" d="M164.0 481.0L164.0 472.0L401.0 472.0C402.10458 472.0 403.0 472.89542 403.0 474.0L403.0 479.0C403.0 480.10458 402.10458 481.0 401.0 481.0Z" fill-rule="nonzero"/><path fill="#4285f4" clip-path="url(#id_0)" d="M164.0 481.0L164.0 472.0L401.0 472.0C402.10458 472.0 403.0 472.89542 403.0 474.0L403.0 479.0C403.0 480.10458 402.10458 481.0 401.0 481.0Z" fill-rule="nonzero"/><path stroke="#000000" stroke-width="0.0" stroke-linecap="butt" stroke-opacity="0.0" clip-path="url(#id_0)" d="M164.0 529.0L164.0 520.0L379.0 520.0C380.10458 520.0 381.0 520.89545 381.0 522.0L381.0 527.0C381.0 528.10455 380.10458 529.0 379.0 529.0Z" fill-rule="nonzero"/><path fill="#4285f4" clip-path="url(#id_0)" d="M164.0 529.0L164.0 520.0L379.0 520.0C380.10458 520.0 381.0 520.89545 381.0 522.0L381.0 527.0C381.0 528.10455 380.10458 529.0 379.0 529.0Z" fill-rule="nonzero"/><path stroke="#000000" stroke-width="0.0" stroke-linecap="butt" stroke-opacity="0.0" clip-path="url(#id_0)" d="M164.0 577.0L164.0 568.0L355.0 568.0C356.10458 568.0 357.0 568.89545 357.0 570.0L357.0 575.0C357.0 576.10455 356.10458 577.0 355.0 577.0Z" fill-rule="nonzero"/><path fill="#4285f4" clip-path="url(#id_0)" d="M164.0 577.0L164.0 568.0L355.0 568.0C356.10458 568.0 357.0 568.89545 357.0 570.0L357.0 575.0C357.0 576.10455 356.10458 577.0 355.0 577.0Z" fill-rule="nonzero"/><path stroke="#000000" stroke-width="0.0" stroke-linecap="butt" stroke-opacity="0.0" clip-path="url(#id_0)" d="M164.0 106.0L164.0 97.0L994.0 97.0C995.10455 97.0 996.0 97.89543 996.0 99.0L996.0 104.0C996.0 105.10457 995.10455 106.0 994.0 106.0Z" fill-rule="nonzero"/><path fill="#ea4335" clip-path="url(#id_0)" d="M164.0 106.0L164.0 97.0L994.0 97.0C995.10455 97.0 996.0 97.89543 996.0 99.0L996.0 104.0C996.0 105.10457 995.10455 106.0 994.0 106.0Z" fill-rule="nonzero"/><path stroke="#000000" stroke-width="0.0" stroke-linecap="butt" stroke-opacity="0.0" clip-path="url(#id_0)" d="M164.0 154.0L164.0 145.0L964.0 145.0C965.10455 145.0 966.0 145.89543 966.0 147.0L966.0 152.0C966.0 153.10457 965.10455 154.0 964.0 154.0Z" fill-rule="nonzero"/><path fill="#ea4335" clip-path="url(#id_0)" d="M164.0 154.0L164.0 145.0L964.0 145.0C965.10455 145.0 966.0 145.89543 966.0 147.0L966.0 152.0C966.0 153.10457 965.10455 154.0 964.0 154.0Z" fill-rule="nonzero"/><path stroke="#000000" stroke-width="0.0" stroke-linecap="butt" stroke-opacity="0.0" clip-path="url(#id_0)" d="M164.0 202.0L164.0 193.0L803.0 193.0C804.10455 193.0 805.0 193.89543 805.0 195.0L805.0 200.0C805.0 201.10457 804.10455 202.0 803.0 202.0Z" fill-rule="nonzero"/><path fill="#ea4335" clip-path="url(#id_0)" d="M164.0 202.0L164.0 193.0L803.0 193.0C804.10455 193.0 805.0 193.89543 805.0 195.0L805.0 200.0C805.0 201.10457 804.10455 202.0 803.0 202.0Z" fill-rule="nonzero"/><path stroke="#000000" stroke-width="0.0" stroke-linecap="butt" stroke-opacity="0.0" clip-path="url(#id_0)" d="M164.0 250.0L164.0 241.0L624.0 241.0C625.10455 241.0 626.0 241.89543 626.0 243.0L626.0 248.0C626.0 249.10457 625.10455 250.0 624.0 250.0Z" fill-rule="nonzero"/><path fill="#ea4335" clip-path="url(#id_0)" d="M164.0 250.0L164.0 241.0L624.0 241.0C625.10455 241.0 626.0 241.89543 626.0 243.0L626.0 248.0C626.0 249.10457 625.10455 250.0 624.0 250.0Z" fill-rule="nonzero"/><path stroke="#000000" stroke-width="0.0" stroke-linecap="butt" stroke-opacity="0.0" clip-path="url(#id_0)" d="M164.0 299.0L164.0 290.0L405.0 290.0C406.10458 290.0 407.0 290.89542 407.0 292.0L407.0 297.0C407.0 298.10458 406.10458 299.0 405.0 299.0Z" fill-rule="nonzero"/><path fill="#ea4335" clip-path="url(#id_0)" d="M164.0 299.0L164.0 290.0L405.0 290.0C406.10458 290.0 407.0 290.89542 407.0 292.0L407.0 297.0C407.0 298.10458 406.10458 299.0 405.0 299.0Z" fill-rule="nonzero"/><path stroke="#000000" stroke-width="0.0" stroke-linecap="butt" stroke-opacity="0.0" clip-path="url(#id_0)" d="M164.0 347.0L164.0 338.0L800.0 338.0C801.10455 338.0 802.0 338.89542 802.0 340.0L802.0 345.0C802.0 346.10458 801.10455 347.0 800.0 347.0Z" fill-rule="nonzero"/><path fill="#ea4335" clip-path="url(#id_0)" d="M164.0 347.0L164.0 338.0L800.0 338.0C801.10455 338.0 802.0 338.89542 802.0 340.0L802.0 345.0C802.0 346.10458 801.10455 347.0 800.0 347.0Z" fill-rule="nonzero"/><path stroke="#000000" stroke-width="0.0" stroke-linecap="butt" stroke-opacity="0.0" clip-path="url(#id_0)" d="M164.0 395.0L164.0 386.0L408.0 386.0C409.10458 386.0 410.0 386.89542 410.0 388.0L410.0 393.0C410.0 394.10458 409.10458 395.0 408.0 395.0Z" fill-rule="nonzero"/><path fill="#ea4335" clip-path="url(#id_0)" d="M164.0 395.0L164.0 386.0L408.0 386.0C409.10458 386.0 410.0 386.89542 410.0 388.0L410.0 393.0C410.0 394.10458 409.10458 395.0 408.0 395.0Z" fill-rule="nonzero"/><path stroke="#000000" stroke-width="0.0" stroke-linecap="butt" stroke-opacity="0.0" clip-path="url(#id_0)" d="M164.0 443.0L164.0 434.0L383.0 434.0C384.10458 434.0 385.0 434.89542 385.0 436.0L385.0 441.0C385.0 442.10458 384.10458 443.0 383.0 443.0Z" fill-rule="nonzero"/><path fill="#ea4335" clip-path="url(#id_0)" d="M164.0 443.0L164.0 434.0L383.0 434.0C384.10458 434.0 385.0 434.89542 385.0 436.0L385.0 441.0C385.0 442.10458 384.10458 443.0 383.0 443.0Z" fill-rule="nonzero"/><path stroke="#000000" stroke-width="0.0" stroke-linecap="butt" stroke-opacity="0.0" clip-path="url(#id_0)" d="M164.0 491.0L164.0 482.0L527.0 482.0C528.10455 482.0 529.0 482.89542 529.0 484.0L529.0 489.0C529.0 490.10458 528.10455 491.0 527.0 491.0Z" fill-rule="nonzero"/><path fill="#ea4335" clip-path="url(#id_0)" d="M164.0 491.0L164.0 482.0L527.0 482.0C528.10455 482.0 529.0 482.89542 529.0 484.0L529.0 489.0C529.0 490.10458 528.10455 491.0 527.0 491.0Z" fill-rule="nonzero"/><path stroke="#000000" stroke-width="0.0" stroke-linecap="butt" stroke-opacity="0.0" clip-path="url(#id_0)" d="M164.0 539.0L164.0 530.0L532.0 530.0C533.10455 530.0 534.0 530.89545 534.0 532.0L534.0 537.0C534.0 538.10455 533.10455 539.0 532.0 539.0Z" fill-rule="nonzero"/><path fill="#ea4335" clip-path="url(#id_0)" d="M164.0 539.0L164.0 530.0L532.0 530.0C533.10455 530.0 534.0 530.89545 534.0 532.0L534.0 537.0C534.0 538.10455 533.10455 539.0 532.0 539.0Z" fill-rule="nonzero"/><path stroke="#000000" stroke-width="0.0" stroke-linecap="butt" stroke-opacity="0.0" clip-path="url(#id_0)" d="M164.0 587.0L164.0 578.0L567.0 578.0C568.10455 578.0 569.0 578.89545 569.0 580.0L569.0 585.0C569.0 586.10455 568.10455 587.0 567.0 587.0Z" fill-rule="nonzero"/><path fill="#ea4335" clip-path="url(#id_0)" d="M164.0 587.0L164.0 578.0L567.0 578.0C568.10455 578.0 569.0 578.89545 569.0 580.0L569.0 585.0C569.0 586.10455 568.10455 587.0 567.0 587.0Z" fill-rule="nonzero"/><path stroke="#000000" stroke-width="0.0" stroke-linecap="butt" stroke-opacity="0.0" clip-path="url(#id_0)" d="M164.0 116.0L164.0 107.0L877.0 107.0C878.10455 107.0 879.0 107.89543 879.0 109.0L879.0 114.0C879.0 115.10457 878.10455 116.0 877.0 116.0Z" fill-rule="nonzero"/><path fill="#fbbc04" clip-path="url(#id_0)" d="M164.0 116.0L164.0 107.0L877.0 107.0C878.10455 107.0 879.0 107.89543 879.0 109.0L879.0 114.0C879.0 115.10457 878.10455 116.0 877.0 116.0Z" fill-rule="nonzero"/><path stroke="#000000" stroke-width="0.0" stroke-linecap="butt" stroke-opacity="0.0" clip-path="url(#id_0)" d="M164.0 164.0L164.0 155.0L850.0 155.0C851.10455 155.0 852.0 155.89543 852.0 157.0L852.0 162.0C852.0 163.10457 851.10455 164.0 850.0 164.0Z" fill-rule="nonzero"/><path fill="#fbbc04" clip-path="url(#id_0)" d="M164.0 164.0L164.0 155.0L850.0 155.0C851.10455 155.0 852.0 155.89543 852.0 157.0L852.0 162.0C852.0 163.10457 851.10455 164.0 850.0 164.0Z" fill-rule="nonzero"/><path stroke="#000000" stroke-width="0.0" stroke-linecap="butt" stroke-opacity="0.0" clip-path="url(#id_0)" d="M164.0 212.0L164.0 203.0L746.0 203.0C747.10455 203.0 748.0 203.89543 748.0 205.0L748.0 210.0C748.0 211.10457 747.10455 212.0 746.0 212.0Z" fill-rule="nonzero"/><path fill="#fbbc04" clip-path="url(#id_0)" d="M164.0 212.0L164.0 203.0L746.0 203.0C747.10455 203.0 748.0 203.89543 748.0 205.0L748.0 210.0C748.0 211.10457 747.10455 212.0 746.0 212.0Z" fill-rule="nonzero"/><path stroke="#000000" stroke-width="0.0" stroke-linecap="butt" stroke-opacity="0.0" clip-path="url(#id_0)" d="M164.0 260.0L164.0 251.0L646.0 251.0C647.10455 251.0 648.0 251.89543 648.0 253.0L648.0 258.0C648.0 259.10458 647.10455 260.0 646.0 260.0Z" fill-rule="nonzero"/><path fill="#fbbc04" clip-path="url(#id_0)" d="M164.0 260.0L164.0 251.0L646.0 251.0C647.10455 251.0 648.0 251.89543 648.0 253.0L648.0 258.0C648.0 259.10458 647.10455 260.0 646.0 260.0Z" fill-rule="nonzero"/><path stroke="#000000" stroke-width="0.0" stroke-linecap="butt" stroke-opacity="0.0" clip-path="url(#id_0)" d="M164.0 309.0L164.0 300.0L647.0 300.0C648.10455 300.0 649.0 300.89542 649.0 302.0L649.0 307.0C649.0 308.10458 648.10455 309.0 647.0 309.0Z" fill-rule="nonzero"/><path fill="#fbbc04" clip-path="url(#id_0)" d="M164.0 309.0L164.0 300.0L647.0 300.0C648.10455 300.0 649.0 300.89542 649.0 302.0L649.0 307.0C649.0 308.10458 648.10455 309.0 647.0 309.0Z" fill-rule="nonzero"/><path stroke="#000000" stroke-width="0.0" stroke-linecap="butt" stroke-opacity="0.0" clip-path="url(#id_0)" d="M164.0 357.0L164.0 348.0L709.0 348.0C710.10455 348.0 711.0 348.89542 711.0 350.0L711.0 355.0C711.0 356.10458 710.10455 357.0 709.0 357.0Z" fill-rule="nonzero"/><path fill="#fbbc04" clip-path="url(#id_0)" d="M164.0 357.0L164.0 348.0L709.0 348.0C710.10455 348.0 711.0 348.89542 711.0 350.0L711.0 355.0C711.0 356.10458 710.10455 357.0 709.0 357.0Z" fill-rule="nonzero"/><path stroke="#000000" stroke-width="0.0" stroke-linecap="butt" stroke-opacity="0.0" clip-path="url(#id_0)" d="M164.0 405.0L164.0 396.0L482.0 396.0C483.10458 396.0 484.0 396.89542 484.0 398.0L484.0 403.0C484.0 404.10458 483.10458 405.0 482.0 405.0Z" fill-rule="nonzero"/><path fill="#fbbc04" clip-path="url(#id_0)" d="M164.0 405.0L164.0 396.0L482.0 396.0C483.10458 396.0 484.0 396.89542 484.0 398.0L484.0 403.0C484.0 404.10458 483.10458 405.0 482.0 405.0Z" fill-rule="nonzero"/><path stroke="#000000" stroke-width="0.0" stroke-linecap="butt" stroke-opacity="0.0" clip-path="url(#id_0)" d="M164.0 453.0L164.0 444.0L423.0 444.0C424.10458 444.0 425.0 444.89542 425.0 446.0L425.0 451.0C425.0 452.10458 424.10458 453.0 423.0 453.0Z" fill-rule="nonzero"/><path fill="#fbbc04" clip-path="url(#id_0)" d="M164.0 453.0L164.0 444.0L423.0 444.0C424.10458 444.0 425.0 444.89542 425.0 446.0L425.0 451.0C425.0 452.10458 424.10458 453.0 423.0 453.0Z" fill-rule="nonzero"/><path stroke="#000000" stroke-width="0.0" stroke-linecap="butt" stroke-opacity="0.0" clip-path="url(#id_0)" d="M164.0 501.0L164.0 492.0L463.0 492.0C464.10458 492.0 465.0 492.89542 465.0 494.0L465.0 499.0C465.0 500.10458 464.10458 501.0 463.0 501.0Z" fill-rule="nonzero"/><path fill="#fbbc04" clip-path="url(#id_0)" d="M164.0 501.0L164.0 492.0L463.0 492.0C464.10458 492.0 465.0 492.89542 465.0 494.0L465.0 499.0C465.0 500.10458 464.10458 501.0 463.0 501.0Z" fill-rule="nonzero"/><path stroke="#000000" stroke-width="0.0" stroke-linecap="butt" stroke-opacity="0.0" clip-path="url(#id_0)" d="M164.0 549.0L164.0 540.0L481.0 540.0C482.10458 540.0 483.0 540.89545 483.0 542.0L483.0 547.0C483.0 548.10455 482.10458 549.0 481.0 549.0Z" fill-rule="nonzero"/><path fill="#fbbc04" clip-path="url(#id_0)" d="M164.0 549.0L164.0 540.0L481.0 540.0C482.10458 540.0 483.0 540.89545 483.0 542.0L483.0 547.0C483.0 548.10455 482.10458 549.0 481.0 549.0Z" fill-rule="nonzero"/><path stroke="#000000" stroke-width="0.0" stroke-linecap="butt" stroke-opacity="0.0" clip-path="url(#id_0)" d="M164.0 597.0L164.0 588.0L402.0 588.0C403.10458 588.0 404.0 588.89545 404.0 590.0L404.0 595.0C404.0 596.10455 403.10458 597.0 402.0 597.0Z" fill-rule="nonzero"/><path fill="#fbbc04" clip-path="url(#id_0)" d="M164.0 597.0L164.0 588.0L402.0 588.0C403.10458 588.0 404.0 588.89545 404.0 590.0L404.0 595.0C404.0 596.10455 403.10458 597.0 402.0 597.0Z" fill-rule="nonzero"/><path fill="#000000" d="M101.79375 103.77197L102.825 103.63135Q102.85625 104.61572 103.18437 104.9751Q103.5125 105.33447 104.10625 105.33447Q104.52812 105.33447 104.84062 105.14697Q105.15312 104.94385 105.2625 104.61572Q105.3875 104.27197 105.3875 103.5376L105.3875 97.61572L106.5125 97.61572L106.5125 103.4751Q106.5125 104.55322 106.24687 105.14697Q105.99687 105.74072 105.43437 106.05322Q104.87187 106.3501 104.10625 106.3501Q102.98125 106.3501 102.37187 105.70947Q101.77812 105.05322 101.79375 103.77197ZM112.30937 105.44385Q111.71562 105.94385 111.16875 106.14697Q110.6375 106.3501 110.0125 106.3501Q108.98125 106.3501 108.43437 105.8501Q107.8875 105.3501 107.8875 104.56885Q107.8875 104.11572 108.09062 103.74072Q108.29375 103.3501 108.6375 103.13135Q108.98125 102.89697 109.40312 102.7876Q109.7 102.69385 110.34062 102.61572Q111.60625 102.4751 112.21562 102.25635Q112.21562 102.0376 112.21562 101.99072Q112.21562 101.33447 111.91875 101.06885Q111.5125 100.7251 110.71562 100.7251Q109.98125 100.7251 109.62187 100.99072Q109.2625 101.24072 109.09062 101.89697L108.05937 101.75635Q108.2 101.1001 108.52812 100.69385Q108.85625 100.2876 109.46562 100.06885Q110.075 99.8501 110.87187 99.8501Q111.66875 99.8501 112.16875 100.0376Q112.66875 100.2251 112.90312 100.50635Q113.1375 100.7876 113.23125 101.2251Q113.27812 101.49072 113.27812 102.19385L113.27812 103.6001Q113.27812 105.06885 113.34062 105.45947Q113.41875 105.8501 113.62187 106.20947L112.5125 106.20947Q112.35625 105.88135 112.30937 105.44385ZM112.21562 103.08447Q111.6375 103.31885 110.49687 103.49072Q109.84062 103.58447 109.575 103.70947Q109.30937 103.81885 109.15312 104.0376Q109.0125 104.25635 109.0125 104.5376Q109.0125 104.95947 109.325 105.24072Q109.65312 105.52197 110.2625 105.52197Q110.87187 105.52197 111.34062 105.25635Q111.825 104.99072 112.04375 104.52197Q112.21562 104.1626 112.21562 103.4751L112.21562 103.08447ZM116.96562 106.20947L114.60625 99.99072L115.71562 99.99072L117.05937 103.70947Q117.2625 104.31885 117.45 104.95947Q117.59062 104.4751 117.84062 103.7876L119.23125 99.99072L120.30937 99.99072L117.95 106.20947L116.96562 106.20947ZM125.30937 105.44385Q124.71562 105.94385 124.16875 106.14697Q123.6375 106.3501 123.0125 106.3501Q121.98125 106.3501 121.43437 105.8501Q120.8875 105.3501 120.8875 104.56885Q120.8875 104.11572 121.09062 103.74072Q121.29375 103.3501 121.6375 103.13135Q121.98125 102.89697 122.40312 102.7876Q122.7 102.69385 123.34062 102.61572Q124.60625 102.4751 125.21562 102.25635Q125.21562 102.0376 125.21562 101.99072Q125.21562 101.33447 124.91875 101.06885Q124.5125 100.7251 123.71562 100.7251Q122.98125 100.7251 122.62187 100.99072Q122.2625 101.24072 122.09062 101.89697L121.05937 101.75635Q121.2 101.1001 121.52812 100.69385Q121.85625 100.2876 122.46562 100.06885Q123.075 99.8501 123.87187 99.8501Q124.66875 99.8501 125.16875 100.0376Q125.66875 100.2251 125.90312 100.50635Q126.1375 100.7876 126.23125 101.2251Q126.27812 101.49072 126.27812 102.19385L126.27812 103.6001Q126.27812 105.06885 126.34062 105.45947Q126.41875 105.8501 126.62187 106.20947L125.5125 106.20947Q125.35625 105.88135 125.30937 105.44385ZM125.21562 103.08447Q124.6375 103.31885 123.49687 103.49072Q122.84062 103.58447 122.575 103.70947Q122.30937 103.81885 122.15312 104.0376Q122.0125 104.25635 122.0125 104.5376Q122.0125 104.95947 122.325 105.24072Q122.65312 105.52197 123.2625 105.52197Q123.87187 105.52197 124.34062 105.25635Q124.825 104.99072 125.04375 104.52197Q125.21562 104.1626 125.21562 103.4751L125.21562 103.08447ZM127.99687 103.44385L129.05937 103.3501Q129.1375 104.00635 129.41875 104.4126Q129.7 104.81885 130.27812 105.08447Q130.87187 105.33447 131.60625 105.33447Q132.24687 105.33447 132.74687 105.14697Q133.24687 104.94385 133.48125 104.61572Q133.73125 104.27197 133.73125 103.88135Q133.73125 103.4751 133.49687 103.17822Q133.2625 102.86572 132.73125 102.6626Q132.37187 102.52197 131.18437 102.24072Q130.0125 101.95947 129.54375 101.70947Q128.91875 101.38135 128.62187 100.9126Q128.325 100.42822 128.325 99.83447Q128.325 99.19385 128.68437 98.63135Q129.05937 98.05322 129.7625 97.77197Q130.48125 97.4751 131.34062 97.4751Q132.29375 97.4751 133.02812 97.7876Q133.7625 98.08447 134.15312 98.69385Q134.54375 99.2876 134.575 100.0376L133.48125 100.11572Q133.3875 99.30322 132.87187 98.89697Q132.37187 98.4751 131.3875 98.4751Q130.35625 98.4751 129.8875 98.8501Q129.41875 99.2251 129.41875 99.75635Q129.41875 100.2251 129.74687 100.52197Q130.075 100.81885 131.45 101.13135Q132.84062 101.44385 133.35625 101.67822Q134.10625 102.0376 134.46562 102.56885Q134.825 103.08447 134.825 103.7876Q134.825 104.4751 134.43437 105.08447Q134.04375 105.67822 133.30937 106.02197Q132.575 106.3501 131.65312 106.3501Q130.48125 106.3501 129.68437 106.02197Q128.90312 105.67822 128.45 104.99072Q128.0125 104.30322 127.99687 103.44385ZM140.30937 103.92822L141.34062 104.06885Q141.16875 105.13135 140.46562 105.74072Q139.7625 106.3501 138.74687 106.3501Q137.46562 106.3501 136.68437 105.52197Q135.91875 104.67822 135.91875 103.11572Q135.91875 102.11572 136.24687 101.36572Q136.59062 100.6001 137.2625 100.2251Q137.95 99.8501 138.7625 99.8501Q139.7625 99.8501 140.40312 100.36572Q141.05937 100.86572 141.24687 101.81885L140.21562 101.9751Q140.075 101.3501 139.7 101.0376Q139.325 100.70947 138.79375 100.70947Q137.99687 100.70947 137.49687 101.2876Q136.99687 101.8501 136.99687 103.08447Q136.99687 104.3501 137.48125 104.9126Q137.96562 105.4751 138.73125 105.4751Q139.35625 105.4751 139.7625 105.1001Q140.18437 104.7251 140.30937 103.92822ZM142.23125 106.20947L142.23125 99.99072L143.18437 99.99072L143.18437 100.92822Q143.54375 100.27197 143.84062 100.06885Q144.15312 99.8501 144.52812 99.8501Q145.05937 99.8501 145.60625 100.17822L145.24687 101.1626Q144.85625 100.92822 144.48125 100.92822Q144.12187 100.92822 143.84062 101.14697Q143.575 101.3501 143.46562 101.7251Q143.27812 102.2876 143.27812 102.94385L143.27812 106.20947L142.23125 106.20947ZM146.24687 98.83447L146.24687 97.61572L147.30937 97.61572L147.30937 98.83447L146.24687 98.83447ZM146.24687 106.20947L146.24687 99.99072L147.30937 99.99072L147.30937 106.20947L146.24687 106.20947ZM149.24687 108.6001L149.24687 99.99072L150.2 99.99072L150.2 100.7876Q150.54375 100.31885 150.96562 100.08447Q151.40312 99.8501 152.0125 99.8501Q152.80937 99.8501 153.41875 100.25635Q154.02812 100.6626 154.325 101.4126Q154.6375 102.1626 154.6375 103.05322Q154.6375 104.00635 154.29375 104.77197Q153.96562 105.5376 153.30937 105.94385Q152.65312 106.3501 151.93437 106.3501Q151.40312 106.3501 150.98125 106.13135Q150.55937 105.89697 150.29375 105.56885L150.29375 108.6001L149.24687 108.6001ZM150.2 103.13135Q150.2 104.33447 150.68437 104.9126Q151.16875 105.4751 151.85625 105.4751Q152.55937 105.4751 153.05937 104.88135Q153.55937 104.2876 153.55937 103.0376Q153.55937 101.8501 153.075 101.27197Q152.59062 100.67822 151.90312 100.67822Q151.23125 100.67822 150.71562 101.30322Q150.2 101.92822 150.2 103.13135ZM158.54375 105.27197L158.7 106.19385Q158.24687 106.2876 157.90312 106.2876Q157.325 106.2876 157.0125 106.11572Q156.7 105.92822 156.55937 105.63135Q156.43437 105.33447 156.43437 104.38135L156.43437 100.80322L155.66875 100.80322L155.66875 99.99072L156.43437 99.99072L156.43437 98.44385L157.48125 97.81885L157.48125 99.99072L158.54375 99.99072L158.54375 100.80322L157.48125 100.80322L157.48125 104.44385Q157.48125 104.89697 157.52812 105.02197Q157.59062 105.14697 157.71562 105.2251Q157.84062 105.30322 158.075 105.30322Q158.2625 105.30322 158.54375 105.27197Z" fill-rule="nonzero"/><path fill="#000000" d="M98.41875 154.29758L98.41875 145.70383L99.54375 145.70383L99.54375 149.23508L104.0125 149.23508L104.0125 145.70383L105.15312 145.70383L105.15312 154.29758L104.0125 154.29758L104.0125 150.2507L99.54375 150.2507L99.54375 154.29758L98.41875 154.29758ZM109.55937 154.29758L109.55937 146.71945L106.73125 146.71945L106.73125 145.70383L113.54375 145.70383L113.54375 146.71945L110.7 146.71945L110.7 154.29758L109.55937 154.29758ZM114.34062 154.29758L114.34062 145.70383L116.05937 145.70383L118.09062 151.78195Q118.37187 152.64133 118.49687 153.0632Q118.6375 152.59445 118.95 151.6882L121.0125 145.70383L122.54375 145.70383L122.54375 154.29758L121.45 154.29758L121.45 147.11008L118.95 154.29758L117.91875 154.29758L115.43437 146.98508L115.43437 154.29758L114.34062 154.29758ZM124.325 154.29758L124.325 145.70383L125.46562 145.70383L125.46562 153.28195L129.7 153.28195L129.7 154.29758L124.325 154.29758ZM130.45 154.4382L132.93437 145.5632L133.77812 145.5632L131.29375 154.4382L130.45 154.4382ZM140.5125 151.28195L141.6375 151.57883Q141.27812 152.96945 140.35625 153.70383Q139.43437 154.4382 138.09062 154.4382Q136.7 154.4382 135.825 153.8757Q134.95 153.3132 134.49687 152.2507Q134.04375 151.17258 134.04375 149.9382Q134.04375 148.59445 134.55937 147.59445Q135.075 146.59445 136.0125 146.07883Q136.96562 145.5632 138.10625 145.5632Q139.3875 145.5632 140.2625 146.21945Q141.15312 146.8757 141.49687 148.0632L140.37187 148.32883Q140.075 147.39133 139.49687 146.96945Q138.93437 146.53195 138.075 146.53195Q137.09062 146.53195 136.41875 147.01633Q135.7625 147.48508 135.48125 148.28195Q135.21562 149.07883 135.21562 149.9382Q135.21562 151.03195 135.52812 151.84445Q135.85625 152.65695 136.52812 153.0632Q137.2 153.46945 137.99687 153.46945Q138.95 153.46945 139.60625 152.92258Q140.27812 152.3757 140.5125 151.28195ZM142.99687 151.53195L144.05937 151.4382Q144.1375 152.09445 144.41875 152.5007Q144.7 152.90695 145.27812 153.17258Q145.87187 153.42258 146.60625 153.42258Q147.24687 153.42258 147.74687 153.23508Q148.24687 153.03195 148.48125 152.70383Q148.73125 152.36008 148.73125 151.96945Q148.73125 151.5632 148.49687 151.26633Q148.2625 150.95383 147.73125 150.7507Q147.37187 150.61008 146.18437 150.32883Q145.0125 150.04758 144.54375 149.79758Q143.91875 149.46945 143.62187 149.0007Q143.325 148.51633 143.325 147.92258Q143.325 147.28195 143.68437 146.71945Q144.05937 146.14133 144.7625 145.86008Q145.48125 145.5632 146.34062 145.5632Q147.29375 145.5632 148.02812 145.8757Q148.7625 146.17258 149.15312 146.78195Q149.54375 147.3757 149.575 148.1257L148.48125 148.20383Q148.3875 147.39133 147.87187 146.98508Q147.37187 146.5632 146.3875 146.5632Q145.35625 146.5632 144.8875 146.9382Q144.41875 147.3132 144.41875 147.84445Q144.41875 148.3132 144.74687 148.61008Q145.075 148.90695 146.45 149.21945Q147.84062 149.53195 148.35625 149.76633Q149.10625 150.1257 149.46562 150.65695Q149.825 151.17258 149.825 151.8757Q149.825 152.5632 149.43437 153.17258Q149.04375 153.76633 148.30937 154.11008Q147.575 154.4382 146.65312 154.4382Q145.48125 154.4382 144.68437 154.11008Q143.90312 153.76633 143.45 153.07883Q143.0125 152.39133 142.99687 151.53195ZM150.99687 151.53195L152.05937 151.4382Q152.1375 152.09445 152.41875 152.5007Q152.7 152.90695 153.27812 153.17258Q153.87187 153.42258 154.60625 153.42258Q155.24687 153.42258 155.74687 153.23508Q156.24687 153.03195 156.48125 152.70383Q156.73125 152.36008 156.73125 151.96945Q156.73125 151.5632 156.49687 151.26633Q156.2625 150.95383 155.73125 150.7507Q155.37187 150.61008 154.18437 150.32883Q153.0125 150.04758 152.54375 149.79758Q151.91875 149.46945 151.62187 149.0007Q151.325 148.51633 151.325 147.92258Q151.325 147.28195 151.68437 146.71945Q152.05937 146.14133 152.7625 145.86008Q153.48125 145.5632 154.34062 145.5632Q155.29375 145.5632 156.02812 145.8757Q156.7625 146.17258 157.15312 146.78195Q157.54375 147.3757 157.575 148.1257L156.48125 148.20383Q156.3875 147.39133 155.87187 146.98508Q155.37187 146.5632 154.3875 146.5632Q153.35625 146.5632 152.8875 146.9382Q152.41875 147.3132 152.41875 147.84445Q152.41875 148.3132 152.74687 148.61008Q153.075 148.90695 154.45 149.21945Q155.84062 149.53195 156.35625 149.76633Q157.10625 150.1257 157.46562 150.65695Q157.825 151.17258 157.825 151.8757Q157.825 152.5632 157.43437 153.17258Q157.04375 153.76633 156.30937 154.11008Q155.575 154.4382 154.65312 154.4382Q153.48125 154.4382 152.68437 154.11008Q151.90312 153.76633 151.45 153.07883Q151.0125 152.39133 150.99687 151.53195Z" fill-rule="nonzero"/><path fill="#000000" d="M134.99687 199.62006L136.05937 199.5263Q136.1375 200.18256 136.41875 200.5888Q136.7 200.99506 137.27812 201.26068Q137.87187 201.51068 138.60625 201.51068Q139.24687 201.51068 139.74687 201.32318Q140.24687 201.12006 140.48125 200.79193Q140.73125 200.44818 140.73125 200.05756Q140.73125 199.6513 140.49687 199.35443Q140.2625 199.04193 139.73125 198.8388Q139.37187 198.69818 138.18437 198.41693Q137.0125 198.13568 136.54375 197.88568Q135.91875 197.55756 135.62187 197.0888Q135.325 196.60443 135.325 196.01068Q135.325 195.37006 135.68437 194.80756Q136.05937 194.22943 136.7625 193.94818Q137.48125 193.6513 138.34062 193.6513Q139.29375 193.6513 140.02812 193.9638Q140.7625 194.26068 141.15312 194.87006Q141.54375 195.4638 141.575 196.2138L140.48125 196.29193Q140.3875 195.47943 139.87187 195.07318Q139.37187 194.6513 138.3875 194.6513Q137.35625 194.6513 136.8875 195.0263Q136.41875 195.4013 136.41875 195.93256Q136.41875 196.4013 136.74687 196.69818Q137.075 196.99506 138.45 197.30756Q139.84062 197.62006 140.35625 197.85443Q141.10625 198.2138 141.46562 198.74506Q141.825 199.26068 141.825 199.9638Q141.825 200.6513 141.43437 201.26068Q141.04375 201.85443 140.30937 202.19818Q139.575 202.5263 138.65312 202.5263Q137.48125 202.5263 136.68437 202.19818Q135.90312 201.85443 135.45 201.16693Q135.0125 200.47943 134.99687 199.62006ZM149.8875 201.4638Q150.68437 202.01068 151.34062 202.26068L151.0125 203.05756Q150.09062 202.7138 149.16875 201.99506Q148.21562 202.5263 147.05937 202.5263Q145.8875 202.5263 144.93437 201.9638Q143.99687 201.4013 143.48125 200.38568Q142.96562 199.37006 142.96562 198.0888Q142.96562 196.82318 143.48125 195.7763Q143.99687 194.72943 144.95 194.18256Q145.90312 193.63568 147.075 193.63568Q148.2625 193.63568 149.21562 194.2138Q150.18437 194.7763 150.68437 195.79193Q151.18437 196.80756 151.18437 198.0888Q151.18437 199.1513 150.85625 199.99506Q150.54375 200.8388 149.8875 201.4638ZM147.3875 200.01068Q148.37187 200.29193 149.0125 200.8388Q150.0125 199.91693 150.0125 198.0888Q150.0125 197.04193 149.65312 196.26068Q149.29375 195.47943 148.60625 195.05756Q147.93437 194.62006 147.09062 194.62006Q145.80937 194.62006 144.96562 195.49506Q144.1375 196.35443 144.1375 198.0888Q144.1375 199.76068 144.96562 200.66693Q145.79375 201.55756 147.09062 201.55756Q147.7 201.55756 148.23125 201.32318Q147.7 200.97943 147.10625 200.8388L147.3875 200.01068ZM152.325 202.38568L152.325 193.79193L153.46562 193.79193L153.46562 201.37006L157.7 201.37006L157.7 202.38568L152.325 202.38568Z" fill-rule="nonzero"/><path fill="#000000" d="M121.37187 250.47379L121.37187 241.88004L124.62187 241.88004Q125.46562 241.88004 125.91875 241.95816Q126.55937 242.06754 126.98125 242.36441Q127.41875 242.66129 127.66875 243.19254Q127.93437 243.72379 127.93437 244.36441Q127.93437 245.45816 127.23125 246.22379Q126.54375 246.97379 124.71562 246.97379L122.5125 246.97379L122.5125 250.47379L121.37187 250.47379ZM122.5125 245.97379L124.73125 245.97379Q125.84062 245.97379 126.29375 245.56754Q126.7625 245.14566 126.7625 244.39566Q126.7625 243.86441 126.48125 243.48941Q126.21562 243.09879 125.77812 242.97379Q125.48125 242.89566 124.71562 242.89566L122.5125 242.89566L122.5125 245.97379ZM129.2 252.86441L129.075 251.88004Q129.41875 251.97379 129.68437 251.97379Q130.02812 251.97379 130.23125 251.84879Q130.45 251.73941 130.59062 251.53629Q130.68437 251.36441 130.91875 250.73941Q130.93437 250.66129 131.0125 250.48941L128.6375 244.25504L129.77812 244.25504L131.075 247.84879Q131.325 248.53629 131.52812 249.30191Q131.71562 248.56754 131.96562 247.88004L133.29375 244.25504L134.34062 244.25504L131.98125 250.58316Q131.59062 251.59879 131.3875 251.98941Q131.10625 252.52066 130.73125 252.75504Q130.37187 253.00504 129.87187 253.00504Q129.575 253.00504 129.2 252.86441ZM137.54375 249.53629L137.7 250.45816Q137.24687 250.55191 136.90312 250.55191Q136.325 250.55191 136.0125 250.38004Q135.7 250.19254 135.55937 249.89566Q135.43437 249.59879 135.43437 248.64566L135.43437 245.06754L134.66875 245.06754L134.66875 244.25504L135.43437 244.25504L135.43437 242.70816L136.48125 242.08316L136.48125 244.25504L137.54375 244.25504L137.54375 245.06754L136.48125 245.06754L136.48125 248.70816Q136.48125 249.16129 136.52812 249.28629Q136.59062 249.41129 136.71562 249.48941Q136.84062 249.56754 137.075 249.56754Q137.2625 249.56754 137.54375 249.53629ZM138.24687 250.47379L138.24687 241.88004L139.29375 241.88004L139.29375 244.95816Q140.02812 244.11441 141.15312 244.11441Q141.85625 244.11441 142.35625 244.39566Q142.87187 244.66129 143.09062 245.14566Q143.30937 245.61441 143.30937 246.53629L143.30937 250.47379L142.2625 250.47379L142.2625 246.53629Q142.2625 245.73941 141.91875 245.38004Q141.575 245.02066 140.95 245.02066Q140.48125 245.02066 140.05937 245.27066Q139.65312 245.50504 139.46562 245.92691Q139.29375 246.33316 139.29375 247.06754L139.29375 250.47379L138.24687 250.47379ZM144.85625 247.36441Q144.85625 245.63004 145.80937 244.80191Q146.60625 244.11441 147.7625 244.11441Q149.04375 244.11441 149.85625 244.95816Q150.68437 245.78629 150.68437 247.27066Q150.68437 248.47379 150.325 249.16129Q149.96562 249.84879 149.2625 250.23941Q148.575 250.61441 147.7625 250.61441Q146.46562 250.61441 145.65312 249.78629Q144.85625 248.94254 144.85625 247.36441ZM145.93437 247.36441Q145.93437 248.55191 146.45 249.14566Q146.98125 249.73941 147.7625 249.73941Q148.55937 249.73941 149.075 249.14566Q149.59062 248.55191 149.59062 247.33316Q149.59062 246.17691 149.05937 245.58316Q148.54375 244.98941 147.7625 244.98941Q146.98125 244.98941 146.45 245.58316Q145.93437 246.16129 145.93437 247.36441ZM152.24687 250.47379L152.24687 244.25504L153.18437 244.25504L153.18437 245.13004Q153.87187 244.11441 155.16875 244.11441Q155.73125 244.11441 156.2 244.31754Q156.68437 244.52066 156.91875 244.84879Q157.15312 245.17691 157.24687 245.61441Q157.29375 245.91129 157.29375 246.64566L157.29375 250.47379L156.24687 250.47379L156.24687 246.69254Q156.24687 246.03629 156.12187 245.72379Q155.99687 245.41129 155.68437 245.22379Q155.37187 245.02066 154.95 245.02066Q154.27812 245.02066 153.77812 245.45816Q153.29375 245.88004 153.29375 247.06754L153.29375 250.47379L152.24687 250.47379Z" fill-rule="nonzero"/><path fill="#000000" d="M34.325 298.5619L34.325 289.96814L37.559376 289.96814Q38.54375 289.96814 39.1375 290.23376Q39.73125 290.4994 40.059376 291.04626Q40.403126 291.5775 40.403126 292.17126Q40.403126 292.71814 40.10625 293.2025Q39.809376 293.6869 39.2 293.98376Q39.98125 294.21814 40.3875 294.78064Q40.809376 295.3275 40.809376 296.0775Q40.809376 296.67126 40.559376 297.2025Q40.309376 297.71814 39.934376 297.9994Q39.559376 298.28064 38.98125 298.42126Q38.41875 298.5619 37.60625 298.5619L34.325 298.5619ZM35.465626 293.5775L37.325 293.5775Q38.075 293.5775 38.403126 293.48376Q38.840626 293.35876 39.059376 293.0619Q39.278126 292.7494 39.278126 292.29626Q39.278126 291.8744 39.075 291.54626Q38.871876 291.21814 38.48125 291.10876Q38.10625 290.98376 37.184376 290.98376L35.465626 290.98376L35.465626 293.5775ZM35.465626 297.54626L37.60625 297.54626Q38.153126 297.54626 38.371876 297.4994Q38.778126 297.4369 39.028126 297.28064Q39.29375 297.10876 39.465626 296.79626Q39.6375 296.48376 39.6375 296.0775Q39.6375 295.59314 39.3875 295.23376Q39.153126 294.8744 38.715626 294.73376Q38.278126 294.59314 37.45 294.59314L35.465626 294.59314L35.465626 297.54626ZM46.309376 297.79626Q45.715626 298.29626 45.16875 298.4994Q44.6375 298.7025 44.0125 298.7025Q42.98125 298.7025 42.434376 298.2025Q41.8875 297.7025 41.8875 296.92126Q41.8875 296.46814 42.090626 296.09314Q42.29375 295.7025 42.6375 295.48376Q42.98125 295.2494 43.403126 295.14Q43.7 295.04626 44.340626 294.96814Q45.60625 294.8275 46.215626 294.60876Q46.215626 294.39 46.215626 294.34314Q46.215626 293.6869 45.91875 293.42126Q45.5125 293.0775 44.715626 293.0775Q43.98125 293.0775 43.621876 293.34314Q43.2625 293.59314 43.090626 294.2494L42.059376 294.10876Q42.2 293.4525 42.528126 293.04626Q42.85625 292.64 43.465626 292.42126Q44.075 292.2025 44.871876 292.2025Q45.66875 292.2025 46.16875 292.39Q46.66875 292.5775 46.903126 292.85876Q47.1375 293.14 47.23125 293.5775Q47.278126 293.84314 47.278126 294.54626L47.278126 295.9525Q47.278126 297.42126 47.340626 297.8119Q47.41875 298.2025 47.621876 298.5619L46.5125 298.5619Q46.35625 298.23376 46.309376 297.79626ZM46.215626 295.4369Q45.6375 295.67126 44.496876 295.84314Q43.840626 295.9369 43.575 296.0619Q43.309376 296.17126 43.153126 296.39Q43.0125 296.60876 43.0125 296.89Q43.0125 297.3119 43.325 297.59314Q43.653126 297.8744 44.2625 297.8744Q44.871876 297.8744 45.340626 297.60876Q45.825 297.34314 46.04375 296.8744Q46.215626 296.515 46.215626 295.8275L46.215626 295.4369ZM48.825 296.7025L49.85625 296.54626Q49.95 297.17126 50.340626 297.4994Q50.746876 297.8275 51.48125 297.8275Q52.2 297.8275 52.54375 297.54626Q52.903126 297.2494 52.903126 296.84314Q52.903126 296.48376 52.590626 296.28064Q52.371876 296.14 51.5125 295.92126Q50.35625 295.6244 49.903126 295.42126Q49.465626 295.2025 49.23125 294.8275Q48.996876 294.4525 48.996876 293.98376Q48.996876 293.5775 49.184376 293.21814Q49.371876 292.85876 49.7 292.6244Q49.95 292.4525 50.371876 292.3275Q50.79375 292.2025 51.29375 292.2025Q52.0125 292.2025 52.559376 292.42126Q53.121876 292.6244 53.3875 292.98376Q53.653126 293.34314 53.746876 293.9369L52.715626 294.0775Q52.653126 293.60876 52.309376 293.34314Q51.98125 293.0619 51.35625 293.0619Q50.6375 293.0619 50.325 293.3119Q50.0125 293.54626 50.0125 293.8744Q50.0125 294.0775 50.1375 294.23376Q50.278126 294.40564 50.54375 294.515Q50.7 294.5775 51.48125 294.78064Q52.60625 295.09314 53.04375 295.28064Q53.48125 295.46814 53.73125 295.8275Q53.98125 296.1869 53.98125 296.73376Q53.98125 297.265 53.66875 297.73376Q53.371876 298.1869 52.79375 298.4525Q52.215626 298.7025 51.48125 298.7025Q50.2625 298.7025 49.621876 298.2025Q48.996876 297.6869 48.825 296.7025ZM55.246876 298.5619L55.246876 289.96814L56.29375 289.96814L56.29375 293.04626Q57.028126 292.2025 58.153126 292.2025Q58.85625 292.2025 59.35625 292.48376Q59.871876 292.7494 60.090626 293.23376Q60.309376 293.7025 60.309376 294.6244L60.309376 298.5619L59.2625 298.5619L59.2625 294.6244Q59.2625 293.8275 58.91875 293.46814Q58.575 293.10876 57.95 293.10876Q57.48125 293.10876 57.059376 293.35876Q56.653126 293.59314 56.465626 294.015Q56.29375 294.42126 56.29375 295.15564L56.29375 298.5619L55.246876 298.5619ZM61.45 298.7025L63.934376 289.8275L64.77812 289.8275L62.29375 298.7025L61.45 298.7025ZM64.99687 295.79626L66.05937 295.7025Q66.1375 296.35876 66.41875 296.765Q66.7 297.17126 67.27812 297.4369Q67.87187 297.6869 68.60625 297.6869Q69.24687 297.6869 69.74687 297.4994Q70.24687 297.29626 70.48125 296.96814Q70.73125 296.6244 70.73125 296.23376Q70.73125 295.8275 70.49687 295.53064Q70.2625 295.21814 69.73125 295.015Q69.37187 294.8744 68.18437 294.59314Q67.0125 294.3119 66.54375 294.0619Q65.91875 293.73376 65.62187 293.265Q65.325 292.78064 65.325 292.1869Q65.325 291.54626 65.68437 290.98376Q66.05937 290.40564 66.7625 290.1244Q67.48125 289.8275 68.34062 289.8275Q69.29375 289.8275 70.02812 290.14Q70.7625 290.4369 71.15312 291.04626Q71.54375 291.64 71.575 292.39L70.48125 292.46814Q70.3875 291.65564 69.87187 291.2494Q69.37187 290.8275 68.3875 290.8275Q67.35625 290.8275 66.8875 291.2025Q66.41875 291.5775 66.41875 292.10876Q66.41875 292.5775 66.74687 292.8744Q67.075 293.17126 68.45 293.48376Q69.84062 293.79626 70.35625 294.03064Q71.10625 294.39 71.46562 294.92126Q71.825 295.4369 71.825 296.14Q71.825 296.8275 71.43437 297.4369Q71.04375 298.03064 70.30937 298.3744Q69.575 298.7025 68.65312 298.7025Q67.48125 298.7025 66.68437 298.3744Q65.90312 298.03064 65.45 297.34314Q65.0125 296.65564 64.99687 295.79626ZM73.24687 298.5619L73.24687 289.96814L74.29375 289.96814L74.29375 293.04626Q75.02812 292.2025 76.15312 292.2025Q76.85625 292.2025 77.35625 292.48376Q77.87187 292.7494 78.09062 293.23376Q78.30937 293.7025 78.30937 294.6244L78.30937 298.5619L77.2625 298.5619L77.2625 294.6244Q77.2625 293.8275 76.91875 293.46814Q76.575 293.10876 75.95 293.10876Q75.48125 293.10876 75.05937 293.35876Q74.65312 293.59314 74.46562 294.015Q74.29375 294.42126 74.29375 295.15564L74.29375 298.5619L73.24687 298.5619ZM84.49687 296.5619L85.59062 296.6869Q85.34062 297.64 84.6375 298.17126Q83.93437 298.7025 82.85625 298.7025Q81.49687 298.7025 80.68437 297.85876Q79.8875 297.015 79.8875 295.4994Q79.8875 293.9369 80.7 293.0775Q81.5125 292.2025 82.79375 292.2025Q84.04375 292.2025 84.825 293.04626Q85.62187 293.89 85.62187 295.4369Q85.62187 295.53064 85.62187 295.71814L80.98125 295.71814Q81.04375 296.7494 81.55937 297.29626Q82.075 297.8275 82.85625 297.8275Q83.43437 297.8275 83.84062 297.53064Q84.2625 297.21814 84.49687 296.5619ZM81.04375 294.85876L84.5125 294.85876Q84.45 294.0619 84.12187 293.67126Q83.60625 293.0619 82.80937 293.0619Q82.075 293.0619 81.575 293.54626Q81.09062 294.03064 81.04375 294.85876ZM87.21562 298.5619L87.21562 289.96814L88.27812 289.96814L88.27812 298.5619L87.21562 298.5619ZM90.21562 298.5619L90.21562 289.96814L91.27812 289.96814L91.27812 298.5619L90.21562 298.5619ZM92.45 298.7025L94.93437 289.8275L95.77812 289.8275L93.29375 298.7025L92.45 298.7025ZM96.37187 298.5619L96.37187 289.96814L99.62187 289.96814Q100.46562 289.96814 100.91875 290.04626Q101.55937 290.15564 101.98125 290.4525Q102.41875 290.7494 102.66875 291.28064Q102.93437 291.8119 102.93437 292.4525Q102.93437 293.54626 102.23125 294.3119Q101.54375 295.0619 99.71562 295.0619L97.5125 295.0619L97.5125 298.5619L96.37187 298.5619ZM97.5125 294.0619L99.73125 294.0619Q100.84062 294.0619 101.29375 293.65564Q101.7625 293.23376 101.7625 292.48376Q101.7625 291.9525 101.48125 291.5775Q101.21562 291.1869 100.77812 291.0619Q100.48125 290.98376 99.71562 290.98376L97.5125 290.98376L97.5125 294.0619ZM103.85625 295.4525Q103.85625 293.71814 104.80937 292.89Q105.60625 292.2025 106.7625 292.2025Q108.04375 292.2025 108.85625 293.04626Q109.68437 293.8744 109.68437 295.35876Q109.68437 296.5619 109.325 297.2494Q108.96562 297.9369 108.2625 298.3275Q107.575 298.7025 106.7625 298.7025Q105.46562 298.7025 104.65312 297.8744Q103.85625 297.03064 103.85625 295.4525ZM104.93437 295.4525Q104.93437 296.64 105.45 297.23376Q105.98125 297.8275 106.7625 297.8275Q107.55937 297.8275 108.075 297.23376Q108.59062 296.64 108.59062 295.42126Q108.59062 294.265 108.05937 293.67126Q107.54375 293.0775 106.7625 293.0775Q105.98125 293.0775 105.45 293.67126Q104.93437 294.2494 104.93437 295.4525ZM112.3875 298.5619L110.48125 292.34314L111.575 292.34314L112.55937 295.9369L112.93437 297.265Q112.96562 297.17126 113.2625 295.98376L114.24687 292.34314L115.325 292.34314L116.2625 295.9525L116.575 297.14L116.93437 295.9369L117.99687 292.34314L119.02812 292.34314L117.075 298.5619L115.98125 298.5619L114.99687 294.8275L114.74687 293.78064L113.49687 298.5619L112.3875 298.5619ZM124.49687 296.5619L125.59062 296.6869Q125.34062 297.64 124.6375 298.17126Q123.93437 298.7025 122.85625 298.7025Q121.49687 298.7025 120.68437 297.85876Q119.8875 297.015 119.8875 295.4994Q119.8875 293.9369 120.7 293.0775Q121.5125 292.2025 122.79375 292.2025Q124.04375 292.2025 124.825 293.04626Q125.62187 293.89 125.62187 295.4369Q125.62187 295.53064 125.62187 295.71814L120.98125 295.71814Q121.04375 296.7494 121.55937 297.29626Q122.075 297.8275 122.85625 297.8275Q123.43437 297.8275 123.84062 297.53064Q124.2625 297.21814 124.49687 296.5619ZM121.04375 294.85876L124.5125 294.85876Q124.45 294.0619 124.12187 293.67126Q123.60625 293.0619 122.80937 293.0619Q122.075 293.0619 121.575 293.54626Q121.09062 294.03064 121.04375 294.85876ZM127.23125 298.5619L127.23125 292.34314L128.18437 292.34314L128.18437 293.28064Q128.54375 292.6244 128.84062 292.42126Q129.15312 292.2025 129.52812 292.2025Q130.05937 292.2025 130.60625 292.53064L130.24687 293.515Q129.85625 293.28064 129.48125 293.28064Q129.12187 293.28064 128.84062 293.4994Q128.575 293.7025 128.46562 294.0775Q128.27812 294.64 128.27812 295.29626L128.27812 298.5619L127.23125 298.5619ZM130.99687 295.79626L132.05937 295.7025Q132.1375 296.35876 132.41875 296.765Q132.7 297.17126 133.27812 297.4369Q133.87187 297.6869 134.60625 297.6869Q135.24687 297.6869 135.74687 297.4994Q136.24687 297.29626 136.48125 296.96814Q136.73125 296.6244 136.73125 296.23376Q136.73125 295.8275 136.49687 295.53064Q136.2625 295.21814 135.73125 295.015Q135.37187 294.8744 134.18437 294.59314Q133.0125 294.3119 132.54375 294.0619Q131.91875 293.73376 131.62187 293.265Q131.325 292.78064 131.325 292.1869Q131.325 291.54626 131.68437 290.98376Q132.05937 290.40564 132.7625 290.1244Q133.48125 289.8275 134.34062 289.8275Q135.29375 289.8275 136.02812 290.14Q136.7625 290.4369 137.15312 291.04626Q137.54375 291.64 137.575 292.39L136.48125 292.46814Q136.3875 291.65564 135.87187 291.2494Q135.37187 290.8275 134.3875 290.8275Q133.35625 290.8275 132.8875 291.2025Q132.41875 291.5775 132.41875 292.10876Q132.41875 292.5775 132.74687 292.8744Q133.075 293.17126 134.45 293.48376Q135.84062 293.79626 136.35625 294.03064Q137.10625 294.39 137.46562 294.92126Q137.825 295.4369 137.825 296.14Q137.825 296.8275 137.43437 297.4369Q137.04375 298.03064 136.30937 298.3744Q135.575 298.7025 134.65312 298.7025Q133.48125 298.7025 132.68437 298.3744Q131.90312 298.03064 131.45 297.34314Q131.0125 296.65564 130.99687 295.79626ZM139.24687 298.5619L139.24687 289.96814L140.29375 289.96814L140.29375 293.04626Q141.02812 292.2025 142.15312 292.2025Q142.85625 292.2025 143.35625 292.48376Q143.87187 292.7494 144.09062 293.23376Q144.30937 293.7025 144.30937 294.6244L144.30937 298.5619L143.2625 298.5619L143.2625 294.6244Q143.2625 293.8275 142.91875 293.46814Q142.575 293.10876 141.95 293.10876Q141.48125 293.10876 141.05937 293.35876Q140.65312 293.59314 140.46562 294.015Q140.29375 294.42126 140.29375 295.15564L140.29375 298.5619L139.24687 298.5619ZM150.49687 296.5619L151.59062 296.6869Q151.34062 297.64 150.6375 298.17126Q149.93437 298.7025 148.85625 298.7025Q147.49687 298.7025 146.68437 297.85876Q145.8875 297.015 145.8875 295.4994Q145.8875 293.9369 146.7 293.0775Q147.5125 292.2025 148.79375 292.2025Q150.04375 292.2025 150.825 293.04626Q151.62187 293.89 151.62187 295.4369Q151.62187 295.53064 151.62187 295.71814L146.98125 295.71814Q147.04375 296.7494 147.55937 297.29626Q148.075 297.8275 148.85625 297.8275Q149.43437 297.8275 149.84062 297.53064Q150.2625 297.21814 150.49687 296.5619ZM147.04375 294.85876L150.5125 294.85876Q150.45 294.0619 150.12187 293.67126Q149.60625 293.0619 148.80937 293.0619Q148.075 293.0619 147.575 293.54626Q147.09062 294.03064 147.04375 294.85876ZM153.21562 298.5619L153.21562 289.96814L154.27812 289.96814L154.27812 298.5619L153.21562 298.5619ZM156.21562 298.5619L156.21562 289.96814L157.27812 289.96814L157.27812 298.5619L156.21562 298.5619Z" fill-rule="nonzero"/><path fill="#000000" d="M132.79375 344.2125L133.825 344.07187Q133.85625 345.05624 134.18437 345.41562Q134.5125 345.775 135.10625 345.775Q135.52812 345.775 135.84062 345.5875Q136.15312 345.38437 136.2625 345.05624Q136.3875 344.7125 136.3875 343.97812L136.3875 338.05624L137.5125 338.05624L137.5125 343.91562Q137.5125 344.99374 137.24687 345.5875Q136.99687 346.18124 136.43437 346.49374Q135.87187 346.79062 135.10625 346.79062Q133.98125 346.79062 133.37187 346.15Q132.77812 345.49374 132.79375 344.2125ZM143.30937 345.88437Q142.71562 346.38437 142.16875 346.5875Q141.6375 346.79062 141.0125 346.79062Q139.98125 346.79062 139.43437 346.29062Q138.8875 345.79062 138.8875 345.00937Q138.8875 344.55624 139.09062 344.18124Q139.29375 343.79062 139.6375 343.57187Q139.98125 343.3375 140.40312 343.22812Q140.7 343.13437 141.34062 343.05624Q142.60625 342.91562 143.21562 342.69687Q143.21562 342.47812 143.21562 342.43124Q143.21562 341.775 142.91875 341.50937Q142.5125 341.16562 141.71562 341.16562Q140.98125 341.16562 140.62187 341.43124Q140.2625 341.68124 140.09062 342.3375L139.05937 342.19687Q139.2 341.54062 139.52812 341.13437Q139.85625 340.72812 140.46562 340.50937Q141.075 340.29062 141.87187 340.29062Q142.66875 340.29062 143.16875 340.47812Q143.66875 340.66562 143.90312 340.94687Q144.1375 341.22812 144.23125 341.66562Q144.27812 341.93124 144.27812 342.63437L144.27812 344.04062Q144.27812 345.50937 144.34062 345.9Q144.41875 346.29062 144.62187 346.65L143.5125 346.65Q143.35625 346.32187 143.30937 345.88437ZM143.21562 343.525Q142.6375 343.75937 141.49687 343.93124Q140.84062 344.025 140.575 344.15Q140.30937 344.25937 140.15312 344.47812Q140.0125 344.69687 140.0125 344.97812Q140.0125 345.4 140.325 345.68124Q140.65312 345.9625 141.2625 345.9625Q141.87187 345.9625 142.34062 345.69687Q142.825 345.43124 143.04375 344.9625Q143.21562 344.60312 143.21562 343.91562L143.21562 343.525ZM147.96562 346.65L145.60625 340.43124L146.71562 340.43124L148.05937 344.15Q148.2625 344.75937 148.45 345.4Q148.59062 344.91562 148.84062 344.22812L150.23125 340.43124L151.30937 340.43124L148.95 346.65L147.96562 346.65ZM156.30937 345.88437Q155.71562 346.38437 155.16875 346.5875Q154.6375 346.79062 154.0125 346.79062Q152.98125 346.79062 152.43437 346.29062Q151.8875 345.79062 151.8875 345.00937Q151.8875 344.55624 152.09062 344.18124Q152.29375 343.79062 152.6375 343.57187Q152.98125 343.3375 153.40312 343.22812Q153.7 343.13437 154.34062 343.05624Q155.60625 342.91562 156.21562 342.69687Q156.21562 342.47812 156.21562 342.43124Q156.21562 341.775 155.91875 341.50937Q155.5125 341.16562 154.71562 341.16562Q153.98125 341.16562 153.62187 341.43124Q153.2625 341.68124 153.09062 342.3375L152.05937 342.19687Q152.2 341.54062 152.52812 341.13437Q152.85625 340.72812 153.46562 340.50937Q154.075 340.29062 154.87187 340.29062Q155.66875 340.29062 156.16875 340.47812Q156.66875 340.66562 156.90312 340.94687Q157.1375 341.22812 157.23125 341.66562Q157.27812 341.93124 157.27812 342.63437L157.27812 344.04062Q157.27812 345.50937 157.34062 345.9Q157.41875 346.29062 157.62187 346.65L156.5125 346.65Q156.35625 346.32187 156.30937 345.88437ZM156.21562 343.525Q155.6375 343.75937 154.49687 343.93124Q153.84062 344.025 153.575 344.15Q153.30937 344.25937 153.15312 344.47812Q153.0125 344.69687 153.0125 344.97812Q153.0125 345.4 153.325 345.68124Q153.65312 345.9625 154.2625 345.9625Q154.87187 345.9625 155.34062 345.69687Q155.825 345.43124 156.04375 344.9625Q156.21562 344.60312 156.21562 343.91562L156.21562 343.525Z" fill-rule="nonzero"/><path fill="#000000" d="M149.5125 391.72247L150.6375 392.01935Q150.27812 393.40997 149.35625 394.14435Q148.43437 394.87872 147.09062 394.87872Q145.7 394.87872 144.825 394.31622Q143.95 393.75372 143.49687 392.69122Q143.04375 391.6131 143.04375 390.37872Q143.04375 389.03497 143.55937 388.03497Q144.075 387.03497 145.0125 386.51935Q145.96562 386.00372 147.10625 386.00372Q148.3875 386.00372 149.2625 386.65997Q150.15312 387.31622 150.49687 388.50372L149.37187 388.76935Q149.075 387.83185 148.49687 387.40997Q147.93437 386.97247 147.075 386.97247Q146.09062 386.97247 145.41875 387.45685Q144.7625 387.9256 144.48125 388.72247Q144.21562 389.51935 144.21562 390.37872Q144.21562 391.47247 144.52812 392.28497Q144.85625 393.09747 145.52812 393.50372Q146.2 393.90997 146.99687 393.90997Q147.95 393.90997 148.60625 393.3631Q149.27812 392.81622 149.5125 391.72247ZM152.05937 394.87872L152.55937 392.39435L151.575 392.39435L151.575 391.51935L152.74687 391.51935L153.16875 389.39435L151.575 389.39435L151.575 388.51935L153.35625 388.51935L153.85625 386.00372L154.73125 386.00372L154.23125 388.51935L156.075 388.51935L156.59062 386.00372L157.46562 386.00372L156.96562 388.51935L157.96562 388.51935L157.96562 389.39435L156.77812 389.39435L156.34062 391.51935L157.96562 391.51935L157.96562 392.39435L156.16875 392.39435L155.65312 394.87872L154.77812 394.87872L155.27812 392.39435L153.45 392.39435L152.93437 394.87872L152.05937 394.87872ZM153.62187 391.51935L155.46562 391.51935L155.90312 389.39435L154.05937 389.39435L153.62187 391.51935Z" fill-rule="nonzero"/><path fill="#000000" d="M103.55937 442.8262L103.55937 435.24808L100.73125 435.24808L100.73125 434.23245L107.54375 434.23245L107.54375 435.24808L104.7 435.24808L104.7 442.8262L103.55937 442.8262ZM108.2 445.21683L108.075 444.23245Q108.41875 444.3262 108.68437 444.3262Q109.02812 444.3262 109.23125 444.2012Q109.45 444.09183 109.59062 443.8887Q109.68437 443.71683 109.91875 443.09183Q109.93437 443.0137 110.0125 442.84183L107.6375 436.60745L108.77812 436.60745L110.075 440.2012Q110.325 440.8887 110.52812 441.65433Q110.71562 440.91995 110.96562 440.23245L112.29375 436.60745L113.34062 436.60745L110.98125 442.93558Q110.59062 443.9512 110.3875 444.34183Q110.10625 444.87308 109.73125 445.10745Q109.37187 445.35745 108.87187 445.35745Q108.575 445.35745 108.2 445.21683ZM114.24687 445.21683L114.24687 436.60745L115.2 436.60745L115.2 437.40433Q115.54375 436.93558 115.96562 436.7012Q116.40312 436.46683 117.0125 436.46683Q117.80937 436.46683 118.41875 436.87308Q119.02812 437.27933 119.325 438.02933Q119.6375 438.77933 119.6375 439.66995Q119.6375 440.62308 119.29375 441.3887Q118.96562 442.15433 118.30937 442.56058Q117.65312 442.96683 116.93437 442.96683Q116.40312 442.96683 115.98125 442.74808Q115.55937 442.5137 115.29375 442.18558L115.29375 445.21683L114.24687 445.21683ZM115.2 439.74808Q115.2 440.9512 115.68437 441.52933Q116.16875 442.09183 116.85625 442.09183Q117.55937 442.09183 118.05937 441.49808Q118.55937 440.90433 118.55937 439.65433Q118.55937 438.46683 118.075 437.8887Q117.59062 437.29495 116.90312 437.29495Q116.23125 437.29495 115.71562 437.91995Q115.2 438.54495 115.2 439.74808ZM125.49687 440.8262L126.59062 440.9512Q126.34062 441.90433 125.6375 442.43558Q124.93437 442.96683 123.85625 442.96683Q122.49687 442.96683 121.68437 442.12308Q120.8875 441.27933 120.8875 439.7637Q120.8875 438.2012 121.7 437.34183Q122.5125 436.46683 123.79375 436.46683Q125.04375 436.46683 125.825 437.31058Q126.62187 438.15433 126.62187 439.7012Q126.62187 439.79495 126.62187 439.98245L121.98125 439.98245Q122.04375 441.0137 122.55937 441.56058Q123.075 442.09183 123.85625 442.09183Q124.43437 442.09183 124.84062 441.79495Q125.2625 441.48245 125.49687 440.8262ZM122.04375 439.12308L125.5125 439.12308Q125.45 438.3262 125.12187 437.93558Q124.60625 437.3262 123.80937 437.3262Q123.075 437.3262 122.575 437.81058Q122.09062 438.29495 122.04375 439.12308ZM127.99687 440.06058L129.05937 439.96683Q129.1375 440.62308 129.41875 441.02933Q129.7 441.43558 130.27812 441.7012Q130.87187 441.9512 131.60625 441.9512Q132.24687 441.9512 132.74687 441.7637Q133.24687 441.56058 133.48125 441.23245Q133.73125 440.8887 133.73125 440.49808Q133.73125 440.09183 133.49687 439.79495Q133.2625 439.48245 132.73125 439.27933Q132.37187 439.1387 131.18437 438.85745Q130.0125 438.5762 129.54375 438.3262Q128.91875 437.99808 128.62187 437.52933Q128.325 437.04495 128.325 436.4512Q128.325 435.81058 128.68437 435.24808Q129.05937 434.66995 129.7625 434.3887Q130.48125 434.09183 131.34062 434.09183Q132.29375 434.09183 133.02812 434.40433Q133.7625 434.7012 134.15312 435.31058Q134.54375 435.90433 134.575 436.65433L133.48125 436.73245Q133.3875 435.91995 132.87187 435.5137Q132.37187 435.09183 131.3875 435.09183Q130.35625 435.09183 129.8875 435.46683Q129.41875 435.84183 129.41875 436.37308Q129.41875 436.84183 129.74687 437.1387Q130.075 437.43558 131.45 437.74808Q132.84062 438.06058 133.35625 438.29495Q134.10625 438.65433 134.46562 439.18558Q134.825 439.7012 134.825 440.40433Q134.825 441.09183 134.43437 441.7012Q134.04375 442.29495 133.30937 442.6387Q132.575 442.96683 131.65312 442.96683Q130.48125 442.96683 129.68437 442.6387Q128.90312 442.29495 128.45 441.60745Q128.0125 440.91995 127.99687 440.06058ZM140.30937 440.54495L141.34062 440.68558Q141.16875 441.74808 140.46562 442.35745Q139.7625 442.96683 138.74687 442.96683Q137.46562 442.96683 136.68437 442.1387Q135.91875 441.29495 135.91875 439.73245Q135.91875 438.73245 136.24687 437.98245Q136.59062 437.21683 137.2625 436.84183Q137.95 436.46683 138.7625 436.46683Q139.7625 436.46683 140.40312 436.98245Q141.05937 437.48245 141.24687 438.43558L140.21562 438.59183Q140.075 437.96683 139.7 437.65433Q139.325 437.3262 138.79375 437.3262Q137.99687 437.3262 137.49687 437.90433Q136.99687 438.46683 136.99687 439.7012Q136.99687 440.96683 137.48125 441.52933Q137.96562 442.09183 138.73125 442.09183Q139.35625 442.09183 139.7625 441.71683Q140.18437 441.34183 140.30937 440.54495ZM142.23125 442.8262L142.23125 436.60745L143.18437 436.60745L143.18437 437.54495Q143.54375 436.8887 143.84062 436.68558Q144.15312 436.46683 144.52812 436.46683Q145.05937 436.46683 145.60625 436.79495L145.24687 437.77933Q144.85625 437.54495 144.48125 437.54495Q144.12187 437.54495 143.84062 437.7637Q143.575 437.96683 143.46562 438.34183Q143.27812 438.90433 143.27812 439.56058L143.27812 442.8262L142.23125 442.8262ZM146.24687 435.4512L146.24687 434.23245L147.30937 434.23245L147.30937 435.4512L146.24687 435.4512ZM146.24687 442.8262L146.24687 436.60745L147.30937 436.60745L147.30937 442.8262L146.24687 442.8262ZM149.24687 445.21683L149.24687 436.60745L150.2 436.60745L150.2 437.40433Q150.54375 436.93558 150.96562 436.7012Q151.40312 436.46683 152.0125 436.46683Q152.80937 436.46683 153.41875 436.87308Q154.02812 437.27933 154.325 438.02933Q154.6375 438.77933 154.6375 439.66995Q154.6375 440.62308 154.29375 441.3887Q153.96562 442.15433 153.30937 442.56058Q152.65312 442.96683 151.93437 442.96683Q151.40312 442.96683 150.98125 442.74808Q150.55937 442.5137 150.29375 442.18558L150.29375 445.21683L149.24687 445.21683ZM150.2 439.74808Q150.2 440.9512 150.68437 441.52933Q151.16875 442.09183 151.85625 442.09183Q152.55937 442.09183 153.05937 441.49808Q153.55937 440.90433 153.55937 439.65433Q153.55937 438.46683 153.075 437.8887Q152.59062 437.29495 151.90312 437.29495Q151.23125 437.29495 150.71562 437.91995Q150.2 438.54495 150.2 439.74808ZM158.54375 441.8887L158.7 442.81058Q158.24687 442.90433 157.90312 442.90433Q157.325 442.90433 157.0125 442.73245Q156.7 442.54495 156.55937 442.24808Q156.43437 441.9512 156.43437 440.99808L156.43437 437.41995L155.66875 437.41995L155.66875 436.60745L156.43437 436.60745L156.43437 435.06058L157.48125 434.43558L157.48125 436.60745L158.54375 436.60745L158.54375 437.41995L157.48125 437.41995L157.48125 441.06058Q157.48125 441.5137 157.52812 441.6387Q157.59062 441.7637 157.71562 441.84183Q157.84062 441.91995 158.075 441.91995Q158.2625 441.91995 158.54375 441.8887Z" fill-rule="nonzero"/><path fill="#000000" d="M142.5125 487.89868L143.6375 488.19556Q143.27812 489.58618 142.35625 490.32056Q141.43437 491.05493 140.09062 491.05493Q138.7 491.05493 137.825 490.49243Q136.95 489.92993 136.49687 488.86743Q136.04375 487.7893 136.04375 486.55493Q136.04375 485.21118 136.55937 484.21118Q137.075 483.21118 138.0125 482.69556Q138.96562 482.17993 140.10625 482.17993Q141.3875 482.17993 142.2625 482.83618Q143.15312 483.49243 143.49687 484.67993L142.37187 484.94556Q142.075 484.00806 141.49687 483.58618Q140.93437 483.14868 140.075 483.14868Q139.09062 483.14868 138.41875 483.63306Q137.7625 484.1018 137.48125 484.89868Q137.21562 485.69556 137.21562 486.55493Q137.21562 487.64868 137.52812 488.46118Q137.85625 489.27368 138.52812 489.67993Q139.2 490.08618 139.99687 490.08618Q140.95 490.08618 141.60625 489.5393Q142.27812 488.99243 142.5125 487.89868ZM147.45 489.52368L147.45 487.1643L145.12187 487.1643L145.12187 486.17993L147.45 486.17993L147.45 483.8518L148.45 483.8518L148.45 486.17993L150.79375 486.17993L150.79375 487.1643L148.45 487.1643L148.45 489.52368L147.45 489.52368ZM154.45 489.52368L154.45 487.1643L152.12187 487.1643L152.12187 486.17993L154.45 486.17993L154.45 483.8518L155.45 483.8518L155.45 486.17993L157.79375 486.17993L157.79375 487.1643L155.45 487.1643L155.45 489.52368L154.45 489.52368Z" fill-rule="nonzero"/><path fill="#000000" d="M134.37187 539.00244L134.37187 530.4087L137.62187 530.4087Q138.46562 530.4087 138.91875 530.4868Q139.55937 530.5962 139.98125 530.89307Q140.41875 531.18994 140.66875 531.7212Q140.93437 532.25244 140.93437 532.89307Q140.93437 533.9868 140.23125 534.75244Q139.54375 535.50244 137.71562 535.50244L135.5125 535.50244L135.5125 539.00244L134.37187 539.00244ZM135.5125 534.50244L137.73125 534.50244Q138.84062 534.50244 139.29375 534.0962Q139.7625 533.6743 139.7625 532.9243Q139.7625 532.39307 139.48125 532.01807Q139.21562 531.62744 138.77812 531.50244Q138.48125 531.4243 137.71562 531.4243L135.5125 531.4243L135.5125 534.50244ZM142.41875 539.00244L142.41875 530.4087L143.54375 530.4087L143.54375 533.93994L148.0125 533.93994L148.0125 530.4087L149.15312 530.4087L149.15312 539.00244L148.0125 539.00244L148.0125 534.95557L143.54375 534.95557L143.54375 539.00244L142.41875 539.00244ZM151.37187 539.00244L151.37187 530.4087L154.62187 530.4087Q155.46562 530.4087 155.91875 530.4868Q156.55937 530.5962 156.98125 530.89307Q157.41875 531.18994 157.66875 531.7212Q157.93437 532.25244 157.93437 532.89307Q157.93437 533.9868 157.23125 534.75244Q156.54375 535.50244 154.71562 535.50244L152.5125 535.50244L152.5125 539.00244L151.37187 539.00244ZM152.5125 534.50244L154.73125 534.50244Q155.84062 534.50244 156.29375 534.0962Q156.7625 533.6743 156.7625 532.9243Q156.7625 532.39307 156.48125 532.01807Q156.21562 531.62744 155.77812 531.50244Q155.48125 531.4243 154.71562 531.4243L152.5125 531.4243L152.5125 534.50244Z" fill-rule="nonzero"/><path fill="#000000" d="M156.5125 584.0749L157.6375 584.37177Q157.27812 585.7624 156.35625 586.49677Q155.43437 587.23114 154.09062 587.23114Q152.7 587.23114 151.825 586.66864Q150.95 586.10614 150.49687 585.04364Q150.04375 583.9655 150.04375 582.73114Q150.04375 581.3874 150.55937 580.3874Q151.075 579.3874 152.0125 578.87177Q152.96562 578.35614 154.10625 578.35614Q155.3875 578.35614 156.2625 579.0124Q157.15312 579.66864 157.49687 580.85614L156.37187 581.12177Q156.075 580.18427 155.49687 579.7624Q154.93437 579.3249 154.075 579.3249Q153.09062 579.3249 152.41875 579.80927Q151.7625 580.278 151.48125 581.0749Q151.21562 581.87177 151.21562 582.73114Q151.21562 583.8249 151.52812 584.6374Q151.85625 585.4499 152.52812 585.85614Q153.2 586.2624 153.99687 586.2624Q154.95 586.2624 155.60625 585.7155Q156.27812 585.16864 156.5125 584.0749Z" fill-rule="nonzero"/><path fill="#000000" d="M147.45 628.3156Q147.45 626.78436 147.7625 625.8625Q148.075 624.925 148.68437 624.425Q149.30937 623.925 150.24687 623.925Q150.93437 623.925 151.45 624.20624Q151.98125 624.4875 152.325 625.01874Q152.66875 625.53436 152.85625 626.28436Q153.04375 627.03436 153.04375 628.3156Q153.04375 629.83124 152.73125 630.7531Q152.43437 631.675 151.80937 632.1906Q151.2 632.6906 150.24687 632.6906Q149.0125 632.6906 148.29375 631.8Q147.45 630.7375 147.45 628.3156ZM148.52812 628.3156Q148.52812 630.425 149.02812 631.1281Q149.52812 631.83124 150.24687 631.83124Q150.98125 631.83124 151.46562 631.1281Q151.96562 630.425 151.96562 628.3156Q151.96562 626.1906 151.46562 625.5031Q150.98125 624.8 150.23125 624.8Q149.5125 624.8 149.075 625.40936Q148.52812 626.1906 148.52812 628.3156ZM155.04375 632.55L155.04375 631.34686L156.24687 631.34686L156.24687 632.55L155.04375 632.55ZM157.45 628.3156Q157.45 626.78436 157.7625 625.8625Q158.075 624.925 158.68437 624.425Q159.30937 623.925 160.24687 623.925Q160.93437 623.925 161.45 624.20624Q161.98125 624.4875 162.325 625.01874Q162.66875 625.53436 162.85625 626.28436Q163.04375 627.03436 163.04375 628.3156Q163.04375 629.83124 162.73125 630.7531Q162.43437 631.675 161.80937 632.1906Q161.2 632.6906 160.24687 632.6906Q159.0125 632.6906 158.29375 631.8Q157.45 630.7375 157.45 628.3156ZM158.52812 628.3156Q158.52812 630.425 159.02812 631.1281Q159.52812 631.83124 160.24687 631.83124Q160.98125 631.83124 161.46562 631.1281Q161.96562 630.425 161.96562 628.3156Q161.96562 626.1906 161.46562 625.5031Q160.98125 624.8 160.23125 624.8Q159.5125 624.8 159.075 625.40936Q158.52812 626.1906 158.52812 628.3156ZM164.45 628.3156Q164.45 626.78436 164.7625 625.8625Q165.075 624.925 165.68437 624.425Q166.30937 623.925 167.24687 623.925Q167.93437 623.925 168.45 624.20624Q168.98125 624.4875 169.325 625.01874Q169.66875 625.53436 169.85625 626.28436Q170.04375 627.03436 170.04375 628.3156Q170.04375 629.83124 169.73125 630.7531Q169.43437 631.675 168.80937 632.1906Q168.2 632.6906 167.24687 632.6906Q166.0125 632.6906 165.29375 631.8Q164.45 630.7375 164.45 628.3156ZM165.52812 628.3156Q165.52812 630.425 166.02812 631.1281Q166.52812 631.83124 167.24687 631.83124Q167.98125 631.83124 168.46562 631.1281Q168.96562 630.425 168.96562 628.3156Q168.96562 626.1906 168.46562 625.5031Q167.98125 624.8 167.23125 624.8Q166.5125 624.8 166.075 625.40936Q165.52812 626.1906 165.52812 628.3156ZM171.65312 626.01874Q171.65312 625.09686 172.10625 624.45624Q172.575 623.8156 173.45 623.8156Q174.2625 623.8156 174.79375 624.39374Q175.325 624.97186 175.325 626.08124Q175.325 627.175 174.77812 627.76874Q174.24687 628.34686 173.46562 628.34686Q172.68437 628.34686 172.16875 627.76874Q171.65312 627.1906 171.65312 626.01874ZM173.48125 624.53436Q173.09062 624.53436 172.825 624.8781Q172.575 625.22186 172.575 626.1281Q172.575 626.95624 172.825 627.3Q173.09062 627.6281 173.48125 627.6281Q173.8875 627.6281 174.1375 627.28436Q174.40312 626.9406 174.40312 626.05Q174.40312 625.20624 174.1375 624.8781Q173.87187 624.53436 173.48125 624.53436ZM173.48125 632.8625L178.18437 623.8156L179.04375 623.8156L174.35625 632.8625L173.48125 632.8625ZM177.2 630.53436Q177.2 629.6125 177.65312 628.97186Q178.12187 628.33124 179.0125 628.33124Q179.825 628.33124 180.35625 628.90936Q180.8875 629.47186 180.8875 630.59686Q180.8875 631.6906 180.34062 632.28436Q179.80937 632.8625 179.0125 632.8625Q178.24687 632.8625 177.71562 632.28436Q177.2 631.70624 177.2 630.53436ZM179.04375 629.05Q178.6375 629.05 178.37187 629.39374Q178.12187 629.7375 178.12187 630.64374Q178.12187 631.45624 178.3875 631.8Q178.65312 632.14374 179.04375 632.14374Q179.43437 632.14374 179.7 631.8Q179.96562 631.45624 179.96562 630.55Q179.96562 629.72186 179.7 629.39374Q179.43437 629.05 179.04375 629.05Z" fill-rule="nonzero"/><path fill="#000000" d="M442.15 630.3L443.25937 630.20624Q443.38437 631.01874 443.82187 631.425Q444.275 631.83124 444.91562 631.83124Q445.66562 631.83124 446.19687 631.2531Q446.72812 630.675 446.72812 629.7375Q446.72812 628.83124 446.2125 628.3156Q445.7125 627.78436 444.88437 627.78436Q444.38437 627.78436 443.9625 628.01874Q443.55624 628.2531 443.32187 628.6125L442.3375 628.4875L443.16562 624.08124L447.44687 624.08124L447.44687 625.08124L444.00937 625.08124L443.55624 627.39374Q444.32187 626.84686 445.16562 626.84686Q446.29062 626.84686 447.05624 627.6281Q447.8375 628.40936 447.8375 629.64374Q447.8375 630.8 447.16562 631.65936Q446.3375 632.6906 444.91562 632.6906Q443.74374 632.6906 442.99374 632.03436Q442.25937 631.3781 442.15 630.3ZM449.74374 632.55L449.74374 631.34686L450.94687 631.34686L450.94687 632.55L449.74374 632.55ZM452.15 628.3156Q452.15 626.78436 452.4625 625.8625Q452.775 624.925 453.38437 624.425Q454.00937 623.925 454.94687 623.925Q455.63437 623.925 456.15 624.20624Q456.68124 624.4875 457.025 625.01874Q457.36874 625.53436 457.55624 626.28436Q457.74374 627.03436 457.74374 628.3156Q457.74374 629.83124 457.43124 630.7531Q457.13437 631.675 456.50937 632.1906Q455.9 632.6906 454.94687 632.6906Q453.7125 632.6906 452.99374 631.8Q452.15 630.7375 452.15 628.3156ZM453.22812 628.3156Q453.22812 630.425 453.72812 631.1281Q454.22812 631.83124 454.94687 631.83124Q455.68124 631.83124 456.16562 631.1281Q456.66562 630.425 456.66562 628.3156Q456.66562 626.1906 456.16562 625.5031Q455.68124 624.8 454.93124 624.8Q454.2125 624.8 453.775 625.40936Q453.22812 626.1906 453.22812 628.3156ZM459.15 628.3156Q459.15 626.78436 459.4625 625.8625Q459.775 624.925 460.38437 624.425Q461.00937 623.925 461.94687 623.925Q462.63437 623.925 463.15 624.20624Q463.68124 624.4875 464.025 625.01874Q464.36874 625.53436 464.55624 626.28436Q464.74374 627.03436 464.74374 628.3156Q464.74374 629.83124 464.43124 630.7531Q464.13437 631.675 463.50937 632.1906Q462.9 632.6906 461.94687 632.6906Q460.7125 632.6906 459.99374 631.8Q459.15 630.7375 459.15 628.3156ZM460.22812 628.3156Q460.22812 630.425 460.72812 631.1281Q461.22812 631.83124 461.94687 631.83124Q462.68124 631.83124 463.16562 631.1281Q463.66562 630.425 463.66562 628.3156Q463.66562 626.1906 463.16562 625.5031Q462.68124 624.8 461.93124 624.8Q461.2125 624.8 460.775 625.40936Q460.22812 626.1906 460.22812 628.3156ZM466.35312 626.01874Q466.35312 625.09686 466.80624 624.45624Q467.275 623.8156 468.15 623.8156Q468.9625 623.8156 469.49374 624.39374Q470.025 624.97186 470.025 626.08124Q470.025 627.175 469.47812 627.76874Q468.94687 628.34686 468.16562 628.34686Q467.38437 628.34686 466.86874 627.76874Q466.35312 627.1906 466.35312 626.01874ZM468.18124 624.53436Q467.79062 624.53436 467.525 624.8781Q467.275 625.22186 467.275 626.1281Q467.275 626.95624 467.525 627.3Q467.79062 627.6281 468.18124 627.6281Q468.5875 627.6281 468.8375 627.28436Q469.10312 626.9406 469.10312 626.05Q469.10312 625.20624 468.8375 624.8781Q468.57187 624.53436 468.18124 624.53436ZM468.18124 632.8625L472.88437 623.8156L473.74374 623.8156L469.05624 632.8625L468.18124 632.8625ZM471.9 630.53436Q471.9 629.6125 472.35312 628.97186Q472.82187 628.33124 473.7125 628.33124Q474.525 628.33124 475.05624 628.90936Q475.5875 629.47186 475.5875 630.59686Q475.5875 631.6906 475.04062 632.28436Q474.50937 632.8625 473.7125 632.8625Q472.94687 632.8625 472.41562 632.28436Q471.9 631.70624 471.9 630.53436ZM473.74374 629.05Q473.3375 629.05 473.07187 629.39374Q472.82187 629.7375 472.82187 630.64374Q472.82187 631.45624 473.0875 631.8Q473.35312 632.14374 473.74374 632.14374Q474.13437 632.14374 474.4 631.8Q474.66562 631.45624 474.66562 630.55Q474.66562 629.72186 474.4 629.39374Q474.13437 629.05 473.74374 629.05Z" fill-rule="nonzero"/><path fill="#000000" d="M737.3187 632.55L736.27185 632.55L736.27185 625.83124Q735.8812 626.1906 735.2562 626.5656Q734.64685 626.925 734.1625 627.09686L734.1625 626.08124Q735.0375 625.65936 735.6937 625.08124Q736.3656 624.4875 736.64685 623.925L737.3187 623.925L737.3187 632.55ZM740.35 628.3156Q740.35 626.78436 740.6625 625.8625Q740.975 624.925 741.58435 624.425Q742.20935 623.925 743.14685 623.925Q743.83435 623.925 744.35 624.20624Q744.8812 624.4875 745.225 625.01874Q745.5687 625.53436 745.7562 626.28436Q745.9437 627.03436 745.9437 628.3156Q745.9437 629.83124 745.6312 630.7531Q745.33435 631.675 744.70935 632.1906Q744.1 632.6906 743.14685 632.6906Q741.9125 632.6906 741.1937 631.8Q740.35 630.7375 740.35 628.3156ZM741.4281 628.3156Q741.4281 630.425 741.9281 631.1281Q742.4281 631.83124 743.14685 631.83124Q743.8812 631.83124 744.3656 631.1281Q744.8656 630.425 744.8656 628.3156Q744.8656 626.1906 744.3656 625.5031Q743.8812 624.8 743.1312 624.8Q742.4125 624.8 741.975 625.40936Q741.4281 626.1906 741.4281 628.3156ZM747.9437 632.55L747.9437 631.34686L749.14685 631.34686L749.14685 632.55L747.9437 632.55ZM750.35 628.3156Q750.35 626.78436 750.6625 625.8625Q750.975 624.925 751.58435 624.425Q752.20935 623.925 753.14685 623.925Q753.83435 623.925 754.35 624.20624Q754.8812 624.4875 755.225 625.01874Q755.5687 625.53436 755.7562 626.28436Q755.9437 627.03436 755.9437 628.3156Q755.9437 629.83124 755.6312 630.7531Q755.33435 631.675 754.70935 632.1906Q754.1 632.6906 753.14685 632.6906Q751.9125 632.6906 751.1937 631.8Q750.35 630.7375 750.35 628.3156ZM751.4281 628.3156Q751.4281 630.425 751.9281 631.1281Q752.4281 631.83124 753.14685 631.83124Q753.8812 631.83124 754.3656 631.1281Q754.8656 630.425 754.8656 628.3156Q754.8656 626.1906 754.3656 625.5031Q753.8812 624.8 753.1312 624.8Q752.4125 624.8 751.975 625.40936Q751.4281 626.1906 751.4281 628.3156ZM757.35 628.3156Q757.35 626.78436 757.6625 625.8625Q757.975 624.925 758.58435 624.425Q759.20935 623.925 760.14685 623.925Q760.83435 623.925 761.35 624.20624Q761.8812 624.4875 762.225 625.01874Q762.5687 625.53436 762.7562 626.28436Q762.9437 627.03436 762.9437 628.3156Q762.9437 629.83124 762.6312 630.7531Q762.33435 631.675 761.70935 632.1906Q761.1 632.6906 760.14685 632.6906Q758.9125 632.6906 758.1937 631.8Q757.35 630.7375 757.35 628.3156ZM758.4281 628.3156Q758.4281 630.425 758.9281 631.1281Q759.4281 631.83124 760.14685 631.83124Q760.8812 631.83124 761.3656 631.1281Q761.8656 630.425 761.8656 628.3156Q761.8656 626.1906 761.3656 625.5031Q760.8812 624.8 760.1312 624.8Q759.4125 624.8 758.975 625.40936Q758.4281 626.1906 758.4281 628.3156ZM764.5531 626.01874Q764.5531 625.09686 765.0062 624.45624Q765.475 623.8156 766.35 623.8156Q767.1625 623.8156 767.6937 624.39374Q768.225 624.97186 768.225 626.08124Q768.225 627.175 767.6781 627.76874Q767.14685 628.34686 766.3656 628.34686Q765.58435 628.34686 765.0687 627.76874Q764.5531 627.1906 764.5531 626.01874ZM766.3812 624.53436Q765.9906 624.53436 765.725 624.8781Q765.475 625.22186 765.475 626.1281Q765.475 626.95624 765.725 627.3Q765.9906 627.6281 766.3812 627.6281Q766.7875 627.6281 767.0375 627.28436Q767.3031 626.9406 767.3031 626.05Q767.3031 625.20624 767.0375 624.8781Q766.77185 624.53436 766.3812 624.53436ZM766.3812 632.8625L771.08435 623.8156L771.9437 623.8156L767.2562 632.8625L766.3812 632.8625ZM770.1 630.53436Q770.1 629.6125 770.5531 628.97186Q771.02185 628.33124 771.9125 628.33124Q772.725 628.33124 773.2562 628.90936Q773.7875 629.47186 773.7875 630.59686Q773.7875 631.6906 773.2406 632.28436Q772.70935 632.8625 771.9125 632.8625Q771.14685 632.8625 770.6156 632.28436Q770.1 631.70624 770.1 630.53436ZM771.9437 629.05Q771.5375 629.05 771.27185 629.39374Q771.02185 629.7375 771.02185 630.64374Q771.02185 631.45624 771.2875 631.8Q771.5531 632.14374 771.9437 632.14374Q772.33435 632.14374 772.6 631.8Q772.8656 631.45624 772.8656 630.55Q772.8656 629.72186 772.6 629.39374Q772.33435 629.05 771.9437 629.05Z" fill-rule="nonzero"/><path fill="#000000" d="M1032.0188 632.55L1030.9719 632.55L1030.9719 625.83124Q1030.5813 626.1906 1029.9563 626.5656Q1029.3469 626.925 1028.8625 627.09686L1028.8625 626.08124Q1029.7375 625.65936 1030.3938 625.08124Q1031.0657 624.4875 1031.3469 623.925L1032.0188 623.925L1032.0188 632.55ZM1035.05 630.3L1036.1594 630.20624Q1036.2844 631.01874 1036.7219 631.425Q1037.175 631.83124 1037.8157 631.83124Q1038.5657 631.83124 1039.0969 631.2531Q1039.6282 630.675 1039.6282 629.7375Q1039.6282 628.83124 1039.1125 628.3156Q1038.6125 627.78436 1037.7844 627.78436Q1037.2844 627.78436 1036.8625 628.01874Q1036.4563 628.2531 1036.2219 628.6125L1035.2375 628.4875L1036.0657 624.08124L1040.3469 624.08124L1040.3469 625.08124L1036.9094 625.08124L1036.4563 627.39374Q1037.2219 626.84686 1038.0657 626.84686Q1039.1907 626.84686 1039.9563 627.6281Q1040.7375 628.40936 1040.7375 629.64374Q1040.7375 630.8 1040.0657 631.65936Q1039.2375 632.6906 1037.8157 632.6906Q1036.6438 632.6906 1035.8938 632.03436Q1035.1594 631.3781 1035.05 630.3ZM1042.6438 632.55L1042.6438 631.34686L1043.8469 631.34686L1043.8469 632.55L1042.6438 632.55ZM1045.05 628.3156Q1045.05 626.78436 1045.3625 625.8625Q1045.675 624.925 1046.2844 624.425Q1046.9094 623.925 1047.8469 623.925Q1048.5344 623.925 1049.05 624.20624Q1049.5813 624.4875 1049.925 625.01874Q1050.2688 625.53436 1050.4563 626.28436Q1050.6438 627.03436 1050.6438 628.3156Q1050.6438 629.83124 1050.3313 630.7531Q1050.0344 631.675 1049.4094 632.1906Q1048.8 632.6906 1047.8469 632.6906Q1046.6125 632.6906 1045.8938 631.8Q1045.05 630.7375 1045.05 628.3156ZM1046.1282 628.3156Q1046.1282 630.425 1046.6282 631.1281Q1047.1282 631.83124 1047.8469 631.83124Q1048.5813 631.83124 1049.0657 631.1281Q1049.5657 630.425 1049.5657 628.3156Q1049.5657 626.1906 1049.0657 625.5031Q1048.5813 624.8 1047.8313 624.8Q1047.1125 624.8 1046.675 625.40936Q1046.1282 626.1906 1046.1282 628.3156ZM1052.05 628.3156Q1052.05 626.78436 1052.3625 625.8625Q1052.675 624.925 1053.2844 624.425Q1053.9094 623.925 1054.8469 623.925Q1055.5344 623.925 1056.05 624.20624Q1056.5813 624.4875 1056.925 625.01874Q1057.2688 625.53436 1057.4563 626.28436Q1057.6438 627.03436 1057.6438 628.3156Q1057.6438 629.83124 1057.3313 630.7531Q1057.0344 631.675 1056.4094 632.1906Q1055.8 632.6906 1054.8469 632.6906Q1053.6125 632.6906 1052.8938 631.8Q1052.05 630.7375 1052.05 628.3156ZM1053.1282 628.3156Q1053.1282 630.425 1053.6282 631.1281Q1054.1282 631.83124 1054.8469 631.83124Q1055.5813 631.83124 1056.0657 631.1281Q1056.5657 630.425 1056.5657 628.3156Q1056.5657 626.1906 1056.0657 625.5031Q1055.5813 624.8 1054.8313 624.8Q1054.1125 624.8 1053.675 625.40936Q1053.1282 626.1906 1053.1282 628.3156ZM1059.2532 626.01874Q1059.2532 625.09686 1059.7063 624.45624Q1060.175 623.8156 1061.05 623.8156Q1061.8625 623.8156 1062.3938 624.39374Q1062.925 624.97186 1062.925 626.08124Q1062.925 627.175 1062.3782 627.76874Q1061.8469 628.34686 1061.0657 628.34686Q1060.2844 628.34686 1059.7688 627.76874Q1059.2532 627.1906 1059.2532 626.01874ZM1061.0813 624.53436Q1060.6907 624.53436 1060.425 624.8781Q1060.175 625.22186 1060.175 626.1281Q1060.175 626.95624 1060.425 627.3Q1060.6907 627.6281 1061.0813 627.6281Q1061.4875 627.6281 1061.7375 627.28436Q1062.0032 626.9406 1062.0032 626.05Q1062.0032 625.20624 1061.7375 624.8781Q1061.4719 624.53436 1061.0813 624.53436ZM1061.0813 632.8625L1065.7844 623.8156L1066.6438 623.8156L1061.9563 632.8625L1061.0813 632.8625ZM1064.8 630.53436Q1064.8 629.6125 1065.2532 628.97186Q1065.7219 628.33124 1066.6125 628.33124Q1067.425 628.33124 1067.9563 628.90936Q1068.4875 629.47186 1068.4875 630.59686Q1068.4875 631.6906 1067.9407 632.28436Q1067.4094 632.8625 1066.6125 632.8625Q1065.8469 632.8625 1065.3157 632.28436Q1064.8 631.70624 1064.8 630.53436ZM1066.6438 629.05Q1066.2375 629.05 1065.9719 629.39374Q1065.7219 629.7375 1065.7219 630.64374Q1065.7219 631.45624 1065.9875 631.8Q1066.2532 632.14374 1066.6438 632.14374Q1067.0344 632.14374 1067.3 631.8Q1067.5657 631.45624 1067.5657 630.55Q1067.5657 629.72186 1067.3 629.39374Q1067.0344 629.05 1066.6438 629.05Z" fill-rule="nonzero"/><path fill="#4285f4" d="M420.0 35.45C420.0 34.897717 420.44772 34.45 421.0 34.45L431.0 34.45C431.55228 34.45 432.0 34.897717 432.0 35.45L432.0 45.45C432.0 46.002285 431.55228 46.45 431.0 46.45L421.0 46.45C420.44772 46.45 420.0 46.002285 420.0 45.45Z" fill-rule="nonzero"/><path fill="#1a1a1a" d="M446.5625 35.85625L447.70312 35.85625L447.70312 40.825Q447.70312 42.121876 447.40625 42.8875Q447.10938 43.6375 446.34375 44.121876Q445.57812 44.590626 444.34375 44.590626Q443.14062 44.590626 442.35938 44.184376Q441.59375 43.7625 441.26562 42.98125Q440.9375 42.184376 440.9375 40.825L440.9375 35.85625L442.07812 35.85625L442.07812 40.809376Q442.07812 41.934376 442.28125 42.465626Q442.5 42.996876 443.0 43.29375Q443.51562 43.575 444.25 43.575Q445.5 43.575 446.03125 43.0125Q446.5625 42.434376 446.5625 40.809376L446.5625 35.85625ZM449.79688 44.45L449.79688 38.23125L450.73438 38.23125L450.73438 39.10625Q451.42188 38.090626 452.71875 38.090626Q453.28125 38.090626 453.75 38.29375Q454.23438 38.496876 454.46875 38.825Q454.70312 39.153126 454.79688 39.590626Q454.84375 39.8875 454.84375 40.621876L454.84375 44.45L453.79688 44.45L453.79688 40.66875Q453.79688 40.0125 453.67188 39.7Q453.54688 39.3875 453.23438 39.2Q452.92188 38.996876 452.5 38.996876Q451.82812 38.996876 451.32812 39.434376Q450.84375 39.85625 450.84375 41.04375L450.84375 44.45L449.79688 44.45ZM456.79688 37.075L456.79688 35.85625L457.85938 35.85625L457.85938 37.075L456.79688 37.075ZM456.79688 44.45L456.79688 38.23125L457.85938 38.23125L457.85938 44.45L456.79688 44.45ZM462.09375 43.5125L462.25 44.434376Q461.79688 44.528126 461.45312 44.528126Q460.875 44.528126 460.5625 44.35625Q460.25 44.16875 460.10938 43.871876Q459.98438 43.575 459.98438 42.621876L459.98438 39.04375L459.21875 39.04375L459.21875 38.23125L459.98438 38.23125L459.98438 36.684376L461.03125 36.059376L461.03125 38.23125L462.09375 38.23125L462.09375 39.04375L461.03125 39.04375L461.03125 42.684376Q461.03125 43.1375 461.07812 43.2625Q461.14062 43.3875 461.26562 43.465626Q461.39062 43.54375 461.625 43.54375Q461.8125 43.54375 462.09375 43.5125ZM467.04688 42.45L468.14062 42.575Q467.89062 43.528126 467.1875 44.059376Q466.48438 44.590626 465.40625 44.590626Q464.04688 44.590626 463.23438 43.746876Q462.4375 42.903126 462.4375 41.3875Q462.4375 39.825 463.25 38.965626Q464.0625 38.090626 465.34375 38.090626Q466.59375 38.090626 467.375 38.934376Q468.17188 39.778126 468.17188 41.325Q468.17188 41.41875 468.17188 41.60625L463.53125 41.60625Q463.59375 42.6375 464.10938 43.184376Q464.625 43.715626 465.40625 43.715626Q465.98438 43.715626 466.39062 43.41875Q466.8125 43.10625 467.04688 42.45ZM463.59375 40.746876L467.0625 40.746876Q467.0 39.95 466.67188 39.559376Q466.15625 38.95 465.35938 38.95Q464.625 38.95 464.125 39.434376Q463.64062 39.91875 463.59375 40.746876ZM473.82812 44.45L473.82812 43.66875Q473.23438 44.590626 472.09375 44.590626Q471.34375 44.590626 470.71875 44.184376Q470.09375 43.7625 469.75 43.028126Q469.40625 42.29375 469.40625 41.340626Q469.40625 40.41875 469.71875 39.653126Q470.03125 38.8875 470.65625 38.496876Q471.28125 38.090626 472.04688 38.090626Q472.60938 38.090626 473.04688 38.325Q473.48438 38.559376 473.76562 38.934376L473.76562 35.85625L474.8125 35.85625L474.8125 44.45L473.82812 44.45ZM470.5 41.340626Q470.5 42.54375 471.0 43.1375Q471.5 43.715626 472.1875 43.715626Q472.875 43.715626 473.35938 43.153126Q473.84375 42.590626 473.84375 41.434376Q473.84375 40.153126 473.34375 39.559376Q472.85938 38.965626 472.14062 38.965626Q471.4375 38.965626 470.96875 39.54375Q470.5 40.10625 470.5 41.340626ZM479.54688 41.684376L480.60938 41.590626Q480.6875 42.246876 480.96875 42.653126Q481.25 43.059376 481.82812 43.325Q482.42188 43.575 483.15625 43.575Q483.79688 43.575 484.29688 43.3875Q484.79688 43.184376 485.03125 42.85625Q485.28125 42.5125 485.28125 42.121876Q485.28125 41.715626 485.04688 41.41875Q484.8125 41.10625 484.28125 40.903126Q483.92188 40.7625 482.73438 40.48125Q481.5625 40.2 481.09375 39.95Q480.46875 39.621876 480.17188 39.153126Q479.875 38.66875 479.875 38.075Q479.875 37.434376 480.23438 36.871876Q480.60938 36.29375 481.3125 36.0125Q482.03125 35.715626 482.89062 35.715626Q483.84375 35.715626 484.57812 36.028126Q485.3125 36.325 485.70312 36.934376Q486.09375 37.528126 486.125 38.278126L485.03125 38.35625Q484.9375 37.54375 484.42188 37.1375Q483.92188 36.715626 482.9375 36.715626Q481.90625 36.715626 481.4375 37.090626Q480.96875 37.465626 480.96875 37.996876Q480.96875 38.465626 481.29688 38.7625Q481.625 39.059376 483.0 39.371876Q484.39062 39.684376 484.90625 39.91875Q485.65625 40.278126 486.01562 40.809376Q486.375 41.325 486.375 42.028126Q486.375 42.715626 485.98438 43.325Q485.59375 43.91875 484.85938 44.2625Q484.125 44.590626 483.20312 44.590626Q482.03125 44.590626 481.23438 44.2625Q480.45312 43.91875 480.0 43.23125Q479.5625 42.54375 479.54688 41.684376ZM490.09375 43.5125L490.25 44.434376Q489.79688 44.528126 489.45312 44.528126Q488.875 44.528126 488.5625 44.35625Q488.25 44.16875 488.10938 43.871876Q487.98438 43.575 487.98438 42.621876L487.98438 39.04375L487.21875 39.04375L487.21875 38.23125L487.98438 38.23125L487.98438 36.684376L489.03125 36.059376L489.03125 38.23125L490.09375 38.23125L490.09375 39.04375L489.03125 39.04375L489.03125 42.684376Q489.03125 43.1375 489.07812 43.2625Q489.14062 43.3875 489.26562 43.465626Q489.39062 43.54375 489.625 43.54375Q489.8125 43.54375 490.09375 43.5125ZM494.85938 43.684376Q494.26562 44.184376 493.71875 44.3875Q493.1875 44.590626 492.5625 44.590626Q491.53125 44.590626 490.98438 44.090626Q490.4375 43.590626 490.4375 42.809376Q490.4375 42.35625 490.64062 41.98125Q490.84375 41.590626 491.1875 41.371876Q491.53125 41.1375 491.95312 41.028126Q492.25 40.934376 492.89062 40.85625Q494.15625 40.715626 494.76562 40.496876Q494.76562 40.278126 494.76562 40.23125Q494.76562 39.575 494.46875 39.309376Q494.0625 38.965626 493.26562 38.965626Q492.53125 38.965626 492.17188 39.23125Q491.8125 39.48125 491.64062 40.1375L490.60938 39.996876Q490.75 39.340626 491.07812 38.934376Q491.40625 38.528126 492.01562 38.309376Q492.625 38.090626 493.42188 38.090626Q494.21875 38.090626 494.71875 38.278126Q495.21875 38.465626 495.45312 38.746876Q495.6875 39.028126 495.78125 39.465626Q495.82812 39.73125 495.82812 40.434376L495.82812 41.840626Q495.82812 43.309376 495.89062 43.7Q495.96875 44.090626 496.17188 44.45L495.0625 44.45Q494.90625 44.121876 494.85938 43.684376ZM494.76562 41.325Q494.1875 41.559376 493.04688 41.73125Q492.39062 41.825 492.125 41.95Q491.85938 42.059376 491.70312 42.278126Q491.5625 42.496876 491.5625 42.778126Q491.5625 43.2 491.875 43.48125Q492.20312 43.7625 492.8125 43.7625Q493.42188 43.7625 493.89062 43.496876Q494.375 43.23125 494.59375 42.7625Q494.76562 42.403126 494.76562 41.715626L494.76562 41.325ZM500.09375 43.5125L500.25 44.434376Q499.79688 44.528126 499.45312 44.528126Q498.875 44.528126 498.5625 44.35625Q498.25 44.16875 498.10938 43.871876Q497.98438 43.575 497.98438 42.621876L497.98438 39.04375L497.21875 39.04375L497.21875 38.23125L497.98438 38.23125L497.98438 36.684376L499.03125 36.059376L499.03125 38.23125L500.09375 38.23125L500.09375 39.04375L499.03125 39.04375L499.03125 42.684376Q499.03125 43.1375 499.07812 43.2625Q499.14062 43.3875 499.26562 43.465626Q499.39062 43.54375 499.625 43.54375Q499.8125 43.54375 500.09375 43.5125ZM505.04688 42.45L506.14062 42.575Q505.89062 43.528126 505.1875 44.059376Q504.48438 44.590626 503.40625 44.590626Q502.04688 44.590626 501.23438 43.746876Q500.4375 42.903126 500.4375 41.3875Q500.4375 39.825 501.25 38.965626Q502.0625 38.090626 503.34375 38.090626Q504.59375 38.090626 505.375 38.934376Q506.17188 39.778126 506.17188 41.325Q506.17188 41.41875 506.17188 41.60625L501.53125 41.60625Q501.59375 42.6375 502.10938 43.184376Q502.625 43.715626 503.40625 43.715626Q503.98438 43.715626 504.39062 43.41875Q504.8125 43.10625 505.04688 42.45ZM501.59375 40.746876L505.0625 40.746876Q505.0 39.95 504.67188 39.559376Q504.15625 38.95 503.35938 38.95Q502.625 38.95 502.125 39.434376Q501.64062 39.91875 501.59375 40.746876ZM507.375 42.590626L508.40625 42.434376Q508.5 43.059376 508.89062 43.3875Q509.29688 43.715626 510.03125 43.715626Q510.75 43.715626 511.09375 43.434376Q511.45312 43.1375 511.45312 42.73125Q511.45312 42.371876 511.14062 42.16875Q510.92188 42.028126 510.0625 41.809376Q508.90625 41.5125 508.45312 41.309376Q508.01562 41.090626 507.78125 40.715626Q507.54688 40.340626 507.54688 39.871876Q507.54688 39.465626 507.73438 39.10625Q507.92188 38.746876 508.25 38.5125Q508.5 38.340626 508.92188 38.215626Q509.34375 38.090626 509.84375 38.090626Q510.5625 38.090626 511.10938 38.309376Q511.67188 38.5125 511.9375 38.871876Q512.2031 39.23125 512.2969 39.825L511.26562 39.965626Q511.20312 39.496876 510.85938 39.23125Q510.53125 38.95 509.90625 38.95Q509.1875 38.95 508.875 39.2Q508.5625 39.434376 508.5625 39.7625Q508.5625 39.965626 508.6875 40.121876Q508.82812 40.29375 509.09375 40.403126Q509.25 40.465626 510.03125 40.66875Q511.15625 40.98125 511.59375 41.16875Q512.03125 41.35625 512.28125 41.715626Q512.53125 42.075 512.53125 42.621876Q512.53125 43.153126 512.21875 43.621876Q511.92188 44.075 511.34375 44.340626Q510.76562 44.590626 510.03125 44.590626Q508.8125 44.590626 508.17188 44.090626Q507.54688 43.575 507.375 42.590626Z" fill-rule="nonzero"/><path fill="#ea4335" d="M529.0 35.45C529.0 34.897717 529.4477 34.45 530.0 34.45L540.0 34.45C540.5523 34.45 541.0 34.897717 541.0 35.45L541.0 45.45C541.0 46.002285 540.5523 46.45 540.0 46.45L530.0 46.45C529.4477 46.45 529.0 46.002285 529.0 45.45Z" fill-rule="nonzero"/><path fill="#1a1a1a" d="M550.125 44.45L550.125 35.85625L551.25 35.85625L551.25 44.45L550.125 44.45ZM552.7969 44.45L552.7969 38.23125L553.7344 38.23125L553.7344 39.10625Q554.4219 38.090626 555.71875 38.090626Q556.28125 38.090626 556.75 38.29375Q557.2344 38.496876 557.46875 38.825Q557.7031 39.153126 557.7969 39.590626Q557.84375 39.8875 557.84375 40.621876L557.84375 44.45L556.7969 44.45L556.7969 40.66875Q556.7969 40.0125 556.6719 39.7Q556.5469 39.3875 556.2344 39.2Q555.9219 38.996876 555.5 38.996876Q554.8281 38.996876 554.3281 39.434376Q553.84375 39.85625 553.84375 41.04375L553.84375 44.45L552.7969 44.45ZM563.8281 44.45L563.8281 43.66875Q563.2344 44.590626 562.09375 44.590626Q561.34375 44.590626 560.71875 44.184376Q560.09375 43.7625 559.75 43.028126Q559.40625 42.29375 559.40625 41.340626Q559.40625 40.41875 559.71875 39.653126Q560.03125 38.8875 560.65625 38.496876Q561.28125 38.090626 562.0469 38.090626Q562.6094 38.090626 563.0469 38.325Q563.4844 38.559376 563.7656 38.934376L563.7656 35.85625L564.8125 35.85625L564.8125 44.45L563.8281 44.45ZM560.5 41.340626Q560.5 42.54375 561.0 43.1375Q561.5 43.715626 562.1875 43.715626Q562.875 43.715626 563.3594 43.153126Q563.84375 42.590626 563.84375 41.434376Q563.84375 40.153126 563.34375 39.559376Q562.8594 38.965626 562.1406 38.965626Q561.4375 38.965626 560.96875 39.54375Q560.5 40.10625 560.5 41.340626ZM566.7969 37.075L566.7969 35.85625L567.8594 35.85625L567.8594 37.075L566.7969 37.075ZM566.7969 44.45L566.7969 38.23125L567.8594 38.23125L567.8594 44.45L566.7969 44.45ZM573.8594 43.684376Q573.2656 44.184376 572.71875 44.3875Q572.1875 44.590626 571.5625 44.590626Q570.53125 44.590626 569.9844 44.090626Q569.4375 43.590626 569.4375 42.809376Q569.4375 42.35625 569.6406 41.98125Q569.84375 41.590626 570.1875 41.371876Q570.53125 41.1375 570.9531 41.028126Q571.25 40.934376 571.8906 40.85625Q573.15625 40.715626 573.7656 40.496876Q573.7656 40.278126 573.7656 40.23125Q573.7656 39.575 573.46875 39.309376Q573.0625 38.965626 572.2656 38.965626Q571.53125 38.965626 571.1719 39.23125Q570.8125 39.48125 570.6406 40.1375L569.6094 39.996876Q569.75 39.340626 570.0781 38.934376Q570.40625 38.528126 571.0156 38.309376Q571.625 38.090626 572.4219 38.090626Q573.21875 38.090626 573.71875 38.278126Q574.21875 38.465626 574.4531 38.746876Q574.6875 39.028126 574.78125 39.465626Q574.8281 39.73125 574.8281 40.434376L574.8281 41.840626Q574.8281 43.309376 574.8906 43.7Q574.96875 44.090626 575.1719 44.45L574.0625 44.45Q573.90625 44.121876 573.8594 43.684376ZM573.7656 41.325Q573.1875 41.559376 572.0469 41.73125Q571.3906 41.825 571.125 41.95Q570.8594 42.059376 570.7031 42.278126Q570.5625 42.496876 570.5625 42.778126Q570.5625 43.2 570.875 43.48125Q571.2031 43.7625 571.8125 43.7625Q572.4219 43.7625 572.8906 43.496876Q573.375 43.23125 573.59375 42.7625Q573.7656 42.403126 573.7656 41.715626L573.7656 41.325Z" fill-rule="nonzero"/><path fill="#fbbc04" d="M592.0 35.45C592.0 34.897717 592.4477 34.45 593.0 34.45L603.0 34.45C603.5523 34.45 604.0 34.897717 604.0 35.45L604.0 45.45C604.0 46.002285 603.5523 46.45 603.0 46.45L593.0 46.45C592.4477 46.45 592.0 46.002285 592.0 45.45Z" fill-rule="nonzero"/><path fill="#1a1a1a" d="M616.9531 41.075L616.9531 40.075L620.5781 40.059376L620.5781 43.246876Q619.75 43.91875 618.8594 44.2625Q617.96875 44.590626 617.03125 44.590626Q615.7656 44.590626 614.71875 44.059376Q613.6875 43.5125 613.15625 42.496876Q612.6406 41.465626 612.6406 40.2Q612.6406 38.934376 613.15625 37.85625Q613.6875 36.7625 614.6719 36.246876Q615.65625 35.715626 616.9375 35.715626Q617.875 35.715626 618.625 36.0125Q619.375 36.309376 619.7969 36.85625Q620.2344 37.3875 620.4531 38.2625L619.4375 38.54375Q619.2344 37.8875 618.9375 37.5125Q618.65625 37.1375 618.125 36.91875Q617.59375 36.684376 616.9531 36.684376Q616.1719 36.684376 615.59375 36.91875Q615.03125 37.153126 614.6719 37.54375Q614.3281 37.934376 614.1406 38.403126Q613.8125 39.2 613.8125 40.121876Q613.8125 41.278126 614.2031 42.059376Q614.6094 42.825 615.3594 43.2Q616.1094 43.575 616.96875 43.575Q617.7031 43.575 618.40625 43.29375Q619.1094 42.996876 619.46875 42.684376L619.46875 41.075L616.9531 41.075ZM626.0469 42.45L627.1406 42.575Q626.8906 43.528126 626.1875 44.059376Q625.4844 44.590626 624.40625 44.590626Q623.0469 44.590626 622.2344 43.746876Q621.4375 42.903126 621.4375 41.3875Q621.4375 39.825 622.25 38.965626Q623.0625 38.090626 624.34375 38.090626Q625.59375 38.090626 626.375 38.934376Q627.1719 39.778126 627.1719 41.325Q627.1719 41.41875 627.1719 41.60625L622.53125 41.60625Q622.59375 42.6375 623.1094 43.184376Q623.625 43.715626 624.40625 43.715626Q624.9844 43.715626 625.3906 43.41875Q625.8125 43.10625 626.0469 42.45ZM622.59375 40.746876L626.0625 40.746876Q626.0 39.95 625.6719 39.559376Q625.15625 38.95 624.3594 38.95Q623.625 38.95 623.125 39.434376Q622.6406 39.91875 622.59375 40.746876ZM628.78125 44.45L628.78125 38.23125L629.7344 38.23125L629.7344 39.16875Q630.09375 38.5125 630.3906 38.309376Q630.7031 38.090626 631.0781 38.090626Q631.6094 38.090626 632.15625 38.41875L631.7969 39.403126Q631.40625 39.16875 631.03125 39.16875Q630.6719 39.16875 630.3906 39.3875Q630.125 39.590626 630.0156 39.965626Q629.8281 40.528126 629.8281 41.184376L629.8281 44.45L628.78125 44.45ZM632.7969 44.45L632.7969 38.23125L633.7344 38.23125L633.7344 39.10625Q634.03125 38.6375 634.5156 38.371876Q635.0 38.090626 635.625 38.090626Q636.3125 38.090626 636.75 38.371876Q637.2031 38.653126 637.375 39.16875Q638.125 38.090626 639.2969 38.090626Q640.2344 38.090626 640.71875 38.60625Q641.21875 39.10625 641.21875 40.184376L641.21875 44.45L640.1719 44.45L640.1719 40.528126Q640.1719 39.903126 640.0625 39.621876Q639.96875 39.340626 639.7031 39.16875Q639.4375 38.996876 639.0625 38.996876Q638.40625 38.996876 637.96875 39.434376Q637.5469 39.871876 637.5469 40.840626L637.5469 44.45L636.4844 44.45L636.4844 40.403126Q636.4844 39.7 636.21875 39.35625Q635.96875 38.996876 635.3906 38.996876Q634.9375 38.996876 634.5625 39.23125Q634.1875 39.465626 634.0156 39.91875Q633.84375 40.371876 633.84375 41.215626L633.84375 44.45L632.7969 44.45ZM646.8594 43.684376Q646.2656 44.184376 645.71875 44.3875Q645.1875 44.590626 644.5625 44.590626Q643.53125 44.590626 642.9844 44.090626Q642.4375 43.590626 642.4375 42.809376Q642.4375 42.35625 642.6406 41.98125Q642.84375 41.590626 643.1875 41.371876Q643.53125 41.1375 643.9531 41.028126Q644.25 40.934376 644.8906 40.85625Q646.15625 40.715626 646.7656 40.496876Q646.7656 40.278126 646.7656 40.23125Q646.7656 39.575 646.46875 39.309376Q646.0625 38.965626 645.2656 38.965626Q644.53125 38.965626 644.1719 39.23125Q643.8125 39.48125 643.6406 40.1375L642.6094 39.996876Q642.75 39.340626 643.0781 38.934376Q643.40625 38.528126 644.0156 38.309376Q644.625 38.090626 645.4219 38.090626Q646.21875 38.090626 646.71875 38.278126Q647.21875 38.465626 647.4531 38.746876Q647.6875 39.028126 647.78125 39.465626Q647.8281 39.73125 647.8281 40.434376L647.8281 41.840626Q647.8281 43.309376 647.8906 43.7Q647.96875 44.090626 648.1719 44.45L647.0625 44.45Q646.90625 44.121876 646.8594 43.684376ZM646.7656 41.325Q646.1875 41.559376 645.0469 41.73125Q644.3906 41.825 644.125 41.95Q643.8594 42.059376 643.7031 42.278126Q643.5625 42.496876 643.5625 42.778126Q643.5625 43.2 643.875 43.48125Q644.2031 43.7625 644.8125 43.7625Q645.4219 43.7625 645.8906 43.496876Q646.375 43.23125 646.59375 42.7625Q646.7656 42.403126 646.7656 41.715626L646.7656 41.325ZM649.7969 44.45L649.7969 38.23125L650.7344 38.23125L650.7344 39.10625Q651.4219 38.090626 652.71875 38.090626Q653.28125 38.090626 653.75 38.29375Q654.2344 38.496876 654.46875 38.825Q654.7031 39.153126 654.7969 39.590626Q654.84375 39.8875 654.84375 40.621876L654.84375 44.45L653.7969 44.45L653.7969 40.66875Q653.7969 40.0125 653.6719 39.7Q653.5469 39.3875 653.2344 39.2Q652.9219 38.996876 652.5 38.996876Q651.8281 38.996876 651.3281 39.434376Q650.84375 39.85625 650.84375 41.04375L650.84375 44.45L649.7969 44.45ZM656.75 46.840626L656.625 45.85625Q656.96875 45.95 657.2344 45.95Q657.5781 45.95 657.78125 45.825Q658.0 45.715626 658.1406 45.5125Q658.2344 45.340626 658.46875 44.715626Q658.4844 44.6375 658.5625 44.465626L656.1875 38.23125L657.3281 38.23125L658.625 41.825Q658.875 42.5125 659.0781 43.278126Q659.2656 42.54375 659.5156 41.85625L660.84375 38.23125L661.8906 38.23125L659.53125 44.559376Q659.1406 45.575 658.9375 45.965626Q658.65625 46.496876 658.28125 46.73125Q657.9219 46.98125 657.4219 46.98125Q657.125 46.98125 656.75 46.840626Z" fill-rule="nonzero"/></svg>