<svg version="1.1" viewBox="0.0 0.0 600.0 371.0" fill="none" stroke="none" stroke-linecap="square" stroke-miterlimit="10" width="600" height="371" xmlns:xlink="http://www.w3.org/1999/xlink" xmlns="http://www.w3.org/2000/svg"><path fill="#ffffff" d="M0 0L600.0 0L600.0 371.0L0 371.0L0 0Z" fill-rule="nonzero"/><path stroke="#cccccc" stroke-width="1.0" stroke-linecap="butt" d="M59.5 25.5L59.5 332.5" fill-rule="nonzero"/><path stroke="#cccccc" stroke-width="1.0" stroke-linecap="butt" d="M157.5 25.5L157.5 332.5" fill-rule="nonzero"/><path stroke="#cccccc" stroke-width="1.0" stroke-linecap="butt" d="M255.5 25.5L255.5 332.5" fill-rule="nonzero"/><path stroke="#cccccc" stroke-width="1.0" stroke-linecap="butt" d="M353.5 25.5L353.5 332.5" fill-rule="nonzero"/><path stroke="#cccccc" stroke-width="1.0" stroke-linecap="butt" d="M451.5 25.5L451.5 332.5" fill-rule="nonzero"/><path stroke="#333333" stroke-width="1.0" stroke-linecap="butt" d="M59.5 332.5L451.5 332.5" fill-rule="nonzero"/><path stroke="#cccccc" stroke-width="1.0" stroke-linecap="butt" d="M59.5 271.5L451.5 271.5" fill-rule="nonzero"/><path stroke="#cccccc" stroke-width="1.0" stroke-linecap="butt" d="M59.5 209.5L451.5 209.5" fill-rule="nonzero"/><path stroke="#cccccc" stroke-width="1.0" stroke-linecap="butt" d="M59.5 148.5L451.5 148.5" fill-rule="nonzero"/><path stroke="#cccccc" stroke-width="1.0" stroke-linecap="butt" d="M59.5 86.5L451.5 86.5" fill-rule="nonzero"/><path stroke="#cccccc" stroke-width="1.0" stroke-linecap="butt" d="M59.5 25.5L451.5 25.5" fill-rule="nonzero"/><clipPath id="id_0"><path d="M59.55 25.55L451.19 25.55L451.19 332.45L59.55 332.45L59.55 25.55Z" clip-rule="nonzero"/></clipPath><path stroke="#4285f4" stroke-width="2.0" stroke-linecap="butt" clip-path="url(#id_0)" d="M59.55 274.20038L157.46 278.65656L255.37 191.82841L353.28 83.21037L451.19 103.83405" fill-rule="nonzero"/><path stroke="#ea4335" stroke-width="2.0" stroke-linecap="butt" clip-path="url(#id_0)" d="M59.55 302.23877L157.46 282.3762L255.37 268.65164L353.28 260.26712L451.19 243.52266" fill-rule="nonzero"/><path stroke="#fbbc04" stroke-width="2.0" stroke-linecap="butt" clip-path="url(#id_0)" d="M59.55 308.19263L157.46 291.54636L255.37 281.59055L353.28 253.15932L451.19 267.1785" fill-rule="nonzero"/><path stroke="#34a853" stroke-width="2.0" stroke-linecap="butt" clip-path="url(#id_0)" d="M59.55 302.95078L157.46 287.4339L255.37 278.49698L353.28 256.10556L451.19 268.60254" fill-rule="nonzero"/><path stroke="#ff6d01" stroke-width="2.0" stroke-linecap="butt" clip-path="url(#id_0)" d="M59.55 322.28546L157.46 314.33063L255.37 305.0377L353.28 290.79755L451.19 296.01483" fill-rule="nonzero"/><path stroke="#46bdc6" stroke-width="2.0" stroke-linecap="butt" clip-path="url(#id_0)" d="M59.55 322.92383L157.46 316.17203L255.37 311.08975L353.28 300.90067L451.19 305.2341" fill-rule="nonzero"/><path stroke="#7baaf7" stroke-width="2.0" stroke-linecap="butt" clip-path="url(#id_0)" d="M59.55 324.91254L157.46 320.97195L255.37 321.954L353.28 309.84988L451.19 311.55624" fill-rule="nonzero"/><path fill="#000000" fill-opacity="0.0" clip-path="url(#id_0)" d="M62.55 274.20038C62.55 275.85724 61.206856 277.20038 59.55 277.20038C57.893147 277.20038 56.55 275.85724 56.55 274.20038C56.55 272.54352 57.893147 271.20038 59.55 271.20038C61.206856 271.20038 62.55 272.54352 62.55 274.20038Z" fill-rule="nonzero"/><path fill="#000000" fill-opacity="0.0" clip-path="url(#id_0)" d="M160.46 278.65656C160.46 280.31342 159.11685 281.65656 157.46 281.65656C155.80315 281.65656 154.46 280.31342 154.46 278.65656C154.46 276.99973 155.80315 275.65656 157.46 275.65656C159.11685 275.65656 160.46 276.99973 160.46 278.65656Z" fill-rule="nonzero"/><path fill="#000000" fill-opacity="0.0" clip-path="url(#id_0)" d="M258.37 191.82841C258.37 193.48528 257.02686 194.82841 255.37 194.82841C253.71315 194.82841 252.37 193.48528 252.37 191.82841C252.37 190.17157 253.71315 188.82841 255.37 188.82841C257.02686 188.82841 258.37 190.17157 258.37 191.82841Z" fill-rule="nonzero"/><path fill="#000000" fill-opacity="0.0" clip-path="url(#id_0)" d="M356.28 83.21037C356.28 84.867226 354.93686 86.21037 353.28 86.21037C351.62314 86.21037 350.28 84.867226 350.28 83.21037C350.28 81.55352 351.62314 80.21037 353.28 80.21037C354.93686 80.21037 356.28 81.55352 356.28 83.21037Z" fill-rule="nonzero"/><path fill="#000000" fill-opacity="0.0" clip-path="url(#id_0)" d="M454.19 103.83405C454.19 105.490906 452.84686 106.83405 451.19 106.83405C449.53314 106.83405 448.19 105.490906 448.19 103.83405C448.19 102.1772 449.53314 100.83405 451.19 100.83405C452.84686 100.83405 454.19 102.1772 454.19 103.83405Z" fill-rule="nonzero"/><path fill="#000000" fill-opacity="0.0" clip-path="url(#id_0)" d="M62.55 302.23877C62.55 303.89563 61.206856 305.23877 59.55 305.23877C57.893147 305.23877 56.55 303.89563 56.55 302.23877C56.55 300.5819 57.893147 299.23877 59.55 299.23877C61.206856 299.23877 62.55 300.5819 62.55 302.23877Z" fill-rule="nonzero"/><path fill="#000000" fill-opacity="0.0" clip-path="url(#id_0)" d="M160.46 282.3762C160.46 284.03305 159.11685 285.3762 157.46 285.3762C155.80315 285.3762 154.46 284.03305 154.46 282.3762C154.46 280.71933 155.80315 279.3762 157.46 279.3762C159.11685 279.3762 160.46 280.71933 160.46 282.3762Z" fill-rule="nonzero"/><path fill="#000000" fill-opacity="0.0" clip-path="url(#id_0)" d="M258.37 268.65164C258.37 270.30847 257.02686 271.65164 255.37 271.65164C253.71315 271.65164 252.37 270.30847 252.37 268.65164C252.37 266.99478 253.71315 265.65164 255.37 265.65164C257.02686 265.65164 258.37 266.99478 258.37 268.65164Z" fill-rule="nonzero"/><path fill="#000000" fill-opacity="0.0" clip-path="url(#id_0)" d="M356.28 260.26712C356.28 261.92398 354.93686 263.26712 353.28 263.26712C351.62314 263.26712 350.28 261.92398 350.28 260.26712C350.28 258.61026 351.62314 257.26712 353.28 257.26712C354.93686 257.26712 356.28 258.61026 356.28 260.26712Z" fill-rule="nonzero"/><path fill="#000000" fill-opacity="0.0" clip-path="url(#id_0)" d="M454.19 243.52266C454.19 245.1795 452.84686 246.52266 451.19 246.52266C449.53314 246.52266 448.19 245.1795 448.19 243.52266C448.19 241.8658 449.53314 240.52266 451.19 240.52266C452.84686 240.52266 454.19 241.8658 454.19 243.52266Z" fill-rule="nonzero"/><path fill="#000000" fill-opacity="0.0" clip-path="url(#id_0)" d="M62.55 308.19263C62.55 309.8495 61.206856 311.19263 59.55 311.19263C57.893147 311.19263 56.55 309.8495 56.55 308.19263C56.55 306.53577 57.893147 305.19263 59.55 305.19263C61.206856 305.19263 62.55 306.53577 62.55 308.19263Z" fill-rule="nonzero"/><path fill="#000000" fill-opacity="0.0" clip-path="url(#id_0)" d="M160.46 291.54636C160.46 293.20322 159.11685 294.54636 157.46 294.54636C155.80315 294.54636 154.46 293.20322 154.46 291.54636C154.46 289.88953 155.80315 288.54636 157.46 288.54636C159.11685 288.54636 160.46 289.88953 160.46 291.54636Z" fill-rule="nonzero"/><path fill="#000000" fill-opacity="0.0" clip-path="url(#id_0)" d="M258.37 281.59055C258.37 283.24738 257.02686 284.59055 255.37 284.59055C253.71315 284.59055 252.37 283.24738 252.37 281.59055C252.37 279.9337 253.71315 278.59055 255.37 278.59055C257.02686 278.59055 258.37 279.9337 258.37 281.59055Z" fill-rule="nonzero"/><path fill="#000000" fill-opacity="0.0" clip-path="url(#id_0)" d="M356.28 253.15932C356.28 254.81618 354.93686 256.1593 353.28 256.1593C351.62314 256.1593 350.28 254.81618 350.28 253.15932C350.28 251.50246 351.62314 250.15932 353.28 250.15932C354.93686 250.15932 356.28 251.50246 356.28 253.15932Z" fill-rule="nonzero"/><path fill="#000000" fill-opacity="0.0" clip-path="url(#id_0)" d="M454.19 267.1785C454.19 268.83536 452.84686 270.1785 451.19 270.1785C449.53314 270.1785 448.19 268.83536 448.19 267.1785C448.19 265.52167 449.53314 264.1785 451.19 264.1785C452.84686 264.1785 454.19 265.52167 454.19 267.1785Z" fill-rule="nonzero"/><path fill="#000000" fill-opacity="0.0" clip-path="url(#id_0)" d="M62.55 302.95078C62.55 304.60764 61.206856 305.95078 59.55 305.95078C57.893147 305.95078 56.55 304.60764 56.55 302.95078C56.55 301.2939 57.893147 299.95078 59.55 299.95078C61.206856 299.95078 62.55 301.2939 62.55 302.95078Z" fill-rule="nonzero"/><path fill="#000000" fill-opacity="0.0" clip-path="url(#id_0)" d="M160.46 287.4339C160.46 289.09076 159.11685 290.4339 157.46 290.4339C155.80315 290.4339 154.46 289.09076 154.46 287.4339C154.46 285.77704 155.80315 284.4339 157.46 284.4339C159.11685 284.4339 160.46 285.77704 160.46 287.4339Z" fill-rule="nonzero"/><path fill="#000000" fill-opacity="0.0" clip-path="url(#id_0)" d="M258.37 278.49698C258.37 280.15384 257.02686 281.49698 255.37 281.49698C253.71315 281.49698 252.37 280.15384 252.37 278.49698C252.37 276.84012 253.71315 275.49698 255.37 275.49698C257.02686 275.49698 258.37 276.84012 258.37 278.49698Z" fill-rule="nonzero"/><path fill="#000000" fill-opacity="0.0" clip-path="url(#id_0)" d="M356.28 256.10556C356.28 257.76242 354.93686 259.10556 353.28 259.10556C351.62314 259.10556 350.28 257.76242 350.28 256.10556C350.28 254.4487 351.62314 253.10556 353.28 253.10556C354.93686 253.10556 356.28 254.4487 356.28 256.10556Z" fill-rule="nonzero"/><path fill="#000000" fill-opacity="0.0" clip-path="url(#id_0)" d="M454.19 268.60254C454.19 270.25937 452.84686 271.60254 451.19 271.60254C449.53314 271.60254 448.19 270.25937 448.19 268.60254C448.19 266.94568 449.53314 265.60254 451.19 265.60254C452.84686 265.60254 454.19 266.94568 454.19 268.60254Z" fill-rule="nonzero"/><path fill="#000000" fill-opacity="0.0" clip-path="url(#id_0)" d="M62.55 322.28546C62.55 323.94232 61.206856 325.28546 59.55 325.28546C57.893147 325.28546 56.55 323.94232 56.55 322.28546C56.55 320.62863 57.893147 319.28546 59.55 319.28546C61.206856 319.28546 62.55 320.62863 62.55 322.28546Z" fill-rule="nonzero"/><path fill="#000000" fill-opacity="0.0" clip-path="url(#id_0)" d="M160.46 314.33063C160.46 315.9875 159.11685 317.33063 157.46 317.33063C155.80315 317.33063 154.46 315.9875 154.46 314.33063C154.46 312.67377 155.80315 311.33063 157.46 311.33063C159.11685 311.33063 160.46 312.67377 160.46 314.33063Z" fill-rule="nonzero"/><path fill="#000000" fill-opacity="0.0" clip-path="url(#id_0)" d="M258.37 305.0377C258.37 306.69455 257.02686 308.0377 255.37 308.0377C253.71315 308.0377 252.37 306.69455 252.37 305.0377C252.37 303.38083 253.71315 302.0377 255.37 302.0377C257.02686 302.0377 258.37 303.38083 258.37 305.0377Z" fill-rule="nonzero"/><path fill="#000000" fill-opacity="0.0" clip-path="url(#id_0)" d="M356.28 290.79755C356.28 292.45438 354.93686 293.79755 353.28 293.79755C351.62314 293.79755 350.28 292.45438 350.28 290.79755C350.28 289.1407 351.62314 287.79755 353.28 287.79755C354.93686 287.79755 356.28 289.1407 356.28 290.79755Z" fill-rule="nonzero"/><path fill="#000000" fill-opacity="0.0" clip-path="url(#id_0)" d="M454.19 296.01483C454.19 297.6717 452.84686 299.01483 451.19 299.01483C449.53314 299.01483 448.19 297.6717 448.19 296.01483C448.19 294.35797 449.53314 293.01483 451.19 293.01483C452.84686 293.01483 454.19 294.35797 454.19 296.01483Z" fill-rule="nonzero"/><path fill="#000000" fill-opacity="0.0" clip-path="url(#id_0)" d="M62.55 322.92383C62.55 324.5807 61.206856 325.92383 59.55 325.92383C57.893147 325.92383 56.55 324.5807 56.55 322.92383C56.55 321.26697 57.893147 319.92383 59.55 319.92383C61.206856 319.92383 62.55 321.26697 62.55 322.92383Z" fill-rule="nonzero"/><path fill="#000000" fill-opacity="0.0" clip-path="url(#id_0)" d="M160.46 316.17203C160.46 317.8289 159.11685 319.17203 157.46 319.17203C155.80315 319.17203 154.46 317.8289 154.46 316.17203C154.46 314.51517 155.80315 313.17203 157.46 313.17203C159.11685 313.17203 160.46 314.51517 160.46 316.17203Z" fill-rule="nonzero"/><path fill="#000000" fill-opacity="0.0" clip-path="url(#id_0)" d="M258.37 311.08975C258.37 312.7466 257.02686 314.08975 255.37 314.08975C253.71315 314.08975 252.37 312.7466 252.37 311.08975C252.37 309.4329 253.71315 308.08975 255.37 308.08975C257.02686 308.08975 258.37 309.4329 258.37 311.08975Z" fill-rule="nonzero"/><path fill="#000000" fill-opacity="0.0" clip-path="url(#id_0)" d="M356.28 300.90067C356.28 302.55753 354.93686 303.90067 353.28 303.90067C351.62314 303.90067 350.28 302.55753 350.28 300.90067C350.28 299.24384 351.62314 297.90067 353.28 297.90067C354.93686 297.90067 356.28 299.24384 356.28 300.90067Z" fill-rule="nonzero"/><path fill="#000000" fill-opacity="0.0" clip-path="url(#id_0)" d="M454.19 305.2341C454.19 306.89096 452.84686 308.2341 451.19 308.2341C449.53314 308.2341 448.19 306.89096 448.19 305.2341C448.19 303.57724 449.53314 302.2341 451.19 302.2341C452.84686 302.2341 454.19 303.57724 454.19 305.2341Z" fill-rule="nonzero"/><path fill="#000000" fill-opacity="0.0" clip-path="url(#id_0)" d="M62.55 324.91254C62.55 326.5694 61.206856 327.91254 59.55 327.91254C57.893147 327.91254 56.55 326.5694 56.55 324.91254C56.55 323.25568 57.893147 321.91254 59.55 321.91254C61.206856 321.91254 62.55 323.25568 62.55 324.91254Z" fill-rule="nonzero"/><path fill="#000000" fill-opacity="0.0" clip-path="url(#id_0)" d="M160.46 320.97195C160.46 322.62878 159.11685 323.97195 157.46 323.97195C155.80315 323.97195 154.46 322.62878 154.46 320.97195C154.46 319.3151 155.80315 317.97195 157.46 317.97195C159.11685 317.97195 160.46 319.3151 160.46 320.97195Z" fill-rule="nonzero"/><path fill="#000000" fill-opacity="0.0" clip-path="url(#id_0)" d="M258.37 321.954C258.37 323.61087 257.02686 324.954 255.37 324.954C253.71315 324.954 252.37 323.61087 252.37 321.954C252.37 320.29718 253.71315 318.954 255.37 318.954C257.02686 318.954 258.37 320.29718 258.37 321.954Z" fill-rule="nonzero"/><path fill="#000000" fill-opacity="0.0" clip-path="url(#id_0)" d="M356.28 309.84988C356.28 311.50674 354.93686 312.84988 353.28 312.84988C351.62314 312.84988 350.28 311.50674 350.28 309.84988C350.28 308.19302 351.62314 306.84988 353.28 306.84988C354.93686 306.84988 356.28 308.19302 356.28 309.84988Z" fill-rule="nonzero"/><path fill="#000000" fill-opacity="0.0" clip-path="url(#id_0)" d="M454.19 311.55624C454.19 313.2131 452.84686 314.55624 451.19 314.55624C449.53314 314.55624 448.19 313.2131 448.19 311.55624C448.19 309.89938 449.53314 308.55624 451.19 308.55624C452.84686 308.55624 454.19 309.89938 454.19 311.55624Z" fill-rule="nonzero"/><path fill="#000000" d="M47.05 332.21564Q47.05 330.6844 47.3625 329.7625Q47.675 328.825 48.284374 328.325Q48.909374 327.825 49.846874 327.825Q50.534374 327.825 51.05 328.10626Q51.58125 328.3875 51.925 328.91876Q52.26875 329.4344 52.45625 330.1844Q52.64375 330.9344 52.64375 332.21564Q52.64375 333.73126 52.33125 334.65314Q52.034374 335.575 51.409374 336.09064Q50.8 336.59064 49.846874 336.59064Q48.6125 336.59064 47.89375 335.7Q47.05 334.6375 47.05 332.21564ZM48.128124 332.21564Q48.128124 334.325 48.628124 335.02814Q49.128124 335.73126 49.846874 335.73126Q50.58125 335.73126 51.065624 335.02814Q51.565624 334.325 51.565624 332.21564Q51.565624 330.09064 51.065624 329.40314Q50.58125 328.7 49.83125 328.7Q49.1125 328.7 48.675 329.3094Q48.128124 330.09064 48.128124 332.21564Z" fill-rule="nonzero"/><path fill="#000000" d="M26.05 272.82L27.159374 272.72626Q27.284374 273.53876 27.721874 273.945Q28.175 274.35126 28.815624 274.35126Q29.565624 274.35126 30.096874 273.77313Q30.628124 273.195 30.628124 272.2575Q30.628124 271.35126 30.1125 270.83563Q29.6125 270.30438 28.784374 270.30438Q28.284374 270.30438 27.8625 270.53876Q27.45625 270.77313 27.221874 271.1325L26.2375 271.0075L27.065624 266.60126L31.346874 266.60126L31.346874 267.60126L27.909374 267.60126L27.45625 269.91376Q28.221874 269.36688 29.065624 269.36688Q30.190624 269.36688 30.95625 270.14813Q31.7375 270.92938 31.7375 272.16376Q31.7375 273.32 31.065624 274.17938Q30.2375 275.21063 28.815624 275.21063Q27.64375 275.21063 26.89375 274.55438Q26.159374 273.89813 26.05 272.82ZM33.05 270.83563Q33.05 269.30438 33.3625 268.3825Q33.675 267.445 34.284374 266.945Q34.909374 266.445 35.846874 266.445Q36.534374 266.445 37.05 266.72626Q37.58125 267.0075 37.925 267.53876Q38.26875 268.05438 38.45625 268.80438Q38.64375 269.55438 38.64375 270.83563Q38.64375 272.35126 38.33125 273.27313Q38.034374 274.195 37.409374 274.71063Q36.8 275.21063 35.846874 275.21063Q34.6125 275.21063 33.89375 274.32Q33.05 273.2575 33.05 270.83563ZM34.128124 270.83563Q34.128124 272.945 34.628124 273.64813Q35.128124 274.35126 35.846874 274.35126Q36.58125 274.35126 37.065624 273.64813Q37.565624 272.945 37.565624 270.83563Q37.565624 268.71063 37.065624 268.02313Q36.58125 267.32 35.83125 267.32Q35.1125 267.32 34.675 267.92938Q34.128124 268.71063 34.128124 270.83563ZM40.05 270.83563Q40.05 269.30438 40.3625 268.3825Q40.675 267.445 41.284374 266.945Q41.909374 266.445 42.846874 266.445Q43.534374 266.445 44.05 266.72626Q44.58125 267.0075 44.925 267.53876Q45.26875 268.05438 45.45625 268.80438Q45.64375 269.55438 45.64375 270.83563Q45.64375 272.35126 45.33125 273.27313Q45.034374 274.195 44.409374 274.71063Q43.8 275.21063 42.846874 275.21063Q41.6125 275.21063 40.89375 274.32Q40.05 273.2575 40.05 270.83563ZM41.128124 270.83563Q41.128124 272.945 41.628124 273.64813Q42.128124 274.35126 42.846874 274.35126Q43.58125 274.35126 44.065624 273.64813Q44.565624 272.945 44.565624 270.83563Q44.565624 268.71063 44.065624 268.02313Q43.58125 267.32 42.83125 267.32Q42.1125 267.32 41.675 267.92938Q41.128124 268.71063 41.128124 270.83563ZM47.05 270.83563Q47.05 269.30438 47.3625 268.3825Q47.675 267.445 48.284374 266.945Q48.909374 266.445 49.846874 266.445Q50.534374 266.445 51.05 266.72626Q51.58125 267.0075 51.925 267.53876Q52.26875 268.05438 52.45625 268.80438Q52.64375 269.55438 52.64375 270.83563Q52.64375 272.35126 52.33125 273.27313Q52.034374 274.195 51.409374 274.71063Q50.8 275.21063 49.846874 275.21063Q48.6125 275.21063 47.89375 274.32Q47.05 273.2575 47.05 270.83563ZM48.128124 270.83563Q48.128124 272.945 48.628124 273.64813Q49.128124 274.35126 49.846874 274.35126Q50.58125 274.35126 51.065624 273.64813Q51.565624 272.945 51.565624 270.83563Q51.565624 268.71063 51.065624 268.02313Q50.58125 267.32 49.83125 267.32Q49.1125 267.32 48.675 267.92938Q48.128124 268.71063 48.128124 270.83563Z" fill-rule="nonzero"/><path fill="#000000" d="M23.01875 213.69L21.971874 213.69L21.971874 206.97125Q21.58125 207.33063 20.95625 207.70563Q20.346874 208.065 19.8625 208.23688L19.8625 207.22125Q20.7375 206.79938 21.39375 206.22125Q22.065624 205.6275 22.346874 205.065L23.01875 205.065L23.01875 213.69ZM26.05 209.45563Q26.05 207.92438 26.3625 207.0025Q26.675 206.065 27.284374 205.565Q27.909374 205.065 28.846874 205.065Q29.534374 205.065 30.05 205.34625Q30.58125 205.6275 30.925 206.15875Q31.26875 206.67438 31.45625 207.42438Q31.64375 208.17438 31.64375 209.45563Q31.64375 210.97125 31.33125 211.89313Q31.034374 212.815 30.409374 213.33063Q29.8 213.83063 28.846874 213.83063Q27.6125 213.83063 26.89375 212.94Q26.05 211.8775 26.05 209.45563ZM27.128124 209.45563Q27.128124 211.565 27.628124 212.26813Q28.128124 212.97125 28.846874 212.97125Q29.58125 212.97125 30.065624 212.26813Q30.565624 211.565 30.565624 209.45563Q30.565624 207.33063 30.065624 206.64313Q29.58125 205.94 28.83125 205.94Q28.1125 205.94 27.675 206.54938Q27.128124 207.33063 27.128124 209.45563ZM33.05 209.45563Q33.05 207.92438 33.3625 207.0025Q33.675 206.065 34.284374 205.565Q34.909374 205.065 35.846874 205.065Q36.534374 205.065 37.05 205.34625Q37.58125 205.6275 37.925 206.15875Q38.26875 206.67438 38.45625 207.42438Q38.64375 208.17438 38.64375 209.45563Q38.64375 210.97125 38.33125 211.89313Q38.034374 212.815 37.409374 213.33063Q36.8 213.83063 35.846874 213.83063Q34.6125 213.83063 33.89375 212.94Q33.05 211.8775 33.05 209.45563ZM34.128124 209.45563Q34.128124 211.565 34.628124 212.26813Q35.128124 212.97125 35.846874 212.97125Q36.58125 212.97125 37.065624 212.26813Q37.565624 211.565 37.565624 209.45563Q37.565624 207.33063 37.065624 206.64313Q36.58125 205.94 35.83125 205.94Q35.1125 205.94 34.675 206.54938Q34.128124 207.33063 34.128124 209.45563ZM40.05 209.45563Q40.05 207.92438 40.3625 207.0025Q40.675 206.065 41.284374 205.565Q41.909374 205.065 42.846874 205.065Q43.534374 205.065 44.05 205.34625Q44.58125 205.6275 44.925 206.15875Q45.26875 206.67438 45.45625 207.42438Q45.64375 208.17438 45.64375 209.45563Q45.64375 210.97125 45.33125 211.89313Q45.034374 212.815 44.409374 213.33063Q43.8 213.83063 42.846874 213.83063Q41.6125 213.83063 40.89375 212.94Q40.05 211.8775 40.05 209.45563ZM41.128124 209.45563Q41.128124 211.565 41.628124 212.26813Q42.128124 212.97125 42.846874 212.97125Q43.58125 212.97125 44.065624 212.26813Q44.565624 211.565 44.565624 209.45563Q44.565624 207.33063 44.065624 206.64313Q43.58125 205.94 42.83125 205.94Q42.1125 205.94 41.675 206.54938Q41.128124 207.33063 41.128124 209.45563ZM47.05 209.45563Q47.05 207.92438 47.3625 207.0025Q47.675 206.065 48.284374 205.565Q48.909374 205.065 49.846874 205.065Q50.534374 205.065 51.05 205.34625Q51.58125 205.6275 51.925 206.15875Q52.26875 206.67438 52.45625 207.42438Q52.64375 208.17438 52.64375 209.45563Q52.64375 210.97125 52.33125 211.89313Q52.034374 212.815 51.409374 213.33063Q50.8 213.83063 49.846874 213.83063Q48.6125 213.83063 47.89375 212.94Q47.05 211.8775 47.05 209.45563ZM48.128124 209.45563Q48.128124 211.565 48.628124 212.26813Q49.128124 212.97125 49.846874 212.97125Q50.58125 212.97125 51.065624 212.26813Q51.565624 211.565 51.565624 209.45563Q51.565624 207.33063 51.065624 206.64313Q50.58125 205.94 49.83125 205.94Q49.1125 205.94 48.675 206.54938Q48.128124 207.33063 48.128124 209.45563Z" fill-rule="nonzero"/><path fill="#000000" d="M23.01875 152.31L21.971874 152.31L21.971874 145.59125Q21.58125 145.95062 20.95625 146.32562Q20.346874 146.685 19.8625 146.85687L19.8625 145.84125Q20.7375 145.41937 21.39375 144.84125Q22.065624 144.2475 22.346874 143.685L23.01875 143.685L23.01875 152.31ZM26.05 150.06L27.159374 149.96625Q27.284374 150.77875 27.721874 151.185Q28.175 151.59125 28.815624 151.59125Q29.565624 151.59125 30.096874 151.01312Q30.628124 150.435 30.628124 149.4975Q30.628124 148.59125 30.1125 148.07562Q29.6125 147.54437 28.784374 147.54437Q28.284374 147.54437 27.8625 147.77875Q27.45625 148.01312 27.221874 148.3725L26.2375 148.2475L27.065624 143.84125L31.346874 143.84125L31.346874 144.84125L27.909374 144.84125L27.45625 147.15375Q28.221874 146.60687 29.065624 146.60687Q30.190624 146.60687 30.95625 147.38812Q31.7375 148.16937 31.7375 149.40375Q31.7375 150.56 31.065624 151.41937Q30.2375 152.45062 28.815624 152.45062Q27.64375 152.45062 26.89375 151.79437Q26.159374 151.13812 26.05 150.06ZM33.05 148.07562Q33.05 146.54437 33.3625 145.6225Q33.675 144.685 34.284374 144.185Q34.909374 143.685 35.846874 143.685Q36.534374 143.685 37.05 143.96625Q37.58125 144.2475 37.925 144.77875Q38.26875 145.29437 38.45625 146.04437Q38.64375 146.79437 38.64375 148.07562Q38.64375 149.59125 38.33125 150.51312Q38.034374 151.435 37.409374 151.95062Q36.8 152.45062 35.846874 152.45062Q34.6125 152.45062 33.89375 151.56Q33.05 150.4975 33.05 148.07562ZM34.128124 148.07562Q34.128124 150.185 34.628124 150.88812Q35.128124 151.59125 35.846874 151.59125Q36.58125 151.59125 37.065624 150.88812Q37.565624 150.185 37.565624 148.07562Q37.565624 145.95062 37.065624 145.26312Q36.58125 144.56 35.83125 144.56Q35.1125 144.56 34.675 145.16937Q34.128124 145.95062 34.128124 148.07562ZM40.05 148.07562Q40.05 146.54437 40.3625 145.6225Q40.675 144.685 41.284374 144.185Q41.909374 143.685 42.846874 143.685Q43.534374 143.685 44.05 143.96625Q44.58125 144.2475 44.925 144.77875Q45.26875 145.29437 45.45625 146.04437Q45.64375 146.79437 45.64375 148.07562Q45.64375 149.59125 45.33125 150.51312Q45.034374 151.435 44.409374 151.95062Q43.8 152.45062 42.846874 152.45062Q41.6125 152.45062 40.89375 151.56Q40.05 150.4975 40.05 148.07562ZM41.128124 148.07562Q41.128124 150.185 41.628124 150.88812Q42.128124 151.59125 42.846874 151.59125Q43.58125 151.59125 44.065624 150.88812Q44.565624 150.185 44.565624 148.07562Q44.565624 145.95062 44.065624 145.26312Q43.58125 144.56 42.83125 144.56Q42.1125 144.56 41.675 145.16937Q41.128124 145.95062 41.128124 148.07562ZM47.05 148.07562Q47.05 146.54437 47.3625 145.6225Q47.675 144.685 48.284374 144.185Q48.909374 143.685 49.846874 143.685Q50.534374 143.685 51.05 143.96625Q51.58125 144.2475 51.925 144.77875Q52.26875 145.29437 52.45625 146.04437Q52.64375 146.79437 52.64375 148.07562Q52.64375 149.59125 52.33125 150.51312Q52.034374 151.435 51.409374 151.95062Q50.8 152.45062 49.846874 152.45062Q48.6125 152.45062 47.89375 151.56Q47.05 150.4975 47.05 148.07562ZM48.128124 148.07562Q48.128124 150.185 48.628124 150.88812Q49.128124 151.59125 49.846874 151.59125Q50.58125 151.59125 51.065624 150.88812Q51.565624 150.185 51.565624 148.07562Q51.565624 145.95062 51.065624 145.26312Q50.58125 144.56 49.83125 144.56Q49.1125 144.56 48.675 145.16937Q48.128124 145.95062 48.128124 148.07562Z" fill-rule="nonzero"/><path fill="#000000" d="M24.596874 89.914375L24.596874 90.93L18.909374 90.93Q18.909374 90.555 19.034374 90.195625Q19.253124 89.6175 19.721874 89.055Q20.20625 88.4925 21.1125 87.758125Q22.51875 86.601875 23.003124 85.93Q23.503124 85.258125 23.503124 84.664375Q23.503124 84.039375 23.05 83.6175Q22.596874 83.18 21.878124 83.18Q21.1125 83.18 20.659374 83.633125Q20.20625 84.08625 20.190624 84.89875L19.1125 84.789375Q19.221874 83.570625 19.940624 82.945625Q20.675 82.305 21.909374 82.305Q23.14375 82.305 23.8625 82.9925Q24.58125 83.68 24.58125 84.695625Q24.58125 85.21125 24.3625 85.71125Q24.159374 86.195625 23.659374 86.758125Q23.175 87.305 22.05 88.258125Q21.096874 89.055 20.815624 89.351875Q20.55 89.633125 20.378124 89.914375L24.596874 89.914375ZM26.05 86.695625Q26.05 85.164375 26.3625 84.2425Q26.675 83.305 27.284374 82.805Q27.909374 82.305 28.846874 82.305Q29.534374 82.305 30.05 82.58625Q30.58125 82.8675 30.925 83.39875Q31.26875 83.914375 31.45625 84.664375Q31.64375 85.414375 31.64375 86.695625Q31.64375 88.21125 31.33125 89.133125Q31.034374 90.055 30.409374 90.570625Q29.8 91.070625 28.846874 91.070625Q27.6125 91.070625 26.89375 90.18Q26.05 89.1175 26.05 86.695625ZM27.128124 86.695625Q27.128124 88.805 27.628124 89.508125Q28.128124 90.21125 28.846874 90.21125Q29.58125 90.21125 30.065624 89.508125Q30.565624 88.805 30.565624 86.695625Q30.565624 84.570625 30.065624 83.883125Q29.58125 83.18 28.83125 83.18Q28.1125 83.18 27.675 83.789375Q27.128124 84.570625 27.128124 86.695625ZM33.05 86.695625Q33.05 85.164375 33.3625 84.2425Q33.675 83.305 34.284374 82.805Q34.909374 82.305 35.846874 82.305Q36.534374 82.305 37.05 82.58625Q37.58125 82.8675 37.925 83.39875Q38.26875 83.914375 38.45625 84.664375Q38.64375 85.414375 38.64375 86.695625Q38.64375 88.21125 38.33125 89.133125Q38.034374 90.055 37.409374 90.570625Q36.8 91.070625 35.846874 91.070625Q34.6125 91.070625 33.89375 90.18Q33.05 89.1175 33.05 86.695625ZM34.128124 86.695625Q34.128124 88.805 34.628124 89.508125Q35.128124 90.21125 35.846874 90.21125Q36.58125 90.21125 37.065624 89.508125Q37.565624 88.805 37.565624 86.695625Q37.565624 84.570625 37.065624 83.883125Q36.58125 83.18 35.83125 83.18Q35.1125 83.18 34.675 83.789375Q34.128124 84.570625 34.128124 86.695625ZM40.05 86.695625Q40.05 85.164375 40.3625 84.2425Q40.675 83.305 41.284374 82.805Q41.909374 82.305 42.846874 82.305Q43.534374 82.305 44.05 82.58625Q44.58125 82.8675 44.925 83.39875Q45.26875 83.914375 45.45625 84.664375Q45.64375 85.414375 45.64375 86.695625Q45.64375 88.21125 45.33125 89.133125Q45.034374 90.055 44.409374 90.570625Q43.8 91.070625 42.846874 91.070625Q41.6125 91.070625 40.89375 90.18Q40.05 89.1175 40.05 86.695625ZM41.128124 86.695625Q41.128124 88.805 41.628124 89.508125Q42.128124 90.21125 42.846874 90.21125Q43.58125 90.21125 44.065624 89.508125Q44.565624 88.805 44.565624 86.695625Q44.565624 84.570625 44.065624 83.883125Q43.58125 83.18 42.83125 83.18Q42.1125 83.18 41.675 83.789375Q41.128124 84.570625 41.128124 86.695625ZM47.05 86.695625Q47.05 85.164375 47.3625 84.2425Q47.675 83.305 48.284374 82.805Q48.909374 82.305 49.846874 82.305Q50.534374 82.305 51.05 82.58625Q51.58125 82.8675 51.925 83.39875Q52.26875 83.914375 52.45625 84.664375Q52.64375 85.414375 52.64375 86.695625Q52.64375 88.21125 52.33125 89.133125Q52.034374 90.055 51.409374 90.570625Q50.8 91.070625 49.846874 91.070625Q48.6125 91.070625 47.89375 90.18Q47.05 89.1175 47.05 86.695625ZM48.128124 86.695625Q48.128124 88.805 48.628124 89.508125Q49.128124 90.21125 49.846874 90.21125Q50.58125 90.21125 51.065624 89.508125Q51.565624 88.805 51.565624 86.695625Q51.565624 84.570625 51.065624 83.883125Q50.58125 83.18 49.83125 83.18Q49.1125 83.18 48.675 83.789375Q48.128124 84.570625 48.128124 86.695625Z" fill-rule="nonzero"/><path fill="#000000" d="M24.596874 28.534374L24.596874 29.55L18.909374 29.55Q18.909374 29.175 19.034374 28.815624Q19.253124 28.2375 19.721874 27.675Q20.20625 27.1125 21.1125 26.378124Q22.51875 25.221874 23.003124 24.55Q23.503124 23.878124 23.503124 23.284374Q23.503124 22.659374 23.05 22.2375Q22.596874 21.8 21.878124 21.8Q21.1125 21.8 20.659374 22.253124Q20.20625 22.70625 20.190624 23.51875L19.1125 23.409374Q19.221874 22.190624 19.940624 21.565624Q20.675 20.925 21.909374 20.925Q23.14375 20.925 23.8625 21.6125Q24.58125 22.3 24.58125 23.315624Q24.58125 23.83125 24.3625 24.33125Q24.159374 24.815624 23.659374 25.378124Q23.175 25.925 22.05 26.878124Q21.096874 27.675 20.815624 27.971874Q20.55 28.253124 20.378124 28.534374L24.596874 28.534374ZM26.05 27.3L27.159374 27.20625Q27.284374 28.01875 27.721874 28.425Q28.175 28.83125 28.815624 28.83125Q29.565624 28.83125 30.096874 28.253124Q30.628124 27.675 30.628124 26.7375Q30.628124 25.83125 30.1125 25.315624Q29.6125 24.784374 28.784374 24.784374Q28.284374 24.784374 27.8625 25.01875Q27.45625 25.253124 27.221874 25.6125L26.2375 25.4875L27.065624 21.08125L31.346874 21.08125L31.346874 22.08125L27.909374 22.08125L27.45625 24.39375Q28.221874 23.846874 29.065624 23.846874Q30.190624 23.846874 30.95625 24.628124Q31.7375 25.409374 31.7375 26.64375Q31.7375 27.8 31.065624 28.659374Q30.2375 29.690624 28.815624 29.690624Q27.64375 29.690624 26.89375 29.034374Q26.159374 28.378124 26.05 27.3ZM33.05 25.315624Q33.05 23.784374 33.3625 22.8625Q33.675 21.925 34.284374 21.425Q34.909374 20.925 35.846874 20.925Q36.534374 20.925 37.05 21.20625Q37.58125 21.4875 37.925 22.01875Q38.26875 22.534374 38.45625 23.284374Q38.64375 24.034374 38.64375 25.315624Q38.64375 26.83125 38.33125 27.753124Q38.034374 28.675 37.409374 29.190624Q36.8 29.690624 35.846874 29.690624Q34.6125 29.690624 33.89375 28.8Q33.05 27.7375 33.05 25.315624ZM34.128124 25.315624Q34.128124 27.425 34.628124 28.128124Q35.128124 28.83125 35.846874 28.83125Q36.58125 28.83125 37.065624 28.128124Q37.565624 27.425 37.565624 25.315624Q37.565624 23.190624 37.065624 22.503124Q36.58125 21.8 35.83125 21.8Q35.1125 21.8 34.675 22.409374Q34.128124 23.190624 34.128124 25.315624ZM40.05 25.315624Q40.05 23.784374 40.3625 22.8625Q40.675 21.925 41.284374 21.425Q41.909374 20.925 42.846874 20.925Q43.534374 20.925 44.05 21.20625Q44.58125 21.4875 44.925 22.01875Q45.26875 22.534374 45.45625 23.284374Q45.64375 24.034374 45.64375 25.315624Q45.64375 26.83125 45.33125 27.753124Q45.034374 28.675 44.409374 29.190624Q43.8 29.690624 42.846874 29.690624Q41.6125 29.690624 40.89375 28.8Q40.05 27.7375 40.05 25.315624ZM41.128124 25.315624Q41.128124 27.425 41.628124 28.128124Q42.128124 28.83125 42.846874 28.83125Q43.58125 28.83125 44.065624 28.128124Q44.565624 27.425 44.565624 25.315624Q44.565624 23.190624 44.065624 22.503124Q43.58125 21.8 42.83125 21.8Q42.1125 21.8 41.675 22.409374Q41.128124 23.190624 41.128124 25.315624ZM47.05 25.315624Q47.05 23.784374 47.3625 22.8625Q47.675 21.925 48.284374 21.425Q48.909374 20.925 49.846874 20.925Q50.534374 20.925 51.05 21.20625Q51.58125 21.4875 51.925 22.01875Q52.26875 22.534374 52.45625 23.284374Q52.64375 24.034374 52.64375 25.315624Q52.64375 26.83125 52.33125 27.753124Q52.034374 28.675 51.409374 29.190624Q50.8 29.690624 49.846874 29.690624Q48.6125 29.690624 47.89375 28.8Q47.05 27.7375 47.05 25.315624ZM48.128124 25.315624Q48.128124 27.425 48.628124 28.128124Q49.128124 28.83125 49.846874 28.83125Q50.58125 28.83125 51.065624 28.128124Q51.565624 27.425 51.565624 25.315624Q51.565624 23.190624 51.065624 22.503124Q50.58125 21.8 49.83125 21.8Q49.1125 21.8 48.675 22.409374Q48.128124 23.190624 48.128124 25.315624Z" fill-rule="nonzero"/><path fill="#000000" d="M51.596874 348.4344L51.596874 349.45L45.909374 349.45Q45.909374 349.075 46.034374 348.71564Q46.253124 348.1375 46.721874 347.575Q47.20625 347.0125 48.1125 346.27814Q49.51875 345.1219 50.003124 344.45Q50.503124 343.77814 50.503124 343.1844Q50.503124 342.5594 50.05 342.1375Q49.596874 341.7 48.878124 341.7Q48.1125 341.7 47.659374 342.15314Q47.20625 342.60626 47.190624 343.41876L46.1125 343.3094Q46.221874 342.09064 46.940624 341.46564Q47.675 340.825 48.909374 340.825Q50.14375 340.825 50.8625 341.5125Q51.58125 342.2 51.58125 343.21564Q51.58125 343.73126 51.3625 344.23126Q51.159374 344.71564 50.659374 345.27814Q50.175 345.825 49.05 346.77814Q48.096874 347.575 47.815624 347.8719Q47.55 348.15314 47.378124 348.4344L51.596874 348.4344ZM53.05 345.21564Q53.05 343.6844 53.3625 342.7625Q53.675 341.825 54.284374 341.325Q54.909374 340.825 55.846874 340.825Q56.534374 340.825 57.05 341.10626Q57.58125 341.3875 57.925 341.91876Q58.26875 342.4344 58.45625 343.1844Q58.64375 343.9344 58.64375 345.21564Q58.64375 346.73126 58.33125 347.65314Q58.034374 348.575 57.409374 349.09064Q56.8 349.59064 55.846874 349.59064Q54.6125 349.59064 53.89375 348.7Q53.05 347.6375 53.05 345.21564ZM54.128124 345.21564Q54.128124 347.325 54.628124 348.02814Q55.128124 348.73126 55.846874 348.73126Q56.58125 348.73126 57.065624 348.02814Q57.565624 347.325 57.565624 345.21564Q57.565624 343.09064 57.065624 342.40314Q56.58125 341.7 55.83125 341.7Q55.1125 341.7 54.675 342.3094Q54.128124 343.09064 54.128124 345.21564ZM64.01875 349.45L62.971874 349.45L62.971874 342.73126Q62.58125 343.09064 61.95625 343.46564Q61.346874 343.825 60.8625 343.9969L60.8625 342.98126Q61.7375 342.5594 62.39375 341.98126Q63.065624 341.3875 63.346874 340.825L64.01875 340.825L64.01875 349.45ZM67.05 347.2L68.15938 347.10626Q68.28438 347.91876 68.72188 348.325Q69.175 348.73126 69.81563 348.73126Q70.56563 348.73126 71.09688 348.15314Q71.62813 347.575 71.62813 346.6375Q71.62813 345.73126 71.1125 345.21564Q70.6125 344.6844 69.78438 344.6844Q69.28438 344.6844 68.8625 344.91876Q68.45625 345.15314 68.22188 345.5125L67.2375 345.3875L68.06563 340.98126L72.34688 340.98126L72.34688 341.98126L68.90938 341.98126L68.45625 344.29376Q69.22188 343.7469 70.06563 343.7469Q71.19063 343.7469 71.95625 344.52814Q72.7375 345.3094 72.7375 346.54376Q72.7375 347.7 72.06563 348.5594Q71.2375 349.59064 69.81563 349.59064Q68.64375 349.59064 67.89375 348.9344Q67.15938 348.27814 67.05 347.2Z" fill-rule="nonzero"/><path fill="#000000" d="M149.50688 348.4344L149.50688 349.45L143.81938 349.45Q143.81938 349.075 143.94438 348.71564Q144.16313 348.1375 144.63188 347.575Q145.11626 347.0125 146.0225 346.27814Q147.42876 345.1219 147.91313 344.45Q148.41313 343.77814 148.41313 343.1844Q148.41313 342.5594 147.96 342.1375Q147.50688 341.7 146.78813 341.7Q146.0225 341.7 145.56938 342.15314Q145.11626 342.60626 145.10063 343.41876L144.0225 343.3094Q144.13188 342.09064 144.85063 341.46564Q145.585 340.825 146.81938 340.825Q148.05376 340.825 148.7725 341.5125Q149.49126 342.2 149.49126 343.21564Q149.49126 343.73126 149.2725 344.23126Q149.06938 344.71564 148.56938 345.27814Q148.085 345.825 146.96 346.77814Q146.00688 347.575 145.72563 347.8719Q145.46 348.15314 145.28813 348.4344L149.50688 348.4344ZM150.96 345.21564Q150.96 343.6844 151.2725 342.7625Q151.585 341.825 152.19438 341.325Q152.81938 340.825 153.75688 340.825Q154.44438 340.825 154.96 341.10626Q155.49126 341.3875 155.835 341.91876Q156.17876 342.4344 156.36626 343.1844Q156.55376 343.9344 156.55376 345.21564Q156.55376 346.73126 156.24126 347.65314Q155.94438 348.575 155.31938 349.09064Q154.71 349.59064 153.75688 349.59064Q152.5225 349.59064 151.80376 348.7Q150.96 347.6375 150.96 345.21564ZM152.03813 345.21564Q152.03813 347.325 152.53813 348.02814Q153.03813 348.73126 153.75688 348.73126Q154.49126 348.73126 154.97563 348.02814Q155.47563 347.325 155.47563 345.21564Q155.47563 343.09064 154.97563 342.40314Q154.49126 341.7 153.74126 341.7Q153.0225 341.7 152.585 342.3094Q152.03813 343.09064 152.03813 345.21564ZM161.92876 349.45L160.88188 349.45L160.88188 342.73126Q160.49126 343.09064 159.86626 343.46564Q159.25688 343.825 158.7725 343.9969L158.7725 342.98126Q159.6475 342.5594 160.30376 341.98126Q160.97563 341.3875 161.25688 340.825L161.92876 340.825L161.92876 349.45ZM170.42876 342.96564L169.38188 343.04376Q169.24126 342.41876 168.99126 342.1375Q168.55376 341.6844 167.92876 341.6844Q167.42876 341.6844 167.03813 341.96564Q166.55376 342.34064 166.25688 343.04376Q165.97563 343.73126 165.96 345.0125Q166.335 344.4344 166.88188 344.15314Q167.44438 343.8719 168.05376 343.8719Q169.10063 343.8719 169.835 344.65314Q170.585 345.4344 170.585 346.65314Q170.585 347.46564 170.22563 348.16876Q169.88188 348.85626 169.2725 349.23126Q168.66313 349.59064 167.8975 349.59064Q166.56938 349.59064 165.74126 348.6219Q164.91313 347.65314 164.91313 345.4344Q164.91313 342.9344 165.835 341.8094Q166.63188 340.825 167.99126 340.825Q169.00688 340.825 169.6475 341.40314Q170.30376 341.96564 170.42876 342.96564ZM166.13188 346.66876Q166.13188 347.21564 166.35063 347.71564Q166.585 348.2 166.99126 348.46564Q167.41313 348.73126 167.88188 348.73126Q168.53813 348.73126 169.0225 348.2Q169.50688 347.65314 169.50688 346.73126Q169.50688 345.84064 169.0225 345.325Q168.55376 344.8094 167.835 344.8094Q167.11626 344.8094 166.61626 345.325Q166.13188 345.84064 166.13188 346.66876Z" fill-rule="nonzero"/><path fill="#000000" d="M247.41687 348.4344L247.41687 349.45L241.72937 349.45Q241.72937 349.075 241.85437 348.71564Q242.07312 348.1375 242.54187 347.575Q243.02625 347.0125 243.9325 346.27814Q245.33875 345.1219 245.82312 344.45Q246.32312 343.77814 246.32312 343.1844Q246.32312 342.5594 245.87 342.1375Q245.41687 341.7 244.69812 341.7Q243.9325 341.7 243.47937 342.15314Q243.02625 342.60626 243.01062 343.41876L241.9325 343.3094Q242.04187 342.09064 242.76062 341.46564Q243.495 340.825 244.72937 340.825Q245.96375 340.825 246.6825 341.5125Q247.40125 342.2 247.40125 343.21564Q247.40125 343.73126 247.1825 344.23126Q246.97937 344.71564 246.47937 345.27814Q245.995 345.825 244.87 346.77814Q243.91687 347.575 243.63562 347.8719Q243.37 348.15314 243.19812 348.4344L247.41687 348.4344ZM248.87 345.21564Q248.87 343.6844 249.1825 342.7625Q249.495 341.825 250.10437 341.325Q250.72937 340.825 251.66687 340.825Q252.35437 340.825 252.87 341.10626Q253.40125 341.3875 253.745 341.91876Q254.08875 342.4344 254.27625 343.1844Q254.46375 343.9344 254.46375 345.21564Q254.46375 346.73126 254.15125 347.65314Q253.85437 348.575 253.22937 349.09064Q252.62 349.59064 251.66687 349.59064Q250.4325 349.59064 249.71375 348.7Q248.87 347.6375 248.87 345.21564ZM249.94812 345.21564Q249.94812 347.325 250.44812 348.02814Q250.94812 348.73126 251.66687 348.73126Q252.40125 348.73126 252.88562 348.02814Q253.38562 347.325 253.38562 345.21564Q253.38562 343.09064 252.88562 342.40314Q252.40125 341.7 251.65125 341.7Q250.9325 341.7 250.495 342.3094Q249.94812 343.09064 249.94812 345.21564ZM259.83875 349.45L258.79187 349.45L258.79187 342.73126Q258.40125 343.09064 257.77625 343.46564Q257.16687 343.825 256.6825 343.9969L256.6825 342.98126Q257.5575 342.5594 258.21375 341.98126Q258.88562 341.3875 259.16687 340.825L259.83875 340.825L259.83875 349.45ZM262.9325 341.98126L262.9325 340.96564L268.495 340.96564L268.495 341.79376Q267.6825 342.66876 266.87 344.1219Q266.07312 345.5594 265.63562 347.09064Q265.3075 348.16876 265.22937 349.45L264.13562 349.45Q264.15125 348.4344 264.52625 346.9969Q264.91687 345.5594 265.62 344.23126Q266.33875 342.90314 267.15125 341.98126L262.9325 341.98126Z" fill-rule="nonzero"/><path fill="#000000" d="M345.32687 348.4344L345.32687 349.45L339.63937 349.45Q339.63937 349.075 339.76437 348.71564Q339.98312 348.1375 340.45187 347.575Q340.93625 347.0125 341.8425 346.27814Q343.24875 345.1219 343.73312 344.45Q344.23312 343.77814 344.23312 343.1844Q344.23312 342.5594 343.78 342.1375Q343.32687 341.7 342.60812 341.7Q341.8425 341.7 341.38937 342.15314Q340.93625 342.60626 340.92062 343.41876L339.8425 343.3094Q339.95187 342.09064 340.67062 341.46564Q341.405 340.825 342.63937 340.825Q343.87375 340.825 344.5925 341.5125Q345.31125 342.2 345.31125 343.21564Q345.31125 343.73126 345.0925 344.23126Q344.88937 344.71564 344.38937 345.27814Q343.905 345.825 342.78 346.77814Q341.82687 347.575 341.54562 347.8719Q341.28 348.15314 341.10812 348.4344L345.32687 348.4344ZM346.78 345.21564Q346.78 343.6844 347.0925 342.7625Q347.405 341.825 348.01437 341.325Q348.63937 340.825 349.57687 340.825Q350.26437 340.825 350.78 341.10626Q351.31125 341.3875 351.655 341.91876Q351.99875 342.4344 352.18625 343.1844Q352.37375 343.9344 352.37375 345.21564Q352.37375 346.73126 352.06125 347.65314Q351.76437 348.575 351.13937 349.09064Q350.53 349.59064 349.57687 349.59064Q348.3425 349.59064 347.62375 348.7Q346.78 347.6375 346.78 345.21564ZM347.85812 345.21564Q347.85812 347.325 348.35812 348.02814Q348.85812 348.73126 349.57687 348.73126Q350.31125 348.73126 350.79562 348.02814Q351.29562 347.325 351.29562 345.21564Q351.29562 343.09064 350.79562 342.40314Q350.31125 341.7 349.56125 341.7Q348.8425 341.7 348.405 342.3094Q347.85812 343.09064 347.85812 345.21564ZM357.74875 349.45L356.70187 349.45L356.70187 342.73126Q356.31125 343.09064 355.68625 343.46564Q355.07687 343.825 354.5925 343.9969L354.5925 342.98126Q355.4675 342.5594 356.12375 341.98126Q356.79562 341.3875 357.07687 340.825L357.74875 340.825L357.74875 349.45ZM362.405 344.79376Q361.74875 344.54376 361.42062 344.10626Q361.10812 343.65314 361.10812 343.04376Q361.10812 342.10626 361.78 341.46564Q362.4675 340.825 363.57687 340.825Q364.70187 340.825 365.38937 341.48126Q366.07687 342.1375 366.07687 343.075Q366.07687 343.66876 365.76437 344.10626Q365.45187 344.54376 364.81125 344.79376Q365.60812 345.04376 366.01437 345.6219Q366.42062 346.2 366.42062 346.9969Q366.42062 348.09064 365.63937 348.84064Q364.87375 349.59064 363.5925 349.59064Q362.32687 349.59064 361.54562 348.84064Q360.76437 348.09064 360.76437 346.96564Q360.76437 346.1219 361.18625 345.5594Q361.62375 344.9969 362.405 344.79376ZM362.18625 342.9969Q362.18625 343.60626 362.57687 343.9969Q362.98312 344.3875 363.60812 344.3875Q364.2175 344.3875 364.60812 344.0125Q364.99875 343.6219 364.99875 343.0594Q364.99875 342.48126 364.5925 342.09064Q364.18625 341.6844 363.5925 341.6844Q362.98312 341.6844 362.57687 342.075Q362.18625 342.46564 362.18625 342.9969ZM361.85812 346.96564Q361.85812 347.41876 362.06125 347.84064Q362.28 348.2625 362.70187 348.4969Q363.12375 348.73126 363.60812 348.73126Q364.35812 348.73126 364.8425 348.2469Q365.3425 347.7625 365.3425 347.0125Q365.3425 346.2469 364.8425 345.7469Q364.3425 345.2469 363.57687 345.2469Q362.82687 345.2469 362.3425 345.7469Q361.85812 346.23126 361.85812 346.96564Z" fill-rule="nonzero"/><path fill="#000000" d="M443.23688 348.4344L443.23688 349.45L437.54938 349.45Q437.54938 349.075 437.67438 348.71564Q437.89313 348.1375 438.36188 347.575Q438.84625 347.0125 439.7525 346.27814Q441.15875 345.1219 441.64313 344.45Q442.14313 343.77814 442.14313 343.1844Q442.14313 342.5594 441.69 342.1375Q441.23688 341.7 440.51813 341.7Q439.7525 341.7 439.29938 342.15314Q438.84625 342.60626 438.83063 343.41876L437.7525 343.3094Q437.86188 342.09064 438.58063 341.46564Q439.315 340.825 440.54938 340.825Q441.78375 340.825 442.5025 341.5125Q443.22125 342.2 443.22125 343.21564Q443.22125 343.73126 443.0025 344.23126Q442.79938 344.71564 442.29938 345.27814Q441.815 345.825 440.69 346.77814Q439.73688 347.575 439.45563 347.8719Q439.19 348.15314 439.01813 348.4344L443.23688 348.4344ZM444.69 345.21564Q444.69 343.6844 445.0025 342.7625Q445.315 341.825 445.92438 341.325Q446.54938 340.825 447.48688 340.825Q448.17438 340.825 448.69 341.10626Q449.22125 341.3875 449.565 341.91876Q449.90875 342.4344 450.09625 343.1844Q450.28375 343.9344 450.28375 345.21564Q450.28375 346.73126 449.97125 347.65314Q449.67438 348.575 449.04938 349.09064Q448.44 349.59064 447.48688 349.59064Q446.2525 349.59064 445.53375 348.7Q444.69 347.6375 444.69 345.21564ZM445.76813 345.21564Q445.76813 347.325 446.26813 348.02814Q446.76813 348.73126 447.48688 348.73126Q448.22125 348.73126 448.70563 348.02814Q449.20563 347.325 449.20563 345.21564Q449.20563 343.09064 448.70563 342.40314Q448.22125 341.7 447.47125 341.7Q446.7525 341.7 446.315 342.3094Q445.76813 343.09064 445.76813 345.21564ZM455.65875 349.45L454.61188 349.45L454.61188 342.73126Q454.22125 343.09064 453.59625 343.46564Q452.98688 343.825 452.5025 343.9969L452.5025 342.98126Q453.3775 342.5594 454.03375 341.98126Q454.70563 341.3875 454.98688 340.825L455.65875 340.825L455.65875 349.45ZM458.84625 347.46564L459.86188 347.3719Q459.98688 348.09064 460.34625 348.41876Q460.72125 348.73126 461.28375 348.73126Q461.76813 348.73126 462.1275 348.5125Q462.5025 348.27814 462.73688 347.91876Q462.97125 347.54376 463.1275 346.91876Q463.28375 346.27814 463.28375 345.6219Q463.28375 345.54376 463.28375 345.40314Q462.97125 345.90314 462.42438 346.23126Q461.8775 346.54376 461.23688 346.54376Q460.15875 346.54376 459.42438 345.77814Q458.69 344.9969 458.69 343.73126Q458.69 342.41876 459.45563 341.6219Q460.23688 340.825 461.39313 340.825Q462.22125 340.825 462.90875 341.27814Q463.61188 341.73126 463.97125 342.575Q464.33063 343.40314 464.33063 344.98126Q464.33063 346.6219 463.97125 347.60626Q463.6275 348.575 462.90875 349.09064Q462.20563 349.59064 461.26813 349.59064Q460.2525 349.59064 459.61188 349.04376Q458.97125 348.48126 458.84625 347.46564ZM463.15875 343.66876Q463.15875 342.7625 462.67438 342.23126Q462.20563 341.7 461.51813 341.7Q460.815 341.7 460.28375 342.27814Q459.76813 342.84064 459.76813 343.7625Q459.76813 344.575 460.26813 345.09064Q460.76813 345.60626 461.48688 345.60626Q462.22125 345.60626 462.69 345.09064Q463.15875 344.575 463.15875 343.66876Z" fill-rule="nonzero"/><path stroke="#4285f4" stroke-width="4.0" stroke-linecap="butt" d="M473.45 25.55L485.45 25.55" fill-rule="nonzero"/><path fill="#1a1a1a" d="M500.0125 20.95625L501.15314 20.95625L501.15314 25.925Q501.15314 27.221874 500.85626 27.9875Q500.5594 28.7375 499.79376 29.221874Q499.02814 29.690624 497.79376 29.690624Q496.59064 29.690624 495.8094 29.284374Q495.04376 28.8625 494.71564 28.08125Q494.3875 27.284374 494.3875 25.925L494.3875 20.95625L495.52814 20.95625L495.52814 25.909374Q495.52814 27.034374 495.73126 27.565624Q495.95 28.096874 496.45 28.39375Q496.96564 28.675 497.7 28.675Q498.95 28.675 499.48126 28.1125Q500.0125 27.534374 500.0125 25.909374L500.0125 20.95625ZM503.2469 29.55L503.2469 23.33125L504.1844 23.33125L504.1844 24.20625Q504.8719 23.190624 506.16876 23.190624Q506.73126 23.190624 507.2 23.39375Q507.6844 23.596874 507.91876 23.925Q508.15314 24.253124 508.2469 24.690624Q508.29376 24.9875 508.29376 25.721874L508.29376 29.55L507.2469 29.55L507.2469 25.76875Q507.2469 25.1125 507.1219 24.8Q506.9969 24.4875 506.6844 24.3Q506.3719 24.096874 505.95 24.096874Q505.27814 24.096874 504.77814 24.534374Q504.29376 24.95625 504.29376 26.14375L504.29376 29.55L503.2469 29.55ZM510.2469 22.175L510.2469 20.95625L511.3094 20.95625L511.3094 22.175L510.2469 22.175ZM510.2469 29.55L510.2469 23.33125L511.3094 23.33125L511.3094 29.55L510.2469 29.55ZM515.54376 28.6125L515.7 29.534374Q515.2469 29.628124 514.90314 29.628124Q514.325 29.628124 514.0125 29.45625Q513.7 29.26875 513.5594 28.971874Q513.4344 28.675 513.4344 27.721874L513.4344 24.14375L512.66876 24.14375L512.66876 23.33125L513.4344 23.33125L513.4344 21.784374L514.48126 21.159374L514.48126 23.33125L515.54376 23.33125L515.54376 24.14375L514.48126 24.14375L514.48126 27.784374Q514.48126 28.2375 514.52814 28.3625Q514.59064 28.4875 514.71564 28.565624Q514.84064 28.64375 515.075 28.64375Q515.2625 28.64375 515.54376 28.6125ZM520.4969 27.55L521.59064 27.675Q521.34064 28.628124 520.6375 29.159374Q519.9344 29.690624 518.85626 29.690624Q517.4969 29.690624 516.6844 28.846874Q515.8875 28.003124 515.8875 26.4875Q515.8875 24.925 516.7 24.065624Q517.5125 23.190624 518.79376 23.190624Q520.04376 23.190624 520.825 24.034374Q521.6219 24.878124 521.6219 26.425Q521.6219 26.51875 521.6219 26.70625L516.98126 26.70625Q517.04376 27.7375 517.5594 28.284374Q518.075 28.815624 518.85626 28.815624Q519.4344 28.815624 519.84064 28.51875Q520.2625 28.20625 520.4969 27.55ZM517.04376 25.846874L520.5125 25.846874Q520.45 25.05 520.1219 24.659374Q519.60626 24.05 518.8094 24.05Q518.075 24.05 517.575 24.534374Q517.09064 25.01875 517.04376 25.846874ZM527.27814 29.55L527.27814 28.76875Q526.6844 29.690624 525.54376 29.690624Q524.79376 29.690624 524.16876 29.284374Q523.54376 28.8625 523.2 28.128124Q522.85626 27.39375 522.85626 26.440624Q522.85626 25.51875 523.16876 24.753124Q523.48126 23.9875 524.10626 23.596874Q524.73126 23.190624 525.4969 23.190624Q526.0594 23.190624 526.4969 23.425Q526.9344 23.659374 527.21564 24.034374L527.21564 20.95625L528.2625 20.95625L528.2625 29.55L527.27814 29.55ZM523.95 26.440624Q523.95 27.64375 524.45 28.2375Q524.95 28.815624 525.6375 28.815624Q526.325 28.815624 526.8094 28.253124Q527.29376 27.690624 527.29376 26.534374Q527.29376 25.253124 526.79376 24.659374Q526.3094 24.065624 525.59064 24.065624Q524.8875 24.065624 524.41876 24.64375Q523.95 25.20625 523.95 26.440624ZM532.9969 26.784374L534.0594 26.690624Q534.1375 27.346874 534.41876 27.753124Q534.7 28.159374 535.27814 28.425Q535.8719 28.675 536.60626 28.675Q537.2469 28.675 537.7469 28.4875Q538.2469 28.284374 538.48126 27.95625Q538.73126 27.6125 538.73126 27.221874Q538.73126 26.815624 538.4969 26.51875Q538.2625 26.20625 537.73126 26.003124Q537.3719 25.8625 536.1844 25.58125Q535.0125 25.3 534.54376 25.05Q533.91876 24.721874 533.6219 24.253124Q533.325 23.76875 533.325 23.175Q533.325 22.534374 533.6844 21.971874Q534.0594 21.39375 534.7625 21.1125Q535.48126 20.815624 536.34064 20.815624Q537.29376 20.815624 538.02814 21.128124Q538.7625 21.425 539.15314 22.034374Q539.54376 22.628124 539.575 23.378124L538.48126 23.45625Q538.3875 22.64375 537.8719 22.2375Q537.3719 21.815624 536.3875 21.815624Q535.35626 21.815624 534.8875 22.190624Q534.41876 22.565624 534.41876 23.096874Q534.41876 23.565624 534.7469 23.8625Q535.075 24.159374 536.45 24.471874Q537.84064 24.784374 538.35626 25.01875Q539.10626 25.378124 539.46564 25.909374Q539.825 26.425 539.825 27.128124Q539.825 27.815624 539.4344 28.425Q539.04376 29.01875 538.3094 29.3625Q537.575 29.690624 536.65314 29.690624Q535.48126 29.690624 534.6844 29.3625Q533.90314 29.01875 533.45 28.33125Q533.0125 27.64375 532.9969 26.784374ZM543.54376 28.6125L543.7 29.534374Q543.2469 29.628124 542.90314 29.628124Q542.325 29.628124 542.0125 29.45625Q541.7 29.26875 541.5594 28.971874Q541.4344 28.675 541.4344 27.721874L541.4344 24.14375L540.66876 24.14375L540.66876 23.33125L541.4344 23.33125L541.4344 21.784374L542.48126 21.159374L542.48126 23.33125L543.54376 23.33125L543.54376 24.14375L542.48126 24.14375L542.48126 27.784374Q542.48126 28.2375 542.52814 28.3625Q542.59064 28.4875 542.71564 28.565624Q542.84064 28.64375 543.075 28.64375Q543.2625 28.64375 543.54376 28.6125ZM548.3094 28.784374Q547.71564 29.284374 547.16876 29.4875Q546.6375 29.690624 546.0125 29.690624Q544.98126 29.690624 544.4344 29.190624Q543.8875 28.690624 543.8875 27.909374Q543.8875 27.45625 544.09064 27.08125Q544.29376 26.690624 544.6375 26.471874Q544.98126 26.2375 545.40314 26.128124Q545.7 26.034374 546.34064 25.95625Q547.60626 25.815624 548.21564 25.596874Q548.21564 25.378124 548.21564 25.33125Q548.21564 24.675 547.91876 24.409374Q547.5125 24.065624 546.71564 24.065624Q545.98126 24.065624 545.6219 24.33125Q545.2625 24.58125 545.09064 25.2375L544.0594 25.096874Q544.2 24.440624 544.52814 24.034374Q544.85626 23.628124 545.46564 23.409374Q546.075 23.190624 546.8719 23.190624Q547.66876 23.190624 548.16876 23.378124Q548.66876 23.565624 548.90314 23.846874Q549.1375 24.128124 549.23126 24.565624Q549.27814 24.83125 549.27814 25.534374L549.27814 26.940624Q549.27814 28.409374 549.34064 28.8Q549.41876 29.190624 549.6219 29.55L548.5125 29.55Q548.35626 29.221874 548.3094 28.784374ZM548.21564 26.425Q547.6375 26.659374 546.4969 26.83125Q545.84064 26.925 545.575 27.05Q545.3094 27.159374 545.15314 27.378124Q545.0125 27.596874 545.0125 27.878124Q545.0125 28.3 545.325 28.58125Q545.65314 28.8625 546.2625 28.8625Q546.8719 28.8625 547.34064 28.596874Q547.825 28.33125 548.04376 27.8625Q548.21564 27.503124 548.21564 26.815624L548.21564 26.425ZM553.54376 28.6125L553.7 29.534374Q553.2469 29.628124 552.90314 29.628124Q552.325 29.628124 552.0125 29.45625Q551.7 29.26875 551.5594 28.971874Q551.4344 28.675 551.4344 27.721874L551.4344 24.14375L550.66876 24.14375L550.66876 23.33125L551.4344 23.33125L551.4344 21.784374L552.48126 21.159374L552.48126 23.33125L553.54376 23.33125L553.54376 24.14375L552.48126 24.14375L552.48126 27.784374Q552.48126 28.2375 552.52814 28.3625Q552.59064 28.4875 552.71564 28.565624Q552.84064 28.64375 553.075 28.64375Q553.2625 28.64375 553.54376 28.6125ZM558.4969 27.55L559.59064 27.675Q559.34064 28.628124 558.6375 29.159374Q557.9344 29.690624 556.85626 29.690624Q555.4969 29.690624 554.6844 28.846874Q553.8875 28.003124 553.8875 26.4875Q553.8875 24.925 554.7 24.065624Q555.5125 23.190624 556.79376 23.190624Q558.04376 23.190624 558.825 24.034374Q559.6219 24.878124 559.6219 26.425Q559.6219 26.51875 559.6219 26.70625L554.98126 26.70625Q555.04376 27.7375 555.5594 28.284374Q556.075 28.815624 556.85626 28.815624Q557.4344 28.815624 557.84064 28.51875Q558.2625 28.20625 558.4969 27.55ZM555.04376 25.846874L558.5125 25.846874Q558.45 25.05 558.1219 24.659374Q557.60626 24.05 556.8094 24.05Q556.075 24.05 555.575 24.534374Q555.09064 25.01875 555.04376 25.846874ZM560.825 27.690624L561.85626 27.534374Q561.95 28.159374 562.34064 28.4875Q562.7469 28.815624 563.48126 28.815624Q564.2 28.815624 564.54376 28.534374Q564.90314 28.2375 564.90314 27.83125Q564.90314 27.471874 564.59064 27.26875Q564.3719 27.128124 563.5125 26.909374Q562.35626 26.6125 561.90314 26.409374Q561.46564 26.190624 561.23126 25.815624Q560.9969 25.440624 560.9969 24.971874Q560.9969 24.565624 561.1844 24.20625Q561.3719 23.846874 561.7 23.6125Q561.95 23.440624 562.3719 23.315624Q562.79376 23.190624 563.29376 23.190624Q564.0125 23.190624 564.5594 23.409374Q565.1219 23.6125 565.3875 23.971874Q565.65314 24.33125 565.7469 24.925L564.71564 25.065624Q564.65314 24.596874 564.3094 24.33125Q563.98126 24.05 563.35626 24.05Q562.6375 24.05 562.325 24.3Q562.0125 24.534374 562.0125 24.8625Q562.0125 25.065624 562.1375 25.221874Q562.27814 25.39375 562.54376 25.503124Q562.7 25.565624 563.48126 25.76875Q564.60626 26.08125 565.04376 26.26875Q565.48126 26.45625 565.73126 26.815624Q565.98126 27.175 565.98126 27.721874Q565.98126 28.253124 565.66876 28.721874Q565.3719 29.175 564.79376 29.440624Q564.21564 29.690624 563.48126 29.690624Q562.2625 29.690624 561.6219 29.190624Q560.9969 28.675 560.825 27.690624Z" fill-rule="nonzero"/><path stroke="#ea4335" stroke-width="4.0" stroke-linecap="butt" d="M473.45 49.55L485.45 49.55" fill-rule="nonzero"/><path fill="#1a1a1a" d="M494.575 53.55L494.575 44.95625L495.7 44.95625L495.7 53.55L494.575 53.55ZM497.2469 53.55L497.2469 47.33125L498.1844 47.33125L498.1844 48.20625Q498.8719 47.190624 500.16876 47.190624Q500.73126 47.190624 501.2 47.39375Q501.6844 47.596874 501.91876 47.925Q502.15314 48.253124 502.2469 48.690624Q502.29376 48.9875 502.29376 49.721874L502.29376 53.55L501.2469 53.55L501.2469 49.76875Q501.2469 49.1125 501.1219 48.8Q500.9969 48.4875 500.6844 48.3Q500.3719 48.096874 499.95 48.096874Q499.27814 48.096874 498.77814 48.534374Q498.29376 48.95625 498.29376 50.14375L498.29376 53.55L497.2469 53.55ZM508.27814 53.55L508.27814 52.76875Q507.6844 53.690624 506.54376 53.690624Q505.79376 53.690624 505.16876 53.284374Q504.54376 52.8625 504.2 52.128124Q503.85626 51.39375 503.85626 50.440624Q503.85626 49.51875 504.16876 48.753124Q504.48126 47.9875 505.10626 47.596874Q505.73126 47.190624 506.4969 47.190624Q507.0594 47.190624 507.4969 47.425Q507.9344 47.659374 508.21564 48.034374L508.21564 44.95625L509.2625 44.95625L509.2625 53.55L508.27814 53.55ZM504.95 50.440624Q504.95 51.64375 505.45 52.2375Q505.95 52.815624 506.6375 52.815624Q507.325 52.815624 507.8094 52.253124Q508.29376 51.690624 508.29376 50.534374Q508.29376 49.253124 507.79376 48.659374Q507.3094 48.065624 506.59064 48.065624Q505.8875 48.065624 505.41876 48.64375Q504.95 49.20625 504.95 50.440624ZM511.2469 46.175L511.2469 44.95625L512.3094 44.95625L512.3094 46.175L511.2469 46.175ZM511.2469 53.55L511.2469 47.33125L512.3094 47.33125L512.3094 53.55L511.2469 53.55ZM518.3094 52.784374Q517.71564 53.284374 517.16876 53.4875Q516.6375 53.690624 516.0125 53.690624Q514.98126 53.690624 514.4344 53.190624Q513.8875 52.690624 513.8875 51.909374Q513.8875 51.45625 514.09064 51.08125Q514.29376 50.690624 514.6375 50.471874Q514.98126 50.2375 515.40314 50.128124Q515.7 50.034374 516.34064 49.95625Q517.60626 49.815624 518.21564 49.596874Q518.21564 49.378124 518.21564 49.33125Q518.21564 48.675 517.91876 48.409374Q517.5125 48.065624 516.71564 48.065624Q515.98126 48.065624 515.6219 48.33125Q515.2625 48.58125 515.09064 49.2375L514.0594 49.096874Q514.2 48.440624 514.52814 48.034374Q514.85626 47.628124 515.46564 47.409374Q516.075 47.190624 516.8719 47.190624Q517.66876 47.190624 518.16876 47.378124Q518.66876 47.565624 518.90314 47.846874Q519.1375 48.128124 519.23126 48.565624Q519.27814 48.83125 519.27814 49.534374L519.27814 50.940624Q519.27814 52.409374 519.34064 52.8Q519.41876 53.190624 519.6219 53.55L518.5125 53.55Q518.35626 53.221874 518.3094 52.784374ZM518.21564 50.425Q517.6375 50.659374 516.4969 50.83125Q515.84064 50.925 515.575 51.05Q515.3094 51.159374 515.15314 51.378124Q515.0125 51.596874 515.0125 51.878124Q515.0125 52.3 515.325 52.58125Q515.65314 52.8625 516.2625 52.8625Q516.8719 52.8625 517.34064 52.596874Q517.825 52.33125 518.04376 51.8625Q518.21564 51.503124 518.21564 50.815624L518.21564 50.425Z" fill-rule="nonzero"/><path stroke="#fbbc04" stroke-width="4.0" stroke-linecap="butt" d="M473.45 73.55L485.45 73.55" fill-rule="nonzero"/><path fill="#1a1a1a" d="M498.40314 74.175L498.40314 73.175L502.02814 73.15938L502.02814 76.34688Q501.2 77.01875 500.3094 77.3625Q499.41876 77.69063 498.48126 77.69063Q497.21564 77.69063 496.16876 77.15938Q495.1375 76.6125 494.60626 75.59688Q494.09064 74.56563 494.09064 73.3Q494.09064 72.03438 494.60626 70.95625Q495.1375 69.8625 496.1219 69.34688Q497.10626 68.81563 498.3875 68.81563Q499.325 68.81563 500.075 69.1125Q500.825 69.40938 501.2469 69.95625Q501.6844 70.4875 501.90314 71.3625L500.8875 71.64375Q500.6844 70.9875 500.3875 70.6125Q500.10626 70.2375 499.575 70.01875Q499.04376 69.78438 498.40314 69.78438Q497.6219 69.78438 497.04376 70.01875Q496.48126 70.25313 496.1219 70.64375Q495.77814 71.03438 495.59064 71.50313Q495.2625 72.3 495.2625 73.22188Q495.2625 74.37813 495.65314 75.15938Q496.0594 75.925 496.8094 76.3Q497.5594 76.675 498.41876 76.675Q499.15314 76.675 499.85626 76.39375Q500.5594 76.09688 500.91876 75.78438L500.91876 74.175L498.40314 74.175ZM507.4969 75.55L508.59064 75.675Q508.34064 76.62813 507.6375 77.15938Q506.9344 77.69063 505.85626 77.69063Q504.4969 77.69063 503.6844 76.84688Q502.8875 76.00313 502.8875 74.4875Q502.8875 72.925 503.7 72.06563Q504.5125 71.19063 505.79376 71.19063Q507.04376 71.19063 507.825 72.03438Q508.6219 72.87813 508.6219 74.425Q508.6219 74.51875 508.6219 74.70625L503.98126 74.70625Q504.04376 75.7375 504.5594 76.28438Q505.075 76.81563 505.85626 76.81563Q506.4344 76.81563 506.84064 76.51875Q507.2625 76.20625 507.4969 75.55ZM504.04376 73.84688L507.5125 73.84688Q507.45 73.05 507.1219 72.65938Q506.60626 72.05 505.8094 72.05Q505.075 72.05 504.575 72.53438Q504.09064 73.01875 504.04376 73.84688ZM510.23126 77.55L510.23126 71.33125L511.1844 71.33125L511.1844 72.26875Q511.54376 71.6125 511.84064 71.40938Q512.15314 71.19063 512.52814 71.19063Q513.0594 71.19063 513.60626 71.51875L513.2469 72.50313Q512.85626 72.26875 512.48126 72.26875Q512.1219 72.26875 511.84064 72.4875Q511.575 72.69063 511.46564 73.06563Q511.27814 73.62813 511.27814 74.28438L511.27814 77.55L510.23126 77.55ZM514.2469 77.55L514.2469 71.33125L515.1844 71.33125L515.1844 72.20625Q515.48126 71.7375 515.96564 71.47188Q516.45 71.19063 517.075 71.19063Q517.7625 71.19063 518.2 71.47188Q518.65314 71.75313 518.825 72.26875Q519.575 71.19063 520.7469 71.19063Q521.6844 71.19063 522.16876 71.70625Q522.66876 72.20625 522.66876 73.28438L522.66876 77.55L521.6219 77.55L521.6219 73.62813Q521.6219 73.00313 521.5125 72.72188Q521.41876 72.44063 521.15314 72.26875Q520.8875 72.09688 520.5125 72.09688Q519.85626 72.09688 519.41876 72.53438Q518.9969 72.97188 518.9969 73.94063L518.9969 77.55L517.9344 77.55L517.9344 73.50313Q517.9344 72.8 517.66876 72.45625Q517.41876 72.09688 516.84064 72.09688Q516.3875 72.09688 516.0125 72.33125Q515.6375 72.56563 515.46564 73.01875Q515.29376 73.47188 515.29376 74.31563L515.29376 77.55L514.2469 77.55ZM528.3094 76.78438Q527.71564 77.28438 527.16876 77.4875Q526.6375 77.69063 526.0125 77.69063Q524.98126 77.69063 524.4344 77.19063Q523.8875 76.69063 523.8875 75.90938Q523.8875 75.45625 524.09064 75.08125Q524.29376 74.69063 524.6375 74.47188Q524.98126 74.2375 525.40314 74.12813Q525.7 74.03438 526.34064 73.95625Q527.60626 73.81563 528.21564 73.59688Q528.21564 73.37813 528.21564 73.33125Q528.21564 72.675 527.91876 72.40938Q527.5125 72.06563 526.71564 72.06563Q525.98126 72.06563 525.6219 72.33125Q525.2625 72.58125 525.09064 73.2375L524.0594 73.09688Q524.2 72.44063 524.52814 72.03438Q524.85626 71.62813 525.46564 71.40938Q526.075 71.19063 526.8719 71.19063Q527.66876 71.19063 528.16876 71.37813Q528.66876 71.56563 528.90314 71.84688Q529.1375 72.12813 529.23126 72.56563Q529.27814 72.83125 529.27814 73.53438L529.27814 74.94063Q529.27814 76.40938 529.34064 76.8Q529.41876 77.19063 529.6219 77.55L528.5125 77.55Q528.35626 77.22188 528.3094 76.78438ZM528.21564 74.425Q527.6375 74.65938 526.4969 74.83125Q525.84064 74.925 525.575 75.05Q525.3094 75.15938 525.15314 75.37813Q525.0125 75.59688 525.0125 75.87813Q525.0125 76.3 525.325 76.58125Q525.65314 76.8625 526.2625 76.8625Q526.8719 76.8625 527.34064 76.59688Q527.825 76.33125 528.04376 75.8625Q528.21564 75.50313 528.21564 74.81563L528.21564 74.425ZM531.2469 77.55L531.2469 71.33125L532.1844 71.33125L532.1844 72.20625Q532.8719 71.19063 534.16876 71.19063Q534.73126 71.19063 535.2 71.39375Q535.6844 71.59688 535.91876 71.925Q536.15314 72.25313 536.2469 72.69063Q536.29376 72.9875 536.29376 73.72188L536.29376 77.55L535.2469 77.55L535.2469 73.76875Q535.2469 73.1125 535.1219 72.8Q534.9969 72.4875 534.6844 72.3Q534.3719 72.09688 533.95 72.09688Q533.27814 72.09688 532.77814 72.53438Q532.29376 72.95625 532.29376 74.14375L532.29376 77.55L531.2469 77.55ZM538.2 79.94063L538.075 78.95625Q538.41876 79.05 538.6844 79.05Q539.02814 79.05 539.23126 78.925Q539.45 78.81563 539.59064 78.6125Q539.6844 78.44063 539.91876 77.81563Q539.9344 77.7375 540.0125 77.56563L537.6375 71.33125L538.77814 71.33125L540.075 74.925Q540.325 75.6125 540.52814 76.37813Q540.71564 75.64375 540.96564 74.95625L542.29376 71.33125L543.34064 71.33125L540.98126 77.65938Q540.59064 78.675 540.3875 79.06563Q540.10626 79.59688 539.73126 79.83125Q539.3719 80.08125 538.8719 80.08125Q538.575 80.08125 538.2 79.94063Z" fill-rule="nonzero"/><path stroke="#34a853" stroke-width="4.0" stroke-linecap="butt" d="M473.45 97.55L485.45 97.55" fill-rule="nonzero"/><path fill="#1a1a1a" d="M500.0125 92.95625L501.15314 92.95625L501.15314 97.925Q501.15314 99.22188 500.85626 99.9875Q500.5594 100.7375 499.79376 101.22188Q499.02814 101.69063 497.79376 101.69063Q496.59064 101.69063 495.8094 101.28438Q495.04376 100.8625 494.71564 100.08125Q494.3875 99.28438 494.3875 97.925L494.3875 92.95625L495.52814 92.95625L495.52814 97.90938Q495.52814 99.03438 495.73126 99.56563Q495.95 100.09688 496.45 100.39375Q496.96564 100.675 497.7 100.675Q498.95 100.675 499.48126 100.1125Q500.0125 99.53438 500.0125 97.90938L500.0125 92.95625ZM503.2469 101.55L503.2469 95.33125L504.1844 95.33125L504.1844 96.20625Q504.8719 95.19063 506.16876 95.19063Q506.73126 95.19063 507.2 95.39375Q507.6844 95.59688 507.91876 95.925Q508.15314 96.25313 508.2469 96.69063Q508.29376 96.9875 508.29376 97.72188L508.29376 101.55L507.2469 101.55L507.2469 97.76875Q507.2469 97.1125 507.1219 96.8Q506.9969 96.4875 506.6844 96.3Q506.3719 96.09688 505.95 96.09688Q505.27814 96.09688 504.77814 96.53438Q504.29376 96.95625 504.29376 98.14375L504.29376 101.55L503.2469 101.55ZM510.2469 94.175L510.2469 92.95625L511.3094 92.95625L511.3094 94.175L510.2469 94.175ZM510.2469 101.55L510.2469 95.33125L511.3094 95.33125L511.3094 101.55L510.2469 101.55ZM515.54376 100.6125L515.7 101.53438Q515.2469 101.62813 514.90314 101.62813Q514.325 101.62813 514.0125 101.45625Q513.7 101.26875 513.5594 100.97188Q513.4344 100.675 513.4344 99.72188L513.4344 96.14375L512.66876 96.14375L512.66876 95.33125L513.4344 95.33125L513.4344 93.78438L514.48126 93.15938L514.48126 95.33125L515.54376 95.33125L515.54376 96.14375L514.48126 96.14375L514.48126 99.78438Q514.48126 100.2375 514.52814 100.3625Q514.59064 100.4875 514.71564 100.56563Q514.84064 100.64375 515.075 100.64375Q515.2625 100.64375 515.54376 100.6125ZM520.4969 99.55L521.59064 99.675Q521.34064 100.62813 520.6375 101.15938Q519.9344 101.69063 518.85626 101.69063Q517.4969 101.69063 516.6844 100.84688Q515.8875 100.00313 515.8875 98.4875Q515.8875 96.925 516.7 96.06563Q517.5125 95.19063 518.79376 95.19063Q520.04376 95.19063 520.825 96.03438Q521.6219 96.87813 521.6219 98.425Q521.6219 98.51875 521.6219 98.70625L516.98126 98.70625Q517.04376 99.7375 517.5594 100.28438Q518.075 100.81563 518.85626 100.81563Q519.4344 100.81563 519.84064 100.51875Q520.2625 100.20625 520.4969 99.55ZM517.04376 97.84688L520.5125 97.84688Q520.45 97.05 520.1219 96.65938Q519.60626 96.05 518.8094 96.05Q518.075 96.05 517.575 96.53438Q517.09064 97.01875 517.04376 97.84688ZM527.27814 101.55L527.27814 100.76875Q526.6844 101.69063 525.54376 101.69063Q524.79376 101.69063 524.16876 101.28438Q523.54376 100.8625 523.2 100.12813Q522.85626 99.39375 522.85626 98.44063Q522.85626 97.51875 523.16876 96.75313Q523.48126 95.9875 524.10626 95.59688Q524.73126 95.19063 525.4969 95.19063Q526.0594 95.19063 526.4969 95.425Q526.9344 95.65938 527.21564 96.03438L527.21564 92.95625L528.2625 92.95625L528.2625 101.55L527.27814 101.55ZM523.95 98.44063Q523.95 99.64375 524.45 100.2375Q524.95 100.81563 525.6375 100.81563Q526.325 100.81563 526.8094 100.25313Q527.29376 99.69063 527.29376 98.53438Q527.29376 97.25313 526.79376 96.65938Q526.3094 96.06563 525.59064 96.06563Q524.8875 96.06563 524.41876 96.64375Q523.95 97.20625 523.95 98.44063ZM533.325 101.55L533.325 92.95625L534.46564 92.95625L534.46564 97.22188L538.73126 92.95625L540.27814 92.95625L536.66876 96.44063L540.4344 101.55L538.9344 101.55L535.8719 97.20625L534.46564 98.56563L534.46564 101.55L533.325 101.55ZM541.2469 94.175L541.2469 92.95625L542.3094 92.95625L542.3094 94.175L541.2469 94.175ZM541.2469 101.55L541.2469 95.33125L542.3094 95.33125L542.3094 101.55L541.2469 101.55ZM544.2469 101.55L544.2469 95.33125L545.1844 95.33125L545.1844 96.20625Q545.8719 95.19063 547.16876 95.19063Q547.73126 95.19063 548.2 95.39375Q548.6844 95.59688 548.91876 95.925Q549.15314 96.25313 549.2469 96.69063Q549.29376 96.9875 549.29376 97.72188L549.29376 101.55L548.2469 101.55L548.2469 97.76875Q548.2469 97.1125 548.1219 96.8Q547.9969 96.4875 547.6844 96.3Q547.3719 96.09688 546.95 96.09688Q546.27814 96.09688 545.77814 96.53438Q545.29376 96.95625 545.29376 98.14375L545.29376 101.55L544.2469 101.55ZM551.04376 102.06563L552.075 102.22188Q552.1375 102.69063 552.4344 102.90938Q552.825 103.20625 553.4969 103.20625Q554.23126 103.20625 554.6219 102.90938Q555.02814 102.6125 555.16876 102.09688Q555.2625 101.76875 555.2469 100.7375Q554.5594 101.55 553.52814 101.55Q552.2469 101.55 551.54376 100.62813Q550.84064 99.69063 550.84064 98.40938Q550.84064 97.51875 551.15314 96.76875Q551.48126 96.00313 552.09064 95.59688Q552.7 95.19063 553.52814 95.19063Q554.6375 95.19063 555.35626 96.08125L555.35626 95.33125L556.325 95.33125L556.325 100.70625Q556.325 102.15938 556.02814 102.76875Q555.73126 103.37813 555.09064 103.72188Q554.45 104.08125 553.5125 104.08125Q552.40314 104.08125 551.71564 103.58125Q551.02814 103.08125 551.04376 102.06563ZM551.91876 98.33125Q551.91876 99.55 552.40314 100.1125Q552.8875 100.675 553.6219 100.675Q554.35626 100.675 554.84064 100.1125Q555.34064 99.55 555.34064 98.3625Q555.34064 97.22188 554.825 96.64375Q554.325 96.06563 553.60626 96.06563Q552.90314 96.06563 552.40314 96.64375Q551.91876 97.20625 551.91876 98.33125ZM562.27814 101.55L562.27814 100.76875Q561.6844 101.69063 560.54376 101.69063Q559.79376 101.69063 559.16876 101.28438Q558.54376 100.8625 558.2 100.12813Q557.85626 99.39375 557.85626 98.44063Q557.85626 97.51875 558.16876 96.75313Q558.48126 95.9875 559.10626 95.59688Q559.73126 95.19063 560.4969 95.19063Q561.0594 95.19063 561.4969 95.425Q561.9344 95.65938 562.21564 96.03438L562.21564 92.95625L563.2625 92.95625L563.2625 101.55L562.27814 101.55ZM558.95 98.44063Q558.95 99.64375 559.45 100.2375Q559.95 100.81563 560.6375 100.81563Q561.325 100.81563 561.8094 100.25313Q562.29376 99.69063 562.29376 98.53438Q562.29376 97.25313 561.79376 96.65938Q561.3094 96.06563 560.59064 96.06563Q559.8875 96.06563 559.41876 96.64375Q558.95 97.20625 558.95 98.44063ZM564.85626 98.44063Q564.85626 96.70625 565.8094 95.87813Q566.60626 95.19063 567.7625 95.19063Q569.04376 95.19063 569.85626 96.03438Q570.6844 96.8625 570.6844 98.34688Q570.6844 99.55 570.325 100.2375Q569.96564 100.925 569.2625 101.31563Q568.575 101.69063 567.7625 101.69063Q566.46564 101.69063 565.65314 100.8625Q564.85626 100.01875 564.85626 98.44063ZM565.9344 98.44063Q565.9344 99.62813 566.45 100.22188Q566.98126 100.81563 567.7625 100.81563Q568.5594 100.81563 569.075 100.22188Q569.59064 99.62813 569.59064 98.40938Q569.59064 97.25313 569.0594 96.65938Q568.54376 96.06563 567.7625 96.06563Q566.98126 96.06563 566.45 96.65938Q565.9344 97.2375 565.9344 98.44063ZM572.2469 101.55L572.2469 95.33125L573.1844 95.33125L573.1844 96.20625Q573.48126 95.7375 573.96564 95.47188Q574.45 95.19063 575.075 95.19063Q575.7625 95.19063 576.2 95.47188Q576.65314 95.75313 576.825 96.26875Q577.575 95.19063 578.7469 95.19063Q579.6844 95.19063 580.16876 95.70625Q580.66876 96.20625 580.66876 97.28438L580.66876 101.55L579.6219 101.55L579.6219 97.62813Q579.6219 97.00313 579.5125 96.72188Q579.41876 96.44063 579.15314 96.26875Q578.8875 96.09688 578.5125 96.09688Q577.85626 96.09688 577.41876 96.53438Q576.9969 96.97188 576.9969 97.94063L576.9969 101.55L575.9344 101.55L575.9344 97.50313Q575.9344 96.8 575.66876 96.45625Q575.41876 96.09688 574.84064 96.09688Q574.3875 96.09688 574.0125 96.33125Q573.6375 96.56563 573.46564 97.01875Q573.29376 97.47188 573.29376 98.31563L573.29376 101.55L572.2469 101.55Z" fill-rule="nonzero"/><path stroke="#ff6d01" stroke-width="4.0" stroke-linecap="butt" d="M473.45 121.55L485.45 121.55" fill-rule="nonzero"/><path fill="#1a1a1a" d="M500.5125 122.53438L501.6375 122.83125Q501.27814 124.22188 500.35626 124.95625Q499.4344 125.69063 498.09064 125.69063Q496.7 125.69063 495.825 125.12813Q494.95 124.56563 494.4969 123.50313Q494.04376 122.425 494.04376 121.19063Q494.04376 119.84688 494.5594 118.84688Q495.075 117.84688 496.0125 117.33125Q496.96564 116.81563 498.10626 116.81563Q499.3875 116.81563 500.2625 117.47188Q501.15314 118.12813 501.4969 119.31563L500.3719 119.58125Q500.075 118.64375 499.4969 118.22188Q498.9344 117.78438 498.075 117.78438Q497.09064 117.78438 496.41876 118.26875Q495.7625 118.7375 495.48126 119.53438Q495.21564 120.33125 495.21564 121.19063Q495.21564 122.28438 495.52814 123.09688Q495.85626 123.90938 496.52814 124.31563Q497.2 124.72188 497.9969 124.72188Q498.95 124.72188 499.60626 124.175Q500.27814 123.62813 500.5125 122.53438ZM507.3094 124.78438Q506.71564 125.28438 506.16876 125.4875Q505.6375 125.69063 505.0125 125.69063Q503.98126 125.69063 503.4344 125.19063Q502.8875 124.69063 502.8875 123.90938Q502.8875 123.45625 503.09064 123.08125Q503.29376 122.69063 503.6375 122.47188Q503.98126 122.2375 504.40314 122.12813Q504.7 122.03438 505.34064 121.95625Q506.60626 121.81563 507.21564 121.59688Q507.21564 121.37813 507.21564 121.33125Q507.21564 120.675 506.91876 120.40938Q506.5125 120.06563 505.71564 120.06563Q504.98126 120.06563 504.6219 120.33125Q504.2625 120.58125 504.09064 121.2375L503.0594 121.09688Q503.2 120.44063 503.52814 120.03438Q503.85626 119.62813 504.46564 119.40938Q505.075 119.19063 505.8719 119.19063Q506.66876 119.19063 507.16876 119.37813Q507.66876 119.56563 507.90314 119.84688Q508.1375 120.12813 508.23126 120.56563Q508.27814 120.83125 508.27814 121.53438L508.27814 122.94063Q508.27814 124.40938 508.34064 124.8Q508.41876 125.19063 508.6219 125.55L507.5125 125.55Q507.35626 125.22188 507.3094 124.78438ZM507.21564 122.425Q506.6375 122.65938 505.4969 122.83125Q504.84064 122.925 504.575 123.05Q504.3094 123.15938 504.15314 123.37813Q504.0125 123.59688 504.0125 123.87813Q504.0125 124.3 504.325 124.58125Q504.65314 124.8625 505.2625 124.8625Q505.8719 124.8625 506.34064 124.59688Q506.825 124.33125 507.04376 123.8625Q507.21564 123.50313 507.21564 122.81563L507.21564 122.425ZM510.2469 125.55L510.2469 119.33125L511.1844 119.33125L511.1844 120.20625Q511.8719 119.19063 513.16876 119.19063Q513.73126 119.19063 514.2 119.39375Q514.6844 119.59688 514.91876 119.925Q515.15314 120.25313 515.2469 120.69063Q515.29376 120.9875 515.29376 121.72188L515.29376 125.55L514.2469 125.55L514.2469 121.76875Q514.2469 121.1125 514.1219 120.8Q513.9969 120.4875 513.6844 120.3Q513.3719 120.09688 512.95 120.09688Q512.27814 120.09688 511.77814 120.53438Q511.29376 120.95625 511.29376 122.14375L511.29376 125.55L510.2469 125.55ZM521.3094 124.78438Q520.71564 125.28438 520.16876 125.4875Q519.6375 125.69063 519.0125 125.69063Q517.98126 125.69063 517.4344 125.19063Q516.8875 124.69063 516.8875 123.90938Q516.8875 123.45625 517.09064 123.08125Q517.29376 122.69063 517.6375 122.47188Q517.98126 122.2375 518.40314 122.12813Q518.7 122.03438 519.34064 121.95625Q520.60626 121.81563 521.21564 121.59688Q521.21564 121.37813 521.21564 121.33125Q521.21564 120.675 520.91876 120.40938Q520.5125 120.06563 519.71564 120.06563Q518.98126 120.06563 518.6219 120.33125Q518.2625 120.58125 518.09064 121.2375L517.0594 121.09688Q517.2 120.44063 517.52814 120.03438Q517.85626 119.62813 518.46564 119.40938Q519.075 119.19063 519.8719 119.19063Q520.66876 119.19063 521.16876 119.37813Q521.66876 119.56563 521.90314 119.84688Q522.1375 120.12813 522.23126 120.56563Q522.27814 120.83125 522.27814 121.53438L522.27814 122.94063Q522.27814 124.40938 522.34064 124.8Q522.41876 125.19063 522.6219 125.55L521.5125 125.55Q521.35626 125.22188 521.3094 124.78438ZM521.21564 122.425Q520.6375 122.65938 519.4969 122.83125Q518.84064 122.925 518.575 123.05Q518.3094 123.15938 518.15314 123.37813Q518.0125 123.59688 518.0125 123.87813Q518.0125 124.3 518.325 124.58125Q518.65314 124.8625 519.2625 124.8625Q519.8719 124.8625 520.34064 124.59688Q520.825 124.33125 521.04376 123.8625Q521.21564 123.50313 521.21564 122.81563L521.21564 122.425ZM528.27814 125.55L528.27814 124.76875Q527.6844 125.69063 526.54376 125.69063Q525.79376 125.69063 525.16876 125.28438Q524.54376 124.8625 524.2 124.12813Q523.85626 123.39375 523.85626 122.44063Q523.85626 121.51875 524.16876 120.75313Q524.48126 119.9875 525.10626 119.59688Q525.73126 119.19063 526.4969 119.19063Q527.0594 119.19063 527.4969 119.425Q527.9344 119.65938 528.21564 120.03438L528.21564 116.95625L529.2625 116.95625L529.2625 125.55L528.27814 125.55ZM524.95 122.44063Q524.95 123.64375 525.45 124.2375Q525.95 124.81563 526.6375 124.81563Q527.325 124.81563 527.8094 124.25313Q528.29376 123.69063 528.29376 122.53438Q528.29376 121.25313 527.79376 120.65938Q527.3094 120.06563 526.59064 120.06563Q525.8875 120.06563 525.41876 120.64375Q524.95 121.20625 524.95 122.44063ZM535.3094 124.78438Q534.71564 125.28438 534.16876 125.4875Q533.6375 125.69063 533.0125 125.69063Q531.98126 125.69063 531.4344 125.19063Q530.8875 124.69063 530.8875 123.90938Q530.8875 123.45625 531.09064 123.08125Q531.29376 122.69063 531.6375 122.47188Q531.98126 122.2375 532.40314 122.12813Q532.7 122.03438 533.34064 121.95625Q534.60626 121.81563 535.21564 121.59688Q535.21564 121.37813 535.21564 121.33125Q535.21564 120.675 534.91876 120.40938Q534.5125 120.06563 533.71564 120.06563Q532.98126 120.06563 532.6219 120.33125Q532.2625 120.58125 532.09064 121.2375L531.0594 121.09688Q531.2 120.44063 531.52814 120.03438Q531.85626 119.62813 532.46564 119.40938Q533.075 119.19063 533.8719 119.19063Q534.66876 119.19063 535.16876 119.37813Q535.66876 119.56563 535.90314 119.84688Q536.1375 120.12813 536.23126 120.56563Q536.27814 120.83125 536.27814 121.53438L536.27814 122.94063Q536.27814 124.40938 536.34064 124.8Q536.41876 125.19063 536.6219 125.55L535.5125 125.55Q535.35626 125.22188 535.3094 124.78438ZM535.21564 122.425Q534.6375 122.65938 533.4969 122.83125Q532.84064 122.925 532.575 123.05Q532.3094 123.15938 532.15314 123.37813Q532.0125 123.59688 532.0125 123.87813Q532.0125 124.3 532.325 124.58125Q532.65314 124.8625 533.2625 124.8625Q533.8719 124.8625 534.34064 124.59688Q534.825 124.33125 535.04376 123.8625Q535.21564 123.50313 535.21564 122.81563L535.21564 122.425Z" fill-rule="nonzero"/><path stroke="#46bdc6" stroke-width="4.0" stroke-linecap="butt" d="M473.45 145.55L485.45 145.55" fill-rule="nonzero"/><path fill="#1a1a1a" d="M494.4344 149.55L494.4344 140.95625L500.23126 140.95625L500.23126 141.97188L495.575 141.97188L495.575 144.62813L499.60626 144.62813L499.60626 145.64375L495.575 145.64375L495.575 149.55L494.4344 149.55ZM501.23126 149.55L501.23126 143.33125L502.1844 143.33125L502.1844 144.26875Q502.54376 143.6125 502.84064 143.40938Q503.15314 143.19063 503.52814 143.19063Q504.0594 143.19063 504.60626 143.51875L504.2469 144.50313Q503.85626 144.26875 503.48126 144.26875Q503.1219 144.26875 502.84064 144.4875Q502.575 144.69063 502.46564 145.06563Q502.27814 145.62813 502.27814 146.28438L502.27814 149.55L501.23126 149.55ZM509.3094 148.78438Q508.71564 149.28438 508.16876 149.4875Q507.6375 149.69063 507.0125 149.69063Q505.98126 149.69063 505.4344 149.19063Q504.8875 148.69063 504.8875 147.90938Q504.8875 147.45625 505.09064 147.08125Q505.29376 146.69063 505.6375 146.47188Q505.98126 146.2375 506.40314 146.12813Q506.7 146.03438 507.34064 145.95625Q508.60626 145.81563 509.21564 145.59688Q509.21564 145.37813 509.21564 145.33125Q509.21564 144.675 508.91876 144.40938Q508.5125 144.06563 507.71564 144.06563Q506.98126 144.06563 506.6219 144.33125Q506.2625 144.58125 506.09064 145.2375L505.0594 145.09688Q505.2 144.44063 505.52814 144.03438Q505.85626 143.62813 506.46564 143.40938Q507.075 143.19063 507.8719 143.19063Q508.66876 143.19063 509.16876 143.37813Q509.66876 143.56563 509.90314 143.84688Q510.1375 144.12813 510.23126 144.56563Q510.27814 144.83125 510.27814 145.53438L510.27814 146.94063Q510.27814 148.40938 510.34064 148.8Q510.41876 149.19063 510.6219 149.55L509.5125 149.55Q509.35626 149.22188 509.3094 148.78438ZM509.21564 146.425Q508.6375 146.65938 507.4969 146.83125Q506.84064 146.925 506.575 147.05Q506.3094 147.15938 506.15314 147.37813Q506.0125 147.59688 506.0125 147.87813Q506.0125 148.3 506.325 148.58125Q506.65314 148.8625 507.2625 148.8625Q507.8719 148.8625 508.34064 148.59688Q508.825 148.33125 509.04376 147.8625Q509.21564 147.50313 509.21564 146.81563L509.21564 146.425ZM512.2469 149.55L512.2469 143.33125L513.1844 143.33125L513.1844 144.20625Q513.8719 143.19063 515.16876 143.19063Q515.73126 143.19063 516.2 143.39375Q516.6844 143.59688 516.91876 143.925Q517.15314 144.25313 517.2469 144.69063Q517.29376 144.9875 517.29376 145.72188L517.29376 149.55L516.2469 149.55L516.2469 145.76875Q516.2469 145.1125 516.1219 144.8Q515.9969 144.4875 515.6844 144.3Q515.3719 144.09688 514.95 144.09688Q514.27814 144.09688 513.77814 144.53438Q513.29376 144.95625 513.29376 146.14375L513.29376 149.55L512.2469 149.55ZM523.3094 147.26875L524.34064 147.40938Q524.16876 148.47188 523.46564 149.08125Q522.7625 149.69063 521.7469 149.69063Q520.46564 149.69063 519.6844 148.8625Q518.91876 148.01875 518.91876 146.45625Q518.91876 145.45625 519.2469 144.70625Q519.59064 143.94063 520.2625 143.56563Q520.95 143.19063 521.7625 143.19063Q522.7625 143.19063 523.40314 143.70625Q524.0594 144.20625 524.2469 145.15938L523.21564 145.31563Q523.075 144.69063 522.7 144.37813Q522.325 144.05 521.79376 144.05Q520.9969 144.05 520.4969 144.62813Q519.9969 145.19063 519.9969 146.425Q519.9969 147.69063 520.48126 148.25313Q520.96564 148.81563 521.73126 148.81563Q522.35626 148.81563 522.7625 148.44063Q523.1844 148.06563 523.3094 147.26875ZM529.4969 147.55L530.59064 147.675Q530.34064 148.62813 529.6375 149.15938Q528.9344 149.69063 527.85626 149.69063Q526.4969 149.69063 525.6844 148.84688Q524.8875 148.00313 524.8875 146.4875Q524.8875 144.925 525.7 144.06563Q526.5125 143.19063 527.79376 143.19063Q529.04376 143.19063 529.825 144.03438Q530.6219 144.87813 530.6219 146.425Q530.6219 146.51875 530.6219 146.70625L525.98126 146.70625Q526.04376 147.7375 526.5594 148.28438Q527.075 148.81563 527.85626 148.81563Q528.4344 148.81563 528.84064 148.51875Q529.2625 148.20625 529.4969 147.55ZM526.04376 145.84688L529.5125 145.84688Q529.45 145.05 529.1219 144.65938Q528.60626 144.05 527.8094 144.05Q527.075 144.05 526.575 144.53438Q526.09064 145.01875 526.04376 145.84688Z" fill-rule="nonzero"/><path stroke="#7baaf7" stroke-width="4.0" stroke-linecap="butt" d="M473.45 169.55L485.45 169.55" fill-rule="nonzero"/><path fill="#1a1a1a" d="M494.3719 173.55L494.3719 164.95625L495.52814 164.95625L500.04376 171.70625L500.04376 164.95625L501.1375 164.95625L501.1375 173.55L499.96564 173.55L495.45 166.8L495.45 173.55L494.3719 173.55ZM507.4969 171.55L508.59064 171.675Q508.34064 172.62813 507.6375 173.15938Q506.9344 173.69063 505.85626 173.69063Q504.4969 173.69063 503.6844 172.84688Q502.8875 172.00313 502.8875 170.4875Q502.8875 168.925 503.7 168.06563Q504.5125 167.19063 505.79376 167.19063Q507.04376 167.19063 507.825 168.03438Q508.6219 168.87813 508.6219 170.425Q508.6219 170.51875 508.6219 170.70625L503.98126 170.70625Q504.04376 171.7375 504.5594 172.28438Q505.075 172.81563 505.85626 172.81563Q506.4344 172.81563 506.84064 172.51875Q507.2625 172.20625 507.4969 171.55ZM504.04376 169.84688L507.5125 169.84688Q507.45 169.05 507.1219 168.65938Q506.60626 168.05 505.8094 168.05Q505.075 168.05 504.575 168.53438Q504.09064 169.01875 504.04376 169.84688ZM512.54376 172.6125L512.7 173.53438Q512.2469 173.62813 511.90314 173.62813Q511.325 173.62813 511.0125 173.45625Q510.7 173.26875 510.5594 172.97188Q510.4344 172.675 510.4344 171.72188L510.4344 168.14375L509.66876 168.14375L509.66876 167.33125L510.4344 167.33125L510.4344 165.78438L511.48126 165.15938L511.48126 167.33125L512.54376 167.33125L512.54376 168.14375L511.48126 168.14375L511.48126 171.78438Q511.48126 172.2375 511.52814 172.3625Q511.59064 172.4875 511.71564 172.56563Q511.84064 172.64375 512.075 172.64375Q512.2625 172.64375 512.54376 172.6125ZM513.2469 173.55L513.2469 164.95625L514.29376 164.95625L514.29376 168.03438Q515.02814 167.19063 516.15314 167.19063Q516.85626 167.19063 517.35626 167.47188Q517.8719 167.7375 518.09064 168.22188Q518.3094 168.69063 518.3094 169.6125L518.3094 173.55L517.2625 173.55L517.2625 169.6125Q517.2625 168.81563 516.91876 168.45625Q516.575 168.09688 515.95 168.09688Q515.48126 168.09688 515.0594 168.34688Q514.65314 168.58125 514.46564 169.00313Q514.29376 169.40938 514.29376 170.14375L514.29376 173.55L513.2469 173.55ZM524.4969 171.55L525.59064 171.675Q525.34064 172.62813 524.6375 173.15938Q523.9344 173.69063 522.85626 173.69063Q521.4969 173.69063 520.6844 172.84688Q519.8875 172.00313 519.8875 170.4875Q519.8875 168.925 520.7 168.06563Q521.5125 167.19063 522.79376 167.19063Q524.04376 167.19063 524.825 168.03438Q525.6219 168.87813 525.6219 170.425Q525.6219 170.51875 525.6219 170.70625L520.98126 170.70625Q521.04376 171.7375 521.5594 172.28438Q522.075 172.81563 522.85626 172.81563Q523.4344 172.81563 523.84064 172.51875Q524.2625 172.20625 524.4969 171.55ZM521.04376 169.84688L524.5125 169.84688Q524.45 169.05 524.1219 168.65938Q523.60626 168.05 522.8094 168.05Q522.075 168.05 521.575 168.53438Q521.09064 169.01875 521.04376 169.84688ZM527.23126 173.55L527.23126 167.33125L528.1844 167.33125L528.1844 168.26875Q528.54376 167.6125 528.84064 167.40938Q529.15314 167.19063 529.52814 167.19063Q530.0594 167.19063 530.60626 167.51875L530.2469 168.50313Q529.85626 168.26875 529.48126 168.26875Q529.1219 168.26875 528.84064 168.4875Q528.575 168.69063 528.46564 169.06563Q528.27814 169.62813 528.27814 170.28438L528.27814 173.55L527.23126 173.55ZM531.21564 173.55L531.21564 164.95625L532.27814 164.95625L532.27814 173.55L531.21564 173.55ZM538.3094 172.78438Q537.71564 173.28438 537.16876 173.4875Q536.6375 173.69063 536.0125 173.69063Q534.98126 173.69063 534.4344 173.19063Q533.8875 172.69063 533.8875 171.90938Q533.8875 171.45625 534.09064 171.08125Q534.29376 170.69063 534.6375 170.47188Q534.98126 170.2375 535.40314 170.12813Q535.7 170.03438 536.34064 169.95625Q537.60626 169.81563 538.21564 169.59688Q538.21564 169.37813 538.21564 169.33125Q538.21564 168.675 537.91876 168.40938Q537.5125 168.06563 536.71564 168.06563Q535.98126 168.06563 535.6219 168.33125Q535.2625 168.58125 535.09064 169.2375L534.0594 169.09688Q534.2 168.44063 534.52814 168.03438Q534.85626 167.62813 535.46564 167.40938Q536.075 167.19063 536.8719 167.19063Q537.66876 167.19063 538.16876 167.37813Q538.66876 167.56563 538.90314 167.84688Q539.1375 168.12813 539.23126 168.56563Q539.27814 168.83125 539.27814 169.53438L539.27814 170.94063Q539.27814 172.40938 539.34064 172.8Q539.41876 173.19063 539.6219 173.55L538.5125 173.55Q538.35626 173.22188 538.3094 172.78438ZM538.21564 170.425Q537.6375 170.65938 536.4969 170.83125Q535.84064 170.925 535.575 171.05Q535.3094 171.15938 535.15314 171.37813Q535.0125 171.59688 535.0125 171.87813Q535.0125 172.3 535.325 172.58125Q535.65314 172.8625 536.2625 172.8625Q536.8719 172.8625 537.34064 172.59688Q537.825 172.33125 538.04376 171.8625Q538.21564 171.50313 538.21564 170.81563L538.21564 170.425ZM541.2469 173.55L541.2469 167.33125L542.1844 167.33125L542.1844 168.20625Q542.8719 167.19063 544.16876 167.19063Q544.73126 167.19063 545.2 167.39375Q545.6844 167.59688 545.91876 167.925Q546.15314 168.25313 546.2469 168.69063Q546.29376 168.9875 546.29376 169.72188L546.29376 173.55L545.2469 173.55L545.2469 169.76875Q545.2469 169.1125 545.1219 168.8Q544.9969 168.4875 544.6844 168.3Q544.3719 168.09688 543.95 168.09688Q543.27814 168.09688 542.77814 168.53438Q542.29376 168.95625 542.29376 170.14375L542.29376 173.55L541.2469 173.55ZM552.27814 173.55L552.27814 172.76875Q551.6844 173.69063 550.54376 173.69063Q549.79376 173.69063 549.16876 173.28438Q548.54376 172.8625 548.2 172.12813Q547.85626 171.39375 547.85626 170.44063Q547.85626 169.51875 548.16876 168.75313Q548.48126 167.9875 549.10626 167.59688Q549.73126 167.19063 550.4969 167.19063Q551.0594 167.19063 551.4969 167.425Q551.9344 167.65938 552.21564 168.03438L552.21564 164.95625L553.2625 164.95625L553.2625 173.55L552.27814 173.55ZM548.95 170.44063Q548.95 171.64375 549.45 172.2375Q549.95 172.81563 550.6375 172.81563Q551.325 172.81563 551.8094 172.25313Q552.29376 171.69063 552.29376 170.53438Q552.29376 169.25313 551.79376 168.65938Q551.3094 168.06563 550.59064 168.06563Q549.8875 168.06563 549.41876 168.64375Q548.95 169.20625 548.95 170.44063ZM554.825 171.69063L555.85626 171.53438Q555.95 172.15938 556.34064 172.4875Q556.7469 172.81563 557.48126 172.81563Q558.2 172.81563 558.54376 172.53438Q558.90314 172.2375 558.90314 171.83125Q558.90314 171.47188 558.59064 171.26875Q558.3719 171.12813 557.5125 170.90938Q556.35626 170.6125 555.90314 170.40938Q555.46564 170.19063 555.23126 169.81563Q554.9969 169.44063 554.9969 168.97188Q554.9969 168.56563 555.1844 168.20625Q555.3719 167.84688 555.7 167.6125Q555.95 167.44063 556.3719 167.31563Q556.79376 167.19063 557.29376 167.19063Q558.0125 167.19063 558.5594 167.40938Q559.1219 167.6125 559.3875 167.97188Q559.65314 168.33125 559.7469 168.925L558.71564 169.06563Q558.65314 168.59688 558.3094 168.33125Q557.98126 168.05 557.35626 168.05Q556.6375 168.05 556.325 168.3Q556.0125 168.53438 556.0125 168.8625Q556.0125 169.06563 556.1375 169.22188Q556.27814 169.39375 556.54376 169.50313Q556.7 169.56563 557.48126 169.76875Q558.60626 170.08125 559.04376 170.26875Q559.48126 170.45625 559.73126 170.81563Q559.98126 171.175 559.98126 171.72188Q559.98126 172.25313 559.66876 172.72188Q559.3719 173.175 558.79376 173.44063Q558.21564 173.69063 557.48126 173.69063Q556.2625 173.69063 555.6219 173.19063Q554.9969 172.675 554.825 171.69063Z" fill-rule="nonzero"/></svg>